<svg width="89" height="21" viewBox="0 0 89 21" fill="none" xmlns="http://www.w3.org/2000/svg">
<mask id="path-1-outside-1_170_5" maskUnits="userSpaceOnUse" x="1" y="2" width="85" height="10" fill="black">
<rect fill="white" x="1" y="2" width="85" height="10"/>
<path d="M6.324 5.972C6.036 6.536 6.324 5.972 5.664 7.208L5.532 7.556C5.796 7.472 6.108 7.436 6.492 7.388C7.224 7.316 7.284 7.328 7.74 7.592C8.208 7.856 8.364 7.988 8.724 8.516C9.072 9.032 9.024 9.44 8.58 9.824C7.848 10.472 6.792 10.856 5.376 10.868C4.752 10.88 4.356 10.82 4.188 10.712C3.852 10.508 3.912 10.46 4.224 10.292C4.536 10.124 4.56 10.148 4.788 10.292C4.908 10.352 5.028 10.4 5.172 10.424C5.436 10.496 6.864 10.436 7.428 9.368C7.704 8.756 7.056 7.664 5.664 7.868L4.896 8.048C4.788 8.048 4.248 8.096 4.788 7.148L5.232 6.008C5.244 5.96 5.256 5.9 5.172 5.888C4.116 5.804 3.96 5.78 3.708 5.732C3.42 5.672 3.18 5.552 2.964 5.408C2.532 5.096 2.1 5.18 2.508 4.844C2.904 4.508 3.084 4.628 3.588 4.88C3.864 5.024 4.092 5.204 5.256 5.252C5.556 5.264 5.652 5.24 5.652 4.88C5.652 4.688 5.868 3.56 5.976 3.44C6.216 3.212 7.08 2.816 7.248 2.816C7.332 2.804 7.368 2.852 7.404 2.936C7.44 3.008 7.428 3.14 7.368 3.356C7.14 4.076 6.624 5.36 6.66 5.396C6.756 5.42 7.812 5.24 8.436 5.252C8.568 5.276 8.952 4.688 9.168 4.7C9.372 4.7 9.924 5.504 9.972 5.516C10.32 6.08 9.348 5.96 9.048 6.008C8.904 6.044 8.616 5.972 8.208 5.972H6.324ZM19.344 6.152V6.56H19.752C19.968 6.56 20.172 6.584 20.4 6.644C20.628 6.716 20.724 6.764 20.724 6.824C20.724 6.872 20.4 6.956 19.752 7.052L19.38 7.112L19.272 7.916C19.212 8.468 19.152 8.792 19.128 8.852C19.116 8.924 19.332 9.104 19.836 9.332L20.58 9.692L20.124 9.716C19.824 9.728 19.608 9.716 19.488 9.668C19.368 9.632 19.272 9.608 19.212 9.668C19.164 9.704 19.068 9.848 18.924 10.1C18.648 10.58 18.252 10.784 17.412 10.7C16.632 10.616 16.14 10.4 15.948 10.016C15.732 9.632 15.756 9.32 16.068 9.056C16.392 8.804 16.5 8.78 17.208 8.672L17.664 8.6V7.652C17.664 6.596 17.88 5.048 17.928 4.964C17.976 4.868 18.072 4.916 18.228 4.964C18.36 5.012 18.552 5.096 18.708 5.204C18.864 5.3 19.032 5.408 19.14 5.504C19.284 5.66 19.368 5.876 19.344 6.152ZM17.544 9.308C17.544 8.924 16.44 9.632 16.704 10.1C16.752 10.184 16.848 10.184 16.968 10.124C17.208 10.004 17.544 9.5 17.544 9.308ZM28.8 4.172C28.812 4.076 29.184 3.74 29.388 3.704C29.496 3.692 29.736 3.68 30.108 3.68C32.796 3.572 34.26 3.536 34.692 3.824C35.268 4.196 34.2 4.988 33.192 5.384C33.096 5.396 32.616 5.612 32.484 5.444L33.084 4.328L29.316 4.172C28.98 4.1 28.812 4.244 28.8 4.172ZM33.132 8.864C33.612 8.864 33.912 8.84 34.032 8.768C34.284 8.612 34.524 8.768 34.164 9.14C33.792 9.512 33.444 9.68 33.12 9.68C32.796 9.728 29.952 9.8 29.04 9.56C28.14 9.308 27.672 8.696 28.188 8.264C28.452 8.048 28.596 8.156 28.884 8.348C29.892 9.032 31.548 8.864 33.132 8.864ZM46.512 6.38C46.644 6.596 46.716 6.824 46.716 7.088C46.716 7.352 46.716 7.508 46.692 7.604C46.668 7.7 46.62 7.784 46.548 7.856C46.404 8.036 45.816 8.696 45.12 9.032C44.772 9.2 44.496 9.296 44.256 9.296C44.028 9.296 43.788 9.212 43.536 9.044L43.152 8.78L43.62 8.672C44.256 8.492 44.712 8.564 44.988 7.58C45.144 7.028 44.808 6.5 44.676 6.092C44.64 5.984 44.592 5.876 44.52 5.876C44.46 5.876 44.256 5.876 43.932 5.912C43.608 5.948 43.212 6.056 42.732 6.2C42.264 6.344 41.94 6.428 41.76 6.428C41.388 6.428 40.908 6.092 40.86 5.984C40.812 5.876 41.16 5.54 41.376 5.66C41.484 5.72 41.688 5.708 41.988 5.588C42.588 5.348 43.704 5.084 44.532 5.192C45.372 5.3 46.236 5.936 46.512 6.38ZM53.868 2.792C53.964 2.636 54.036 2.564 54.132 2.564C54.264 2.564 55.188 3.224 55.344 3.452C55.416 3.572 55.452 3.992 55.452 4.7C55.452 6.14 55.368 6.128 56.58 5.468C57.996 4.688 58.308 4.508 58.308 4.424C58.308 4.16 58.608 3.716 58.824 3.728C59.28 3.728 59.88 4.28 59.88 4.712C59.88 4.868 59.664 4.988 59.232 5.096C58.392 5.288 55.716 6.62 55.584 6.812C55.416 7.088 54.708 7.508 54.984 8.732C55.092 9.176 55.62 9.668 56.46 9.692C57.588 9.716 57.9 9.692 58.104 9.632C58.308 9.548 58.44 9.524 58.512 9.524C58.656 9.524 59.172 9.776 59.22 9.896C59.232 10.016 58.932 10.28 58.608 10.28C58.248 10.304 55.992 10.148 55.416 10.136C53.292 10.1 53.256 8.684 53.256 8.336C53.256 7.988 53.448 7.556 53.736 7.148C53.88 6.956 54.024 6.776 54.18 6.62L54.624 6.188L54.372 5.912C54.024 5.492 53.832 4.796 53.772 3.824C53.748 3.284 53.772 2.948 53.868 2.792Z"/>
<path d="M64.632 11.096C64.548 11.012 64.5 10.904 64.5 10.844C64.5 10.772 64.644 10.64 64.944 10.472C65.52 10.124 66.432 9.176 66.972 8.384L67.452 7.664L67.08 7.352C66.828 7.124 66.696 6.968 66.66 6.86C66.636 6.74 66.456 6.596 66.18 6.428C65.892 6.248 65.76 6.104 65.784 5.996C65.808 5.972 65.844 5.948 65.904 5.948C66.024 5.948 66.528 6.212 66.528 6.308C66.528 6.428 67.656 6.968 67.8 6.932C67.944 6.884 68.604 5.492 68.916 4.544C69.072 4.064 69.168 3.788 69.228 3.692C69.348 3.524 69.624 3.584 69.9 3.836C70.152 4.088 70.152 4.1 70.116 4.616C70.068 5.168 69.396 7.16 69.024 7.856L68.772 8.324L69.348 8.612C69.72 8.792 69.996 8.9 70.164 8.924C70.524 8.96 70.884 9.104 71.04 9.284C71.136 9.38 71.16 9.44 71.136 9.5C70.908 9.716 69.828 9.368 69.06 8.828L68.616 8.528L68.232 8.96C67.944 9.284 67.644 9.632 67.344 10.028C66.756 10.808 66.6 10.844 65.88 11.192C65.508 11.372 65.28 11.456 65.208 11.456C65.052 11.456 64.812 11.288 64.632 11.096ZM83.592 4.604V4.856L82.176 4.916C81.468 4.952 81.072 4.988 80.976 5.06C80.88 5.12 80.832 5.324 80.832 5.624L80.856 6.392C80.868 6.452 80.88 6.488 80.892 6.488H80.976C81.096 6.452 81.264 6.44 81.492 6.44C81.72 6.44 81.84 6.392 81.852 6.308C81.852 6.104 82.368 5.78 82.62 5.78C82.86 5.78 83.184 6.032 83.424 6.32C83.532 6.452 83.592 6.572 83.592 6.68C83.592 7.016 83.196 7.172 82.38 7.148C81.972 7.136 81.6 7.148 81.252 7.184L80.808 7.28L80.868 8.336C80.916 9.02 80.952 9.416 80.988 9.584C81.06 9.896 81.432 10.1 81.696 10.184C81.828 10.232 82.02 10.256 82.284 10.268C83.076 10.292 83.544 10.208 83.784 10.004C83.892 9.908 83.952 9.872 83.988 9.884C84.084 9.896 84.696 10.256 84.588 10.628C84.48 11 84 11.06 83.424 11.06C82.86 11.06 82.248 11.012 81.684 10.916C81.108 10.82 80.832 10.76 80.148 10.172C79.464 9.596 79.152 9.128 79.104 8.18L79.068 7.46L78.072 7.424C77.232 7.388 77.028 7.364 76.716 7.136C76.56 7.016 76.488 6.944 76.536 6.908C76.572 6.872 76.956 6.86 77.712 6.872C79.212 6.896 78.996 7.028 79.152 5.96C79.32 4.88 79.344 5.012 78.66 4.928C78.336 4.88 78.12 4.856 78 4.856C77.796 4.808 77.7 4.748 77.376 4.484C77.232 4.364 77.148 4.28 77.172 4.244C77.196 4.232 77.568 4.244 78.288 4.316C79.02 4.376 79.8 4.376 80.7 4.316C81.588 4.244 82.02 4.172 82.02 4.064C82.02 3.968 82.08 3.86 82.188 3.74C82.644 3.236 83.592 4.256 83.592 4.604Z"/>
</mask>
<path d="M6.324 5.972C6.036 6.536 6.324 5.972 5.664 7.208L5.532 7.556C5.796 7.472 6.108 7.436 6.492 7.388C7.224 7.316 7.284 7.328 7.74 7.592C8.208 7.856 8.364 7.988 8.724 8.516C9.072 9.032 9.024 9.44 8.58 9.824C7.848 10.472 6.792 10.856 5.376 10.868C4.752 10.88 4.356 10.82 4.188 10.712C3.852 10.508 3.912 10.46 4.224 10.292C4.536 10.124 4.56 10.148 4.788 10.292C4.908 10.352 5.028 10.4 5.172 10.424C5.436 10.496 6.864 10.436 7.428 9.368C7.704 8.756 7.056 7.664 5.664 7.868L4.896 8.048C4.788 8.048 4.248 8.096 4.788 7.148L5.232 6.008C5.244 5.96 5.256 5.9 5.172 5.888C4.116 5.804 3.96 5.78 3.708 5.732C3.42 5.672 3.18 5.552 2.964 5.408C2.532 5.096 2.1 5.18 2.508 4.844C2.904 4.508 3.084 4.628 3.588 4.88C3.864 5.024 4.092 5.204 5.256 5.252C5.556 5.264 5.652 5.24 5.652 4.88C5.652 4.688 5.868 3.56 5.976 3.44C6.216 3.212 7.08 2.816 7.248 2.816C7.332 2.804 7.368 2.852 7.404 2.936C7.44 3.008 7.428 3.14 7.368 3.356C7.14 4.076 6.624 5.36 6.66 5.396C6.756 5.42 7.812 5.24 8.436 5.252C8.568 5.276 8.952 4.688 9.168 4.7C9.372 4.7 9.924 5.504 9.972 5.516C10.32 6.08 9.348 5.96 9.048 6.008C8.904 6.044 8.616 5.972 8.208 5.972H6.324ZM19.344 6.152V6.56H19.752C19.968 6.56 20.172 6.584 20.4 6.644C20.628 6.716 20.724 6.764 20.724 6.824C20.724 6.872 20.4 6.956 19.752 7.052L19.38 7.112L19.272 7.916C19.212 8.468 19.152 8.792 19.128 8.852C19.116 8.924 19.332 9.104 19.836 9.332L20.58 9.692L20.124 9.716C19.824 9.728 19.608 9.716 19.488 9.668C19.368 9.632 19.272 9.608 19.212 9.668C19.164 9.704 19.068 9.848 18.924 10.1C18.648 10.58 18.252 10.784 17.412 10.7C16.632 10.616 16.14 10.4 15.948 10.016C15.732 9.632 15.756 9.32 16.068 9.056C16.392 8.804 16.5 8.78 17.208 8.672L17.664 8.6V7.652C17.664 6.596 17.88 5.048 17.928 4.964C17.976 4.868 18.072 4.916 18.228 4.964C18.36 5.012 18.552 5.096 18.708 5.204C18.864 5.3 19.032 5.408 19.14 5.504C19.284 5.66 19.368 5.876 19.344 6.152ZM17.544 9.308C17.544 8.924 16.44 9.632 16.704 10.1C16.752 10.184 16.848 10.184 16.968 10.124C17.208 10.004 17.544 9.5 17.544 9.308ZM28.8 4.172C28.812 4.076 29.184 3.74 29.388 3.704C29.496 3.692 29.736 3.68 30.108 3.68C32.796 3.572 34.26 3.536 34.692 3.824C35.268 4.196 34.2 4.988 33.192 5.384C33.096 5.396 32.616 5.612 32.484 5.444L33.084 4.328L29.316 4.172C28.98 4.1 28.812 4.244 28.8 4.172ZM33.132 8.864C33.612 8.864 33.912 8.84 34.032 8.768C34.284 8.612 34.524 8.768 34.164 9.14C33.792 9.512 33.444 9.68 33.12 9.68C32.796 9.728 29.952 9.8 29.04 9.56C28.14 9.308 27.672 8.696 28.188 8.264C28.452 8.048 28.596 8.156 28.884 8.348C29.892 9.032 31.548 8.864 33.132 8.864ZM46.512 6.38C46.644 6.596 46.716 6.824 46.716 7.088C46.716 7.352 46.716 7.508 46.692 7.604C46.668 7.7 46.62 7.784 46.548 7.856C46.404 8.036 45.816 8.696 45.12 9.032C44.772 9.2 44.496 9.296 44.256 9.296C44.028 9.296 43.788 9.212 43.536 9.044L43.152 8.78L43.62 8.672C44.256 8.492 44.712 8.564 44.988 7.58C45.144 7.028 44.808 6.5 44.676 6.092C44.64 5.984 44.592 5.876 44.52 5.876C44.46 5.876 44.256 5.876 43.932 5.912C43.608 5.948 43.212 6.056 42.732 6.2C42.264 6.344 41.94 6.428 41.76 6.428C41.388 6.428 40.908 6.092 40.86 5.984C40.812 5.876 41.16 5.54 41.376 5.66C41.484 5.72 41.688 5.708 41.988 5.588C42.588 5.348 43.704 5.084 44.532 5.192C45.372 5.3 46.236 5.936 46.512 6.38ZM53.868 2.792C53.964 2.636 54.036 2.564 54.132 2.564C54.264 2.564 55.188 3.224 55.344 3.452C55.416 3.572 55.452 3.992 55.452 4.7C55.452 6.14 55.368 6.128 56.58 5.468C57.996 4.688 58.308 4.508 58.308 4.424C58.308 4.16 58.608 3.716 58.824 3.728C59.28 3.728 59.88 4.28 59.88 4.712C59.88 4.868 59.664 4.988 59.232 5.096C58.392 5.288 55.716 6.62 55.584 6.812C55.416 7.088 54.708 7.508 54.984 8.732C55.092 9.176 55.62 9.668 56.46 9.692C57.588 9.716 57.9 9.692 58.104 9.632C58.308 9.548 58.44 9.524 58.512 9.524C58.656 9.524 59.172 9.776 59.22 9.896C59.232 10.016 58.932 10.28 58.608 10.28C58.248 10.304 55.992 10.148 55.416 10.136C53.292 10.1 53.256 8.684 53.256 8.336C53.256 7.988 53.448 7.556 53.736 7.148C53.88 6.956 54.024 6.776 54.18 6.62L54.624 6.188L54.372 5.912C54.024 5.492 53.832 4.796 53.772 3.824C53.748 3.284 53.772 2.948 53.868 2.792Z" fill="#D58A48" fill-opacity="0.6"/>
<path d="M64.632 11.096C64.548 11.012 64.5 10.904 64.5 10.844C64.5 10.772 64.644 10.64 64.944 10.472C65.52 10.124 66.432 9.176 66.972 8.384L67.452 7.664L67.08 7.352C66.828 7.124 66.696 6.968 66.66 6.86C66.636 6.74 66.456 6.596 66.18 6.428C65.892 6.248 65.76 6.104 65.784 5.996C65.808 5.972 65.844 5.948 65.904 5.948C66.024 5.948 66.528 6.212 66.528 6.308C66.528 6.428 67.656 6.968 67.8 6.932C67.944 6.884 68.604 5.492 68.916 4.544C69.072 4.064 69.168 3.788 69.228 3.692C69.348 3.524 69.624 3.584 69.9 3.836C70.152 4.088 70.152 4.1 70.116 4.616C70.068 5.168 69.396 7.16 69.024 7.856L68.772 8.324L69.348 8.612C69.72 8.792 69.996 8.9 70.164 8.924C70.524 8.96 70.884 9.104 71.04 9.284C71.136 9.38 71.16 9.44 71.136 9.5C70.908 9.716 69.828 9.368 69.06 8.828L68.616 8.528L68.232 8.96C67.944 9.284 67.644 9.632 67.344 10.028C66.756 10.808 66.6 10.844 65.88 11.192C65.508 11.372 65.28 11.456 65.208 11.456C65.052 11.456 64.812 11.288 64.632 11.096ZM83.592 4.604V4.856L82.176 4.916C81.468 4.952 81.072 4.988 80.976 5.06C80.88 5.12 80.832 5.324 80.832 5.624L80.856 6.392C80.868 6.452 80.88 6.488 80.892 6.488H80.976C81.096 6.452 81.264 6.44 81.492 6.44C81.72 6.44 81.84 6.392 81.852 6.308C81.852 6.104 82.368 5.78 82.62 5.78C82.86 5.78 83.184 6.032 83.424 6.32C83.532 6.452 83.592 6.572 83.592 6.68C83.592 7.016 83.196 7.172 82.38 7.148C81.972 7.136 81.6 7.148 81.252 7.184L80.808 7.28L80.868 8.336C80.916 9.02 80.952 9.416 80.988 9.584C81.06 9.896 81.432 10.1 81.696 10.184C81.828 10.232 82.02 10.256 82.284 10.268C83.076 10.292 83.544 10.208 83.784 10.004C83.892 9.908 83.952 9.872 83.988 9.884C84.084 9.896 84.696 10.256 84.588 10.628C84.48 11 84 11.06 83.424 11.06C82.86 11.06 82.248 11.012 81.684 10.916C81.108 10.82 80.832 10.76 80.148 10.172C79.464 9.596 79.152 9.128 79.104 8.18L79.068 7.46L78.072 7.424C77.232 7.388 77.028 7.364 76.716 7.136C76.56 7.016 76.488 6.944 76.536 6.908C76.572 6.872 76.956 6.86 77.712 6.872C79.212 6.896 78.996 7.028 79.152 5.96C79.32 4.88 79.344 5.012 78.66 4.928C78.336 4.88 78.12 4.856 78 4.856C77.796 4.808 77.7 4.748 77.376 4.484C77.232 4.364 77.148 4.28 77.172 4.244C77.196 4.232 77.568 4.244 78.288 4.316C79.02 4.376 79.8 4.376 80.7 4.316C81.588 4.244 82.02 4.172 82.02 4.064C82.02 3.968 82.08 3.86 82.188 3.74C82.644 3.236 83.592 4.256 83.592 4.604Z" fill="#5E9DD0" fill-opacity="0.6"/>
<path d="M6.324 5.972V5.472H6.0179L5.8787 5.74461L6.324 5.972ZM5.664 7.208L5.22294 6.97248L5.20786 7.00073L5.1965 7.03067L5.664 7.208ZM5.532 7.556L5.0645 7.37867L4.6975 8.34622L5.6836 8.03246L5.532 7.556ZM6.492 7.388L6.44304 6.89023L6.42998 6.89186L6.492 7.388ZM7.74 7.592L7.48947 8.02474L7.49434 8.02749L7.74 7.592ZM8.724 8.516L9.13854 8.23643L9.13711 8.23433L8.724 8.516ZM8.58 9.824L8.2529 9.44579L8.24858 9.44962L8.58 9.824ZM5.376 10.868L5.37176 10.368L5.36639 10.3681L5.376 10.868ZM4.188 10.712L4.45847 10.2913L4.44749 10.2846L4.188 10.712ZM4.224 10.292L4.46105 10.7322H4.46105L4.224 10.292ZM4.788 10.292L4.521 10.7147L4.54209 10.7281L4.56439 10.7392L4.788 10.292ZM5.172 10.424L5.30356 9.94162L5.27915 9.93496L5.2542 9.9308L5.172 10.424ZM7.428 9.368L7.87014 9.60149L7.8774 9.58773L7.88379 9.57355L7.428 9.368ZM5.664 7.868L5.5915 7.37328L5.57053 7.37636L5.5499 7.38119L5.664 7.868ZM4.896 8.048V8.548H4.95381L5.0101 8.53481L4.896 8.048ZM4.788 7.148L5.22246 7.39548L5.24061 7.36362L5.25391 7.32946L4.788 7.148ZM5.232 6.008L5.69791 6.18946L5.7094 6.15997L5.71707 6.12927L5.232 6.008ZM5.172 5.888L5.24271 5.39302L5.22723 5.39081L5.21165 5.38957L5.172 5.888ZM3.708 5.732L3.60601 6.22156L3.61444 6.22317L3.708 5.732ZM2.964 5.408L2.67125 5.81334L2.67885 5.81883L2.68665 5.82403L2.964 5.408ZM2.508 4.844L2.82589 5.23001L2.83149 5.22525L2.508 4.844ZM3.588 4.88L3.81932 4.43664L3.81161 4.43279L3.588 4.88ZM5.256 5.252L5.2354 5.75158L5.23602 5.7516L5.256 5.252ZM5.976 3.44L5.63163 3.0775L5.61744 3.09098L5.60435 3.10552L5.976 3.44ZM7.248 2.816V3.316H7.28353L7.31871 3.31097L7.248 2.816ZM7.404 2.936L6.94443 3.13296L6.95022 3.14646L6.95679 3.1596L7.404 2.936ZM7.368 3.356L7.84467 3.50695L7.84737 3.49843L7.84976 3.48982L7.368 3.356ZM6.66 5.396L6.30644 5.74955L6.40437 5.84748L6.53873 5.88107L6.66 5.396ZM8.436 5.252L8.52544 4.76006L8.48585 4.75287L8.44561 4.75209L8.436 5.252ZM9.168 4.7L9.14027 5.19923L9.15412 5.2H9.168V4.7ZM9.972 5.516L10.3975 5.25345L10.2907 5.08028L10.0933 5.03093L9.972 5.516ZM9.048 6.008L8.969 5.51428L8.94768 5.51769L8.92673 5.52293L9.048 6.008ZM6.324 5.972L5.8787 5.74461C5.5897 6.31057 5.89923 5.70598 5.22294 6.97248L5.664 7.208L6.10506 7.44352C6.74877 6.23802 6.4823 6.76143 6.7693 6.19939L6.324 5.972ZM5.664 7.208L5.1965 7.03067L5.0645 7.37867L5.532 7.556L5.9995 7.73333L6.1315 7.38533L5.664 7.208ZM5.532 7.556L5.6836 8.03246C5.89327 7.96575 6.15067 7.93456 6.55402 7.88414L6.492 7.388L6.42998 6.89186C6.06533 6.93744 5.69873 6.97825 5.3804 7.07954L5.532 7.556ZM6.492 7.388L6.54094 7.8856C6.92783 7.84754 7.05315 7.8433 7.13804 7.85732C7.19857 7.86731 7.25262 7.88758 7.48948 8.02471L7.74 7.592L7.99052 7.15929C7.77139 7.03242 7.56743 6.91468 7.30097 6.87068C7.05885 6.8307 6.78817 6.85646 6.44306 6.8904L6.492 7.388ZM7.74 7.592L7.49434 8.02749C7.72127 8.1555 7.83494 8.23123 7.93272 8.32181C8.03258 8.41431 8.13602 8.54119 8.31089 8.79767L8.724 8.516L9.13711 8.23433C8.95198 7.96281 8.79742 7.75969 8.61228 7.58819C8.42506 7.41477 8.22673 7.2925 7.98566 7.15651L7.74 7.592ZM8.724 8.516L8.30946 8.79557C8.44737 9.00005 8.45793 9.11185 8.4521 9.1639C8.44686 9.21072 8.41809 9.30298 8.25292 9.44582L8.58 9.824L8.90708 10.2022C9.18591 9.96102 9.40314 9.65728 9.4459 9.2751C9.48808 8.89816 9.34863 8.54795 9.13854 8.23643L8.724 8.516ZM8.58 9.824L8.24858 9.44962C7.62856 9.99849 6.69956 10.3568 5.37176 10.368L5.376 10.868L5.38024 11.368C6.88445 11.3552 8.06744 10.9455 8.91142 10.1984L8.58 9.824ZM5.376 10.868L5.36639 10.3681C5.06994 10.3738 4.84252 10.3619 4.67856 10.3396C4.49905 10.3151 4.44768 10.2845 4.45838 10.2914L4.188 10.712L3.91762 11.1326C4.09632 11.2475 4.32695 11.3009 4.54344 11.3304C4.77548 11.3621 5.05807 11.3742 5.38561 11.3679L5.376 10.868ZM4.188 10.712L4.44749 10.2846C4.36637 10.2354 4.34978 10.2189 4.35696 10.2258C4.36223 10.231 4.39436 10.2624 4.42182 10.3207C4.45364 10.3883 4.4745 10.4832 4.4528 10.589C4.4329 10.686 4.38605 10.7482 4.36233 10.7752C4.3393 10.8014 4.32238 10.8122 4.32832 10.808C4.34318 10.7974 4.37743 10.7773 4.46105 10.7322L4.224 10.292L3.98695 9.85176C3.91457 9.89074 3.82432 9.93956 3.75068 9.99166C3.70115 10.0267 3.5215 10.1526 3.4732 10.388C3.41416 10.6758 3.58742 10.8722 3.65904 10.942C3.73972 11.0206 3.84163 11.0866 3.92851 11.1394L4.188 10.712ZM4.224 10.292L4.46105 10.7322C4.49723 10.7128 4.52538 10.6981 4.54812 10.687C4.57106 10.6758 4.58446 10.6701 4.5913 10.6675C4.60543 10.6621 4.57337 10.6769 4.51711 10.6746C4.48931 10.6734 4.46496 10.6685 4.44606 10.6628C4.42871 10.6575 4.41946 10.6526 4.4214 10.6536C4.42392 10.6548 4.43197 10.6592 4.45036 10.6704C4.46933 10.682 4.48982 10.695 4.521 10.7147L4.788 10.292L5.055 9.86926C5.00919 9.84032 4.93949 9.79505 4.87373 9.7617C4.79738 9.72298 4.69121 9.68086 4.55789 9.67542C4.42813 9.67012 4.31732 9.70144 4.23208 9.73425C4.15053 9.76564 4.06662 9.80887 3.98695 9.85176L4.224 10.292ZM4.788 10.292L4.56439 10.7392C4.71007 10.8121 4.87942 10.8821 5.0898 10.9172L5.172 10.424L5.2542 9.9308C5.17659 9.91787 5.10593 9.89195 5.01161 9.84479L4.788 10.292ZM5.172 10.424L5.04044 10.9064C5.18846 10.9467 5.39446 10.9517 5.59037 10.9384C5.80349 10.924 6.06206 10.8839 6.33246 10.802C6.86761 10.6399 7.5039 10.295 7.87014 9.60149L7.428 9.368L6.98586 9.13451C6.7881 9.50901 6.42839 9.72809 6.04254 9.84497C5.85244 9.90256 5.66926 9.93078 5.52275 9.94071C5.35904 9.9518 5.28754 9.93725 5.30356 9.94162L5.172 10.424ZM7.428 9.368L7.88379 9.57355C8.12598 9.03652 7.93681 8.40045 7.53753 7.97138C7.11446 7.51674 6.43566 7.24957 5.5915 7.37328L5.664 7.868L5.7365 8.36272C6.28435 8.28243 6.62554 8.45926 6.80547 8.65261C7.00919 8.87155 7.00602 9.08748 6.97221 9.16245L7.428 9.368ZM5.664 7.868L5.5499 7.38119L4.7819 7.56119L4.896 8.048L5.0101 8.53481L5.7781 8.35481L5.664 7.868ZM4.896 8.048V7.548C4.85411 7.548 4.87049 7.54881 4.84941 7.54834C4.841 7.54815 4.84082 7.54763 4.84608 7.54857C4.84866 7.54904 4.93011 7.5629 4.99697 7.65082C5.07036 7.74731 5.04535 7.82413 5.05367 7.77876C5.06286 7.72865 5.10034 7.60986 5.22246 7.39548L4.788 7.148L4.35354 6.90052C4.20566 7.16014 4.10814 7.39085 4.07008 7.59836C4.03115 7.81062 4.04664 8.05319 4.20103 8.25618C4.34889 8.4506 4.55184 8.51171 4.66917 8.5328C4.78318 8.55329 4.90042 8.548 4.896 8.548V8.048ZM4.788 7.148L5.25391 7.32946L5.69791 6.18946L5.232 6.008L4.76609 5.82654L4.32209 6.96654L4.788 7.148ZM5.232 6.008L5.71707 6.12927C5.71735 6.12817 5.76585 5.97343 5.72112 5.80567C5.69264 5.69889 5.62952 5.59027 5.52301 5.50849C5.42433 5.43271 5.31976 5.40403 5.24271 5.39302L5.172 5.888L5.10129 6.38297C5.06624 6.37797 4.99167 6.36129 4.91399 6.30164C4.82848 6.23598 4.77736 6.14761 4.75488 6.06333C4.73527 5.98979 4.74056 5.93206 4.74303 5.91141C4.7456 5.88986 4.74964 5.87588 4.74693 5.88673L5.232 6.008ZM5.172 5.888L5.21165 5.38957C4.15506 5.30553 4.02378 5.28316 3.80156 5.24083L3.708 5.732L3.61444 6.22317C3.89622 6.27684 4.07694 6.30247 5.13235 6.38643L5.172 5.888ZM3.708 5.732L3.80998 5.24251C3.60139 5.19905 3.42055 5.11144 3.24135 4.99197L2.964 5.408L2.68665 5.82403C2.93945 5.99256 3.23861 6.14495 3.60602 6.22149L3.708 5.732ZM2.964 5.408L3.25675 5.00266C3.10824 4.89541 2.9643 4.82558 2.85249 4.77696C2.79955 4.75395 2.74546 4.73224 2.71331 4.71896C2.69524 4.71149 2.68221 4.70594 2.67202 4.70137C2.66168 4.69673 2.65813 4.6948 2.65876 4.69515C2.65896 4.69525 2.66927 4.70074 2.68454 4.71219C2.6995 4.72341 2.72744 4.74646 2.75616 4.784C2.78641 4.82352 2.81731 4.87901 2.83342 4.94958C2.84969 5.02086 2.84621 5.08719 2.83378 5.14152C2.82202 5.19291 2.80336 5.22927 2.79193 5.2486C2.78039 5.26812 2.77129 5.27855 2.77067 5.27926C2.76968 5.2804 2.7729 5.2766 2.78282 5.26731C2.79251 5.25824 2.80645 5.24594 2.82585 5.22996L2.508 4.844L2.19015 4.45803C2.12945 4.50802 2.06745 4.56376 2.01479 4.62455C1.96765 4.67898 1.89092 4.77884 1.85897 4.91848C1.81905 5.09293 1.86329 5.2627 1.96199 5.39169C2.04014 5.49381 2.13669 5.54969 2.18324 5.57485C2.23636 5.60357 2.29257 5.6271 2.33128 5.64311C2.37761 5.66226 2.41182 5.6758 2.45376 5.69404C2.5317 5.72792 2.60376 5.76459 2.67125 5.81334L2.964 5.408ZM2.508 4.844L2.83149 5.22525C2.90818 5.16018 2.94681 5.14139 2.95807 5.1369C2.96199 5.13534 2.96009 5.13651 2.95416 5.13726C2.94819 5.13803 2.94468 5.13754 2.94606 5.13771C2.95359 5.13864 2.98372 5.1444 3.06052 5.17828C3.13989 5.21329 3.22783 5.25893 3.36439 5.32721L3.588 4.88L3.81161 4.43279C3.69617 4.37507 3.57261 4.31121 3.46411 4.26334C3.35303 4.21434 3.21891 4.16386 3.06894 4.14529C2.71495 4.10146 2.4347 4.25046 2.18451 4.46275L2.508 4.844ZM3.588 4.88L3.35672 5.32329C3.46967 5.38222 3.65187 5.49549 3.94923 5.58207C4.24023 5.66679 4.63273 5.72672 5.2354 5.75157L5.256 5.252L5.2766 4.75242C4.71527 4.72928 4.41177 4.67521 4.22877 4.62193C4.05213 4.57051 3.98234 4.52178 3.81928 4.43671L3.588 4.88ZM5.256 5.252L5.23602 5.7516C5.31074 5.75459 5.40915 5.75747 5.50444 5.74595C5.60284 5.73405 5.74741 5.70173 5.88001 5.59501C6.0186 5.48345 6.08457 5.33934 6.11625 5.21741C6.14581 5.10363 6.152 4.98497 6.152 4.88H5.652H5.152C5.152 4.91461 5.15082 4.93848 5.14937 4.95427C5.14789 4.97042 5.14661 4.97278 5.14838 4.96597C5.15022 4.95886 5.15665 4.93687 5.17339 4.90804C5.19116 4.87742 5.21738 4.84466 5.253 4.81599C5.288 4.78782 5.32197 4.77172 5.34687 4.76295C5.35886 4.75872 5.3684 4.7563 5.37456 4.75496C5.38067 4.75363 5.38422 4.7532 5.38444 4.75318C5.38466 4.75315 5.38254 4.75341 5.37748 4.75368C5.37244 4.75394 5.36538 4.75417 5.35578 4.75424C5.33591 4.75437 5.31055 4.75378 5.27598 4.7524L5.256 5.252ZM5.652 4.88H6.152C6.152 4.88928 6.1518 4.87707 6.15771 4.8293C6.16279 4.78821 6.17061 4.73464 6.18093 4.67129C6.20153 4.54487 6.23047 4.38964 6.2628 4.23589C6.29536 4.08105 6.32986 3.93489 6.36103 3.82437C6.37683 3.76837 6.38957 3.72944 6.39841 3.7062C6.41645 3.65876 6.4042 3.71164 6.34765 3.77448L5.976 3.44L5.60435 3.10552C5.5208 3.19835 5.47817 3.31274 5.46373 3.3507C5.44009 3.41287 5.41823 3.48325 5.39859 3.55288C5.35889 3.69361 5.31914 3.86395 5.2842 4.03011C5.24903 4.19736 5.21722 4.36763 5.19395 4.51046C5.17342 4.63645 5.152 4.78417 5.152 4.88H5.652ZM5.976 3.44L6.32037 3.8025C6.3374 3.78632 6.3957 3.74223 6.50628 3.67705C6.60845 3.61682 6.73091 3.5527 6.85446 3.4937C6.97823 3.43459 7.09597 3.38403 7.18786 3.34953C7.23421 3.33214 7.2683 3.32097 7.29005 3.31486C7.32478 3.30512 7.30032 3.316 7.248 3.316V2.816V2.316C7.15368 2.316 7.06547 2.33926 7.01986 2.35206C6.96126 2.3685 6.89842 2.39005 6.83639 2.41334C6.71153 2.46022 6.56677 2.52291 6.42354 2.5913C6.28009 2.6598 6.13105 2.73743 5.99847 2.81557C5.8743 2.88877 5.7346 2.97968 5.63163 3.0775L5.976 3.44ZM7.248 2.816L7.31871 3.31097C7.28874 3.31526 7.23784 3.31774 7.17607 3.30156C7.11136 3.28461 7.05659 3.2529 7.01475 3.21629C6.97641 3.18274 6.95589 3.15124 6.94839 3.13884C6.94105 3.12671 6.93961 3.12172 6.94443 3.13296L7.404 2.936L7.86357 2.73904C7.84309 2.69125 7.78894 2.56494 7.67325 2.46371C7.52239 2.3317 7.33925 2.29789 7.17729 2.32102L7.248 2.816ZM7.404 2.936L6.95679 3.1596C6.93366 3.11336 6.92725 3.07581 6.92533 3.05921C6.92341 3.04271 6.92485 3.03753 6.92388 3.04868C6.92297 3.05917 6.92044 3.07849 6.9142 3.1089C6.90803 3.13895 6.89899 3.17628 6.88624 3.22218L7.368 3.356L7.84976 3.48982C7.88324 3.36929 7.91027 3.24859 7.92012 3.13531C7.92917 3.03122 7.93018 2.87032 7.85122 2.7124L7.404 2.936ZM7.368 3.356L6.89133 3.20505C6.78171 3.55121 6.60086 4.03864 6.4458 4.45973C6.36977 4.66619 6.29946 4.8581 6.25041 5.00112C6.22634 5.07132 6.20426 5.13875 6.189 5.19361C6.18198 5.21888 6.1722 5.25622 6.16585 5.29573C6.163 5.31343 6.15735 5.35206 6.15832 5.39936C6.15881 5.42296 6.16115 5.46555 6.17413 5.5166C6.18579 5.56247 6.21716 5.66026 6.30644 5.74955L6.66 5.396L7.01356 5.04245C7.10172 5.13061 7.13223 5.22667 7.1433 5.27021C7.15569 5.31893 7.15769 5.3586 7.15811 5.37869C7.15894 5.41898 7.15417 5.44826 7.15318 5.4544C7.15055 5.4708 7.14838 5.47615 7.15247 5.46146C7.15943 5.4364 7.17354 5.39199 7.19634 5.32551C7.24104 5.19515 7.30723 5.01431 7.3842 4.80527C7.53514 4.39536 7.72629 3.88079 7.84467 3.50695L7.368 3.356ZM6.66 5.396L6.53873 5.88107C6.60932 5.89872 6.67284 5.8982 6.6888 5.89821C6.71764 5.89821 6.74649 5.89676 6.77132 5.89512C6.82162 5.89179 6.88181 5.88581 6.94438 5.879C7.06673 5.86568 7.23829 5.84454 7.40683 5.82526C7.76431 5.78436 8.15254 5.74664 8.42639 5.75191L8.436 5.252L8.44561 4.75209C8.09546 4.74536 7.64369 4.79164 7.29317 4.83174C7.10771 4.85296 6.95827 4.87157 6.83612 4.88488C6.77644 4.89138 6.73351 4.89543 6.70524 4.8973C6.69079 4.89826 6.6865 4.89821 6.68902 4.89821C6.69039 4.89821 6.69785 4.89821 6.70929 4.89907C6.71784 4.89972 6.74536 4.90195 6.78127 4.91093L6.66 5.396ZM8.436 5.252L8.34656 5.74393C8.54705 5.78039 8.70152 5.69397 8.74867 5.66643C8.81467 5.62788 8.87024 5.58138 8.90809 5.54769C8.98294 5.48108 9.06904 5.39029 9.1278 5.33027C9.19852 5.25803 9.24926 5.2093 9.28743 5.1797C9.30575 5.1655 9.30718 5.16688 9.29393 5.17315C9.28361 5.17804 9.22709 5.20405 9.14027 5.19923L9.168 4.7L9.19573 4.20077C9.05491 4.19295 8.93914 4.23471 8.86596 4.26936C8.78985 4.3054 8.72481 4.35056 8.67469 4.38942C8.57599 4.46595 8.48198 4.56047 8.41321 4.63073C8.33247 4.7132 8.28431 4.76416 8.24328 4.80068C8.2232 4.81855 8.22542 4.81397 8.24432 4.80293C8.24435 4.80291 8.35795 4.72961 8.52544 4.76006L8.436 5.252ZM9.168 4.7V5.2C9.10105 5.2 9.05247 5.18414 9.03004 5.17548C9.00626 5.1663 8.99289 5.15778 8.99141 5.15685C8.98964 5.15572 9.00279 5.16436 9.03229 5.19182C9.09017 5.24569 9.16382 5.32734 9.24509 5.42443C9.32518 5.52012 9.3992 5.61436 9.46447 5.6959C9.4949 5.73391 9.527 5.77364 9.5545 5.80531C9.56754 5.82032 9.58681 5.84199 9.60862 5.86321C9.61911 5.87342 9.63812 5.89134 9.66302 5.91031C9.67396 5.91865 9.74427 5.97446 9.85073 6.00107L9.972 5.516L10.0933 5.03093C10.1967 5.05679 10.2631 5.11031 10.2691 5.1149C10.2891 5.13012 10.3022 5.14284 10.306 5.1465C10.3143 5.15463 10.3166 5.15779 10.3096 5.14968C10.2969 5.13508 10.2764 5.11002 10.2452 5.07097C10.1871 4.99839 10.1013 4.88938 10.0119 4.78257C9.92368 4.67716 9.81808 4.55706 9.71358 4.45981C9.6619 4.4117 9.59808 4.35743 9.52689 4.31229C9.46985 4.27613 9.33905 4.2 9.168 4.2V4.7ZM9.972 5.516L9.54648 5.77855C9.5678 5.81311 9.55368 5.80304 9.54813 5.75712C9.54102 5.69827 9.55296 5.6166 9.60339 5.54257C9.64648 5.47932 9.6939 5.45676 9.69824 5.45471C9.70353 5.45221 9.69289 5.45776 9.65673 5.46485C9.58203 5.47951 9.47984 5.48613 9.35102 5.49047C9.29463 5.49237 9.22366 5.49415 9.16603 5.4967C9.10891 5.49922 9.03665 5.50346 8.969 5.51428L9.048 6.008L9.127 6.50172C9.1614 6.49622 9.22854 6.49517 9.38473 6.4899C9.51166 6.48562 9.68697 6.47799 9.84927 6.44615C9.97915 6.42066 10.2614 6.35284 10.4299 6.10556C10.6445 5.79049 10.5221 5.4554 10.3975 5.25345L9.972 5.516ZM9.048 6.008L8.92673 5.52293C8.95836 5.51502 8.96832 5.51904 8.9291 5.51781C8.89399 5.51671 8.84738 5.51274 8.77466 5.50578C8.63735 5.49263 8.43976 5.472 8.208 5.472V5.972V6.472C8.38424 6.472 8.53465 6.48737 8.67935 6.50122C8.74762 6.50776 8.82551 6.51504 8.89765 6.51731C8.96568 6.51946 9.06564 6.51898 9.16927 6.49307L9.048 6.008ZM8.208 5.972V5.472H6.324V5.972V6.472H8.208V5.972ZM19.344 6.152L18.8459 6.10869L18.844 6.1303V6.152H19.344ZM19.344 6.56H18.844V7.06H19.344V6.56ZM20.4 6.644L20.5506 6.16721L20.539 6.16355L20.5272 6.16046L20.4 6.644ZM19.752 7.052L19.6787 6.55736L19.6724 6.55838L19.752 7.052ZM19.38 7.112L19.3004 6.61838L18.9339 6.67749L18.8845 7.04543L19.38 7.112ZM19.272 7.916L18.7763 7.84941L18.7749 7.86197L19.272 7.916ZM19.128 8.852L18.6638 8.66631L18.6437 8.71649L18.6348 8.7698L19.128 8.852ZM19.836 9.332L20.0539 8.88177L20.0421 8.87645L19.836 9.332ZM20.58 9.692L20.6063 10.1913L20.7978 9.24192L20.58 9.692ZM20.124 9.716L20.144 10.2156L20.1503 10.2153L20.124 9.716ZM19.488 9.668L19.6737 9.20376L19.653 9.19549L19.6317 9.18909L19.488 9.668ZM19.212 9.668L19.512 10.068L19.5404 10.0467L19.5656 10.0216L19.212 9.668ZM18.924 10.1L19.3575 10.3492L19.3581 10.3481L18.924 10.1ZM17.412 10.7L17.3585 11.1971L17.3622 11.1975L17.412 10.7ZM15.948 10.016L16.3952 9.79239L16.3898 9.78149L16.3838 9.77087L15.948 10.016ZM16.068 9.056L15.761 8.66132L15.7529 8.66765L15.745 8.67431L16.068 9.056ZM17.208 8.672L17.2834 9.16629L17.286 9.16588L17.208 8.672ZM17.664 8.6L17.742 9.09388L18.164 9.02725V8.6H17.664ZM17.928 4.964L18.3621 5.21207L18.369 5.20002L18.3752 5.18761L17.928 4.964ZM18.228 4.964L18.3989 4.4941L18.3871 4.48981L18.375 4.48611L18.228 4.964ZM18.708 5.204L18.4234 5.6151L18.4345 5.62277L18.446 5.62983L18.708 5.204ZM19.14 5.504L19.5074 5.16486L19.4906 5.14671L19.4722 5.13029L19.14 5.504ZM16.704 10.1L16.2685 10.3457L16.2699 10.3481L16.704 10.1ZM16.968 10.124L17.1916 10.5712H17.1916L16.968 10.124ZM19.344 6.152H18.844V6.56H19.344H19.844V6.152H19.344ZM19.344 6.56V7.06H19.752V6.56V6.06H19.344V6.56ZM19.752 6.56V7.06C19.9268 7.06 20.0879 7.0789 20.2728 7.12754L20.4 6.644L20.5272 6.16046C20.2561 6.0891 20.0092 6.06 19.752 6.06V6.56ZM20.4 6.644L20.2494 7.12079C20.3017 7.1373 20.3407 7.15065 20.3696 7.16161C20.3999 7.17309 20.4103 7.17863 20.409 7.17793C20.4077 7.17723 20.3996 7.17279 20.3875 7.16399C20.3756 7.15537 20.3552 7.13915 20.3326 7.11379C20.2826 7.05788 20.224 6.95813 20.224 6.824H20.724H21.224C21.224 6.48639 20.9482 6.3328 20.886 6.29907C20.7871 6.24534 20.6648 6.20327 20.5506 6.16721L20.4 6.644ZM20.724 6.824H20.224C20.224 6.68117 20.2847 6.57932 20.3246 6.52767C20.3641 6.47656 20.4041 6.44659 20.4223 6.43385C20.4432 6.4193 20.4595 6.41077 20.4665 6.40729C20.4706 6.40523 20.4737 6.40383 20.4755 6.40304C20.4764 6.40262 20.4771 6.40232 20.4776 6.40213C20.478 6.40194 20.4783 6.40185 20.4783 6.40184C20.4783 6.40184 20.4776 6.40212 20.4761 6.40268C20.4745 6.40323 20.4724 6.40398 20.4696 6.40494C20.4639 6.40686 20.4561 6.40934 20.4459 6.41232C20.4255 6.41835 20.3985 6.42559 20.364 6.43389C20.2229 6.46784 19.9966 6.5103 19.6787 6.5574L19.752 7.052L19.8253 7.5466C20.1554 7.4977 20.4151 7.45016 20.598 7.40611C20.6866 7.3848 20.7745 7.36025 20.8482 7.33091C20.882 7.31745 20.9386 7.29308 20.9953 7.25343C21.0236 7.23361 21.0713 7.19683 21.1158 7.13916C21.1608 7.08097 21.224 6.97283 21.224 6.824H20.724ZM19.752 7.052L19.6724 6.55838L19.3004 6.61838L19.38 7.112L19.4596 7.60562L19.8316 7.54562L19.752 7.052ZM19.38 7.112L18.8845 7.04543L18.7765 7.84943L19.272 7.916L19.7675 7.98257L19.8755 7.17857L19.38 7.112ZM19.272 7.916L18.7749 7.86197C18.7457 8.13114 18.7168 8.34133 18.6929 8.48859C18.681 8.56252 18.6707 8.61791 18.6628 8.65555C18.652 8.70721 18.6513 8.69755 18.6638 8.66631L19.128 8.852L19.5922 9.03769C19.6167 8.97645 19.6325 8.90379 19.6416 8.86058C19.6536 8.80334 19.6665 8.73198 19.6801 8.64841C19.7072 8.48067 19.7383 8.25286 19.7691 7.97003L19.272 7.916ZM19.128 8.852L18.6348 8.7698C18.6107 8.91455 18.6513 9.03162 18.6815 9.09605C18.7132 9.16371 18.7532 9.21624 18.7845 9.25242C18.8473 9.325 18.9241 9.38769 18.9979 9.44037C19.1494 9.54859 19.3612 9.66597 19.6299 9.78755L19.836 9.332L20.0421 8.87645C19.8068 8.77003 19.6586 8.68341 19.5791 8.62663C19.5374 8.59681 19.5309 8.58675 19.5408 8.5982C19.5457 8.60382 19.5669 8.6287 19.5871 8.67184C19.6058 8.71176 19.6423 8.80745 19.6212 8.9342L19.128 8.852ZM19.836 9.332L19.6182 9.78208L20.3622 10.1421L20.58 9.692L20.7978 9.24192L20.0538 8.88192L19.836 9.332ZM20.58 9.692L20.5537 9.19269L20.0977 9.21669L20.124 9.716L20.1503 10.2153L20.6063 10.1913L20.58 9.692ZM20.124 9.716L20.104 9.2164C19.9633 9.22203 19.8545 9.22143 19.7736 9.21574C19.6854 9.20952 19.6621 9.19913 19.6737 9.20376L19.488 9.668L19.3023 10.1322C19.4339 10.1849 19.5786 10.2045 19.7034 10.2133C19.8355 10.2226 19.9847 10.222 20.144 10.2156L20.124 9.716ZM19.488 9.668L19.6317 9.18909C19.5797 9.1735 19.4721 9.14029 19.3597 9.13304C19.2307 9.12471 19.0266 9.14632 18.8584 9.31444L19.212 9.668L19.5656 10.0216C19.518 10.0692 19.4605 10.1011 19.4034 10.1177C19.3512 10.1329 19.3111 10.132 19.2953 10.131C19.2798 10.13 19.2749 10.1279 19.287 10.1308C19.2988 10.1336 19.3156 10.1383 19.3443 10.1469L19.488 9.668ZM19.212 9.668L18.912 9.268C18.8482 9.31588 18.8015 9.37179 18.7766 9.4029C18.7463 9.44077 18.7165 9.48293 18.688 9.52565C18.6308 9.61142 18.5643 9.72165 18.4899 9.85193L18.924 10.1L19.3581 10.3481C19.4277 10.2264 19.4812 10.1386 19.52 10.0803C19.5395 10.0511 19.5517 10.0347 19.5574 10.0276C19.5685 10.0137 19.5518 10.0381 19.512 10.068L19.212 9.668ZM18.924 10.1L18.4905 9.85076C18.3922 10.0218 18.2987 10.103 18.1853 10.1507C18.0559 10.2053 17.842 10.2405 17.4618 10.2025L17.412 10.7L17.3622 11.1975C17.822 11.2435 18.2261 11.2187 18.5737 11.0723C18.9373 10.919 19.1798 10.6582 19.3575 10.3492L18.924 10.1ZM17.412 10.7L17.4655 10.2029C16.7012 10.1206 16.4612 9.92442 16.3952 9.79239L15.948 10.016L15.5008 10.2396C15.8188 10.8756 16.5628 11.1114 17.3585 11.1971L17.412 10.7ZM15.948 10.016L16.3838 9.77087C16.3047 9.63023 16.3049 9.56387 16.3068 9.54724C16.3072 9.54384 16.3075 9.50829 16.391 9.43769L16.068 9.056L15.745 8.67431C15.5165 8.86771 15.3488 9.12016 15.3132 9.43476C15.2791 9.73613 15.3753 10.0178 15.5122 10.2611L15.948 10.016ZM16.068 9.056L16.375 9.45068C16.5182 9.33926 16.5731 9.31018 16.6494 9.28525C16.7573 9.24998 16.914 9.22263 17.2834 9.16628L17.208 8.672L17.1326 8.17772C16.794 8.22937 16.5427 8.26802 16.3386 8.33475C16.1029 8.41182 15.9418 8.52074 15.761 8.66132L16.068 9.056ZM17.208 8.672L17.286 9.16588L17.742 9.09388L17.664 8.6L17.586 8.10612L17.13 8.17812L17.208 8.672ZM17.664 8.6H18.164V7.652H17.664H17.164V8.6H17.664ZM17.664 7.652H18.164C18.164 7.15133 18.2157 6.5216 18.2748 5.9998C18.3042 5.74049 18.3348 5.51313 18.3605 5.34785C18.3735 5.26463 18.3846 5.201 18.3931 5.15849C18.3975 5.1367 18.4002 5.12558 18.401 5.12236C18.4075 5.09746 18.3972 5.15069 18.3621 5.21207L17.928 4.964L17.4939 4.71593C17.4528 4.78781 17.4352 4.86298 17.4332 4.87049C17.4256 4.8997 17.4187 4.93148 17.4126 4.96212C17.4001 5.02447 17.3865 5.10381 17.3725 5.19403C17.3442 5.37562 17.3118 5.61701 17.2812 5.8872C17.2203 6.4244 17.164 7.09667 17.164 7.652H17.664ZM17.928 4.964L18.3752 5.18761C18.3478 5.24241 18.2878 5.32306 18.1797 5.37209C18.0824 5.41626 18.0007 5.4092 17.9773 5.40637C17.9552 5.40369 17.9476 5.39971 17.975 5.40814C17.9865 5.41168 17.9993 5.41583 18.0182 5.42193C18.0357 5.42762 18.0575 5.43467 18.081 5.44189L18.228 4.964L18.375 4.48611C18.3595 4.48133 18.3442 4.47638 18.3264 4.47063C18.31 4.4653 18.2893 4.45857 18.2691 4.45236C18.2331 4.44128 18.1693 4.42231 18.0977 4.41363C18.0248 4.4048 17.9004 4.40074 17.7666 4.46141C17.6222 4.52694 17.5322 4.63759 17.4808 4.74039L17.928 4.964ZM18.228 4.964L18.0571 5.4339C18.1684 5.47435 18.3164 5.54101 18.4234 5.6151L18.708 5.204L18.9926 4.7929C18.7876 4.65099 18.5516 4.54965 18.3989 4.4941L18.228 4.964ZM18.708 5.204L18.446 5.62983C18.6067 5.72877 18.7376 5.81528 18.8078 5.8777L19.14 5.504L19.4722 5.13029C19.3264 5.00071 19.1213 4.87123 18.97 4.77817L18.708 5.204ZM19.14 5.504L18.7726 5.84314C18.8174 5.8917 18.8582 5.96733 18.8459 6.10869L19.344 6.152L19.8421 6.19531C19.8778 5.78467 19.7506 5.4283 19.5074 5.16486L19.14 5.504ZM17.544 9.308H18.044C18.044 9.12885 17.968 8.90215 17.7398 8.77546C17.5575 8.67424 17.3734 8.69466 17.2785 8.71347C17.0734 8.75409 16.8725 8.87066 16.7196 8.98864C16.5607 9.1112 16.391 9.28356 16.2814 9.49205C16.1712 9.70148 16.0876 10.025 16.2685 10.3457L16.704 10.1L17.1395 9.85434C17.1884 9.94098 17.1438 10.0005 17.1664 9.95758C17.1895 9.91369 17.2463 9.8453 17.3304 9.78036C17.4205 9.71084 17.4791 9.69316 17.4728 9.6944C17.4668 9.69559 17.4449 9.69952 17.4113 9.69733C17.3779 9.69515 17.3196 9.68593 17.2543 9.64971C17.1841 9.61069 17.1241 9.5501 17.0859 9.47489C17.0501 9.40444 17.044 9.3424 17.044 9.308H17.544ZM16.704 10.1L16.2699 10.3481C16.3794 10.5397 16.5683 10.6511 16.7757 10.6649C16.9478 10.6764 17.0955 10.6193 17.1916 10.5712L16.968 10.124L16.7444 9.67679C16.7205 9.68872 16.7602 9.66164 16.8423 9.66711C16.8896 9.67027 16.9504 9.68459 17.0112 9.72211C17.0724 9.75991 17.1134 9.80873 17.1381 9.85193L16.704 10.1ZM16.968 10.124L17.1916 10.5712C17.3238 10.5051 17.4354 10.4062 17.5178 10.3214C17.6055 10.2311 17.6873 10.1286 17.7574 10.0272C17.8271 9.92623 17.8919 9.81667 17.9415 9.70972C17.9829 9.62034 18.044 9.47005 18.044 9.308H17.544H17.044C17.044 9.26554 17.0521 9.24309 17.0499 9.25042C17.0489 9.25402 17.0445 9.26697 17.034 9.28953C17.0131 9.33483 16.9789 9.39477 16.9346 9.45878C16.8907 9.52244 16.8435 9.58039 16.8007 9.62436C16.7526 9.67385 16.7322 9.6829 16.7444 9.67679L16.968 10.124ZM28.8 4.172L28.3039 4.10998L28.2948 4.18231L28.3068 4.2542L28.8 4.172ZM29.388 3.704L29.3328 3.20706L29.3169 3.20883L29.3011 3.21161L29.388 3.704ZM30.108 3.68V4.18H30.118L30.1281 4.1796L30.108 3.68ZM34.692 3.824L34.4146 4.24007L34.4207 4.24402L34.692 3.824ZM33.192 5.384L33.254 5.88014L33.3164 5.87235L33.3748 5.84938L33.192 5.384ZM32.484 5.444L32.0436 5.20723L31.8886 5.49553L32.0908 5.75291L32.484 5.444ZM33.084 4.328L33.5244 4.56477L33.9025 3.86146L33.1047 3.82843L33.084 4.328ZM29.316 4.172L29.2112 4.6609L29.2528 4.66981L29.2953 4.67157L29.316 4.172ZM34.032 8.768L34.2893 9.19679L34.2952 9.19313L34.032 8.768ZM34.164 9.14L34.5176 9.4936L34.5233 9.48771L34.164 9.14ZM33.12 9.68V9.18H33.0832L33.0467 9.1854L33.12 9.68ZM29.04 9.56L28.9052 10.0415L28.9128 10.0435L29.04 9.56ZM28.188 8.264L27.8714 7.877L27.867 7.88062L28.188 8.264ZM28.884 8.348L29.1648 7.93425L29.1614 7.93197L28.884 8.348ZM28.8 4.172L29.2961 4.23402C29.2887 4.29328 29.2716 4.33559 29.2634 4.354C29.2541 4.37498 29.2457 4.38871 29.2424 4.39393C29.236 4.40391 29.2351 4.40353 29.245 4.39214C29.264 4.37038 29.2983 4.33632 29.343 4.29882C29.3874 4.26166 29.4318 4.22978 29.4681 4.20811C29.4859 4.19745 29.4975 4.19184 29.5027 4.18961C29.5094 4.18672 29.4991 4.19212 29.4749 4.19639L29.388 3.704L29.3011 3.21161C29.1611 3.23632 29.0377 3.30038 28.9554 3.34951C28.8642 3.40397 28.7766 3.46883 28.701 3.53218C28.6257 3.59518 28.552 3.66537 28.4915 3.73473C28.4617 3.7689 28.4281 3.81081 28.3983 3.85768C28.3777 3.8902 28.3197 3.9836 28.3039 4.10998L28.8 4.172ZM29.388 3.704L29.4432 4.20094C29.5229 4.19208 29.7406 4.18 30.108 4.18V3.68V3.18C29.7314 3.18 29.4691 3.19192 29.3328 3.20706L29.388 3.704ZM30.108 3.68L30.1281 4.1796C31.4758 4.12545 32.4984 4.09023 33.2371 4.10342C33.6065 4.11002 33.8895 4.12859 34.0985 4.15945C34.2023 4.17478 34.2797 4.192 34.3357 4.20903C34.3632 4.2174 34.383 4.22498 34.3966 4.231C34.4103 4.23705 34.4154 4.24053 34.4146 4.24002L34.692 3.824L34.9694 3.40797C34.7656 3.27216 34.5013 3.20809 34.2445 3.17018C33.9735 3.13016 33.6415 3.11048 33.2549 3.10358C32.4816 3.08977 31.4282 3.12655 30.0879 3.1804L30.108 3.68ZM34.692 3.824L34.4207 4.24402C34.4294 4.24963 34.3959 4.23015 34.3721 4.17236C34.3471 4.11186 34.3538 4.06078 34.3588 4.04195C34.3614 4.03201 34.3391 4.0973 34.1983 4.22628C33.9364 4.46614 33.4766 4.73498 33.0092 4.91862L33.192 5.384L33.3748 5.84938C33.9154 5.63702 34.4936 5.31186 34.8737 4.96372C35.0539 4.7987 35.2536 4.57149 35.326 4.29604C35.3658 4.14447 35.3693 3.96739 35.2964 3.79082C35.2247 3.61697 35.0986 3.49137 34.9633 3.40398L34.692 3.824ZM33.192 5.384L33.13 4.88786C33.0951 4.89222 33.0655 4.89916 33.0487 4.90336C33.0296 4.90811 33.0115 4.9133 32.9966 4.91774C32.9681 4.92624 32.9343 4.93716 32.9075 4.9457C32.8472 4.96494 32.7911 4.98223 32.7384 4.99447C32.6807 5.00788 32.6579 5.00762 32.6613 5.00779C32.6651 5.00797 32.6919 5.00938 32.7305 5.0245C32.7726 5.04094 32.8293 5.07424 32.8772 5.13509L32.484 5.444L32.0908 5.75291C32.255 5.96182 32.4873 6.00046 32.6123 6.00659C32.7458 6.01313 32.8739 5.98962 32.9646 5.96853C33.0604 5.94627 33.1506 5.91781 33.2113 5.89843C33.2451 5.88765 33.2656 5.88104 33.2822 5.87609C33.3078 5.86847 33.2886 5.87582 33.254 5.88014L33.192 5.384ZM32.484 5.444L32.9244 5.68077L33.5244 4.56477L33.084 4.328L32.6436 4.09123L32.0436 5.20723L32.484 5.444ZM33.084 4.328L33.1047 3.82843L29.3367 3.67243L29.316 4.172L29.2953 4.67157L33.0633 4.82757L33.084 4.328ZM29.316 4.172L29.4208 3.6831C29.1616 3.62756 28.9604 3.65601 28.8335 3.68272C28.8086 3.68796 28.7777 3.69517 28.7707 3.69673C28.7532 3.70065 28.7666 3.69692 28.7891 3.69469C28.8021 3.6934 28.8301 3.69127 28.8667 3.69446C28.9032 3.69764 28.9627 3.7073 29.0295 3.73958C29.1013 3.77431 29.1683 3.82904 29.2184 3.90314C29.2659 3.97347 29.2852 4.04195 29.2932 4.0898L28.8 4.172L28.3068 4.2542C28.3287 4.38568 28.4104 4.551 28.5942 4.63986C28.7301 4.70556 28.8555 4.69301 28.8878 4.68981C28.933 4.68533 28.974 4.67598 28.9892 4.67258C29.0149 4.66683 29.0216 4.66504 29.0395 4.66127C29.0836 4.65199 29.1344 4.64444 29.2112 4.6609L29.316 4.172ZM33.132 8.864V9.364C33.3769 9.364 33.5916 9.35803 33.7668 9.34052C33.9181 9.32538 34.1244 9.29563 34.2892 9.19675L34.032 8.768L33.7748 8.33925C33.807 8.31988 33.8215 8.32011 33.7935 8.32671C33.7697 8.33232 33.7294 8.33927 33.6673 8.34548C33.5424 8.35797 33.3671 8.364 33.132 8.364V8.864ZM34.032 8.768L34.2952 9.19313C34.3009 9.18956 34.2784 9.20623 34.2239 9.20779C34.175 9.2092 34.0249 9.19468 33.9188 9.04398C33.811 8.89096 33.8546 8.74866 33.8625 8.72744C33.8714 8.70372 33.8688 8.72609 33.8047 8.79229L34.164 9.14L34.5233 9.48771C34.6392 9.36791 34.7416 9.23128 34.7989 9.07856C34.8552 8.92834 34.8906 8.68704 34.7362 8.46802C34.5836 8.25132 34.3488 8.2038 34.1952 8.20821C34.0361 8.21277 33.8891 8.26844 33.7688 8.34287L34.032 8.768ZM34.164 9.14L33.8104 8.78645C33.4888 9.10807 33.2606 9.18 33.12 9.18V9.68V10.18C33.6274 10.18 34.0952 9.91593 34.5176 9.49355L34.164 9.14ZM33.12 9.68L33.0467 9.1854C33.0469 9.18537 33.0457 9.18555 33.0428 9.1859C33.04 9.18624 33.0362 9.18668 33.0311 9.18719C33.021 9.18824 33.0077 9.18945 32.991 9.19079C32.9575 9.19346 32.9142 9.19632 32.8616 9.19923C32.7563 9.20503 32.6195 9.21068 32.4591 9.21547C32.1386 9.22505 31.7304 9.23097 31.304 9.22801C30.8769 9.22505 30.4363 9.21321 30.0494 9.18782C29.6529 9.1618 29.3454 9.12334 29.1672 9.07646L29.04 9.56L28.9128 10.0435C29.1906 10.1167 29.5806 10.1592 29.9839 10.1857C30.397 10.2128 30.8586 10.2249 31.297 10.228C32.1543 10.2339 32.9862 10.2053 33.1933 10.1746L33.12 9.68ZM29.04 9.56L29.1748 9.07852C28.7853 8.96946 28.5676 8.80118 28.4942 8.69503C28.4627 8.64957 28.4767 8.64496 28.4733 8.67279C28.4696 8.7041 28.4545 8.693 28.509 8.64738L28.188 8.264L27.867 7.88062C27.6635 8.051 27.5134 8.2784 27.4804 8.55383C27.4478 8.82579 27.5383 9.07093 27.6718 9.26397C27.9284 9.63482 28.3947 9.89854 28.9052 10.0415L29.04 9.56ZM28.188 8.264L28.5046 8.65098C28.54 8.62203 28.5424 8.6282 28.5169 8.63618C28.503 8.64054 28.4849 8.64412 28.4643 8.64478C28.4438 8.64543 28.427 8.64303 28.4156 8.64043C28.3972 8.63622 28.4003 8.63293 28.4398 8.65589C28.4581 8.66651 28.4802 8.68032 28.5089 8.69905C28.5382 8.71823 28.5684 8.7385 28.6067 8.76402L28.884 8.348L29.1614 7.93197C29.0968 7.88893 29.0171 7.83474 28.9419 7.79111C28.8652 7.74657 28.7618 7.69378 28.6384 7.66557C28.3342 7.59603 28.078 7.70795 27.8714 7.87702L28.188 8.264ZM28.884 8.348L28.6033 8.76174C29.2219 9.18154 30.0001 9.31669 30.7626 9.36163C31.5183 9.40618 32.3786 9.364 33.132 9.364V8.864V8.364C32.3014 8.364 31.5417 8.40582 30.8214 8.36337C30.1079 8.32131 29.5541 8.19846 29.1648 7.93426L28.884 8.348ZM46.512 6.38L46.9387 6.11927L46.9366 6.11603L46.512 6.38ZM46.692 7.604L47.1771 7.72527V7.72527L46.692 7.604ZM46.548 7.856L46.1944 7.50245L46.1749 7.52203L46.1576 7.54365L46.548 7.856ZM45.12 9.032L44.9026 8.58172V8.58172L45.12 9.032ZM43.536 9.044L43.2527 9.45606L43.2586 9.46002L43.536 9.044ZM43.152 8.78L43.0396 8.2928L41.9324 8.5483L42.8687 9.19202L43.152 8.78ZM43.62 8.672L43.7324 9.1592L43.7444 9.15644L43.7562 9.1531L43.62 8.672ZM44.988 7.58L44.5068 7.44402L44.5066 7.44497L44.988 7.58ZM44.676 6.092L45.1517 5.93808L45.1503 5.93389L44.676 6.092ZM42.732 6.2L42.5883 5.72108L42.585 5.72211L42.732 6.2ZM40.86 5.984L41.3169 5.78093V5.78093L40.86 5.984ZM41.988 5.588L41.8023 5.12376V5.12376L41.988 5.588ZM44.532 5.192L44.4673 5.6878L44.4682 5.68792L44.532 5.192ZM46.512 6.38L46.0854 6.64073C46.174 6.78575 46.216 6.92445 46.216 7.088H46.716H47.216C47.216 6.72355 47.114 6.40625 46.9386 6.11927L46.512 6.38ZM46.716 7.088H46.216C46.216 7.22344 46.2159 7.31812 46.2133 7.39115C46.2106 7.46857 46.2056 7.48803 46.2069 7.48273L46.692 7.604L47.1771 7.72527C47.2024 7.62397 47.2094 7.51743 47.2127 7.42685C47.2161 7.33188 47.216 7.21656 47.216 7.088H46.716ZM46.692 7.604L46.2069 7.48273C46.2056 7.48818 46.2043 7.49258 46.1944 7.50245L46.548 7.856L46.9016 8.20955C47.0357 8.07542 47.1304 7.91182 47.1771 7.72527L46.692 7.604ZM46.548 7.856L46.1576 7.54365C46.0281 7.70551 45.4968 8.2949 44.9026 8.58172L45.12 9.032L45.3374 9.48228C46.1352 9.0971 46.7799 8.36649 46.9384 8.16835L46.548 7.856ZM45.12 9.032L44.9026 8.58172C44.5638 8.74532 44.3752 8.796 44.256 8.796V9.296V9.796C44.6168 9.796 44.9802 9.65469 45.3374 9.48228L45.12 9.032ZM44.256 9.296V8.796C44.1543 8.796 44.0097 8.75886 43.8134 8.62797L43.536 9.044L43.2586 9.46002C43.5663 9.66514 43.9017 9.796 44.256 9.796V9.296ZM43.536 9.044L43.8193 8.63198L43.4353 8.36798L43.152 8.78L42.8687 9.19202L43.2527 9.45602L43.536 9.044ZM43.152 8.78L43.2644 9.2672L43.7324 9.1592L43.62 8.672L43.5076 8.1848L43.0396 8.2928L43.152 8.78ZM43.62 8.672L43.7562 9.1531C43.9095 9.10971 44.0127 9.09161 44.1839 9.04904C44.3328 9.01202 44.5099 8.9607 44.683 8.8639C45.0672 8.64906 45.3102 8.28267 45.4694 7.71503L44.988 7.58L44.5066 7.44497C44.3898 7.86132 44.2668 7.95094 44.195 7.9911C44.1401 8.0218 44.0667 8.04773 43.9426 8.07858C43.8408 8.10389 43.6485 8.14429 43.4838 8.1909L43.62 8.672ZM44.988 7.58L45.4692 7.71598C45.5855 7.30429 45.5107 6.92372 45.416 6.62899C45.3686 6.48159 45.3119 6.34307 45.2646 6.2284C45.2141 6.10599 45.1773 6.01722 45.1517 5.93809L44.676 6.092L44.2003 6.24591C44.2407 6.37077 44.2954 6.50101 44.3401 6.6096C44.3881 6.72593 44.4304 6.83041 44.464 6.935C44.5312 7.14428 44.5465 7.30371 44.5068 7.44402L44.988 7.58ZM44.676 6.092L45.1503 5.93389C45.1302 5.87355 45.094 5.77133 45.0346 5.67709C44.9899 5.606 44.8297 5.376 44.52 5.376V5.876V6.376C44.4036 6.376 44.315 6.32989 44.2627 6.28924C44.2158 6.25275 44.1933 6.21777 44.1884 6.20991C44.18 6.19667 44.1858 6.20245 44.2017 6.25011L44.676 6.092ZM44.52 5.876V5.376C44.4488 5.376 44.2251 5.37636 43.8768 5.41506L43.932 5.912L43.9872 6.40894C44.2869 6.37564 44.4712 6.376 44.52 6.376V5.876ZM43.932 5.912L43.8768 5.41506C43.5013 5.45678 43.0639 5.57841 42.5883 5.72109L42.732 6.2L42.8757 6.67891C43.3601 6.53359 43.7147 6.43922 43.9872 6.40894L43.932 5.912ZM42.732 6.2L42.585 5.72211C42.354 5.79319 42.1677 5.84657 42.021 5.88189C41.8657 5.91926 41.7877 5.928 41.76 5.928V6.428V6.928C41.9123 6.928 42.0863 6.89474 42.255 6.85411C42.4323 6.81143 42.642 6.75081 42.879 6.67789L42.732 6.2ZM41.76 6.428V5.928C41.7383 5.928 41.6946 5.92224 41.6295 5.9002C41.5666 5.87893 41.499 5.84766 41.4345 5.81122C41.3698 5.77463 41.3172 5.73788 41.2835 5.71061C41.2664 5.69676 41.2598 5.68981 41.2606 5.69071C41.2612 5.69129 41.2669 5.69727 41.2751 5.70838C41.2821 5.7177 41.2999 5.74265 41.3169 5.78093L40.86 5.984L40.4031 6.18707C40.4442 6.27949 40.5042 6.34618 40.5337 6.37746C40.5715 6.41741 40.6131 6.45443 40.6536 6.48727C40.7351 6.55337 40.8347 6.62087 40.9425 6.68178C41.1431 6.79521 41.4464 6.928 41.76 6.928V6.428ZM40.86 5.984L41.3169 5.78093C41.3761 5.91407 41.3525 6.02746 41.3414 6.06764C41.3287 6.11347 41.3117 6.13956 41.3087 6.14423C41.3018 6.15487 41.3056 6.14678 41.3225 6.13384C41.3396 6.12078 41.3428 6.12363 41.3242 6.12848C41.3037 6.13387 41.2246 6.14785 41.1332 6.09708L41.376 5.66L41.6188 5.22292C41.4194 5.11215 41.2158 5.12313 41.0708 5.16114C40.9277 5.19862 40.8064 5.26972 40.7155 5.33916C40.6244 5.40872 40.5367 5.49738 40.4713 5.59764C40.439 5.64713 40.4011 5.71624 40.3777 5.80066C40.3559 5.87942 40.3319 6.02693 40.4031 6.18707L40.86 5.984ZM41.376 5.66L41.1332 6.09708C41.3117 6.19624 41.5061 6.20484 41.6612 6.18887C41.8235 6.17217 41.9961 6.12326 42.1737 6.05224L41.988 5.588L41.8023 5.12376C41.6799 5.17274 41.6005 5.18983 41.5588 5.19413C41.5388 5.19618 41.5352 5.19449 41.544 5.19573C41.5529 5.19696 41.5815 5.20217 41.6188 5.22292L41.376 5.66ZM41.988 5.588L42.1737 6.05224C42.7317 5.82906 43.7566 5.5951 44.4673 5.6878L44.532 5.192L44.5967 4.6962C43.6514 4.5729 42.4444 4.86694 41.8023 5.12376L41.988 5.588ZM44.532 5.192L44.4682 5.68792C44.7941 5.72981 45.15 5.87977 45.4636 6.08088C45.7834 6.28603 46.0026 6.50762 46.0874 6.64397L46.512 6.38L46.9366 6.11603C46.7454 5.80838 46.3946 5.48997 46.0034 5.23912C45.606 4.98423 45.1099 4.76219 44.5958 4.69608L44.532 5.192ZM53.868 2.792L53.4422 2.52995V2.52995L53.868 2.792ZM55.344 3.452L55.7727 3.19475L55.7651 3.18196L55.7567 3.16966L55.344 3.452ZM56.58 5.468L56.8191 5.90712L56.8212 5.90595L56.58 5.468ZM58.824 3.728L58.7963 4.22723L58.8101 4.228H58.824V3.728ZM59.232 5.096L59.3434 5.58353L59.3533 5.58107L59.232 5.096ZM55.584 6.812L55.172 6.52874L55.1641 6.54017L55.1569 6.55203L55.584 6.812ZM54.984 8.732L54.4962 8.842L54.4982 8.85018L54.984 8.732ZM56.46 9.692L56.4457 10.1918L56.4494 10.1919L56.46 9.692ZM58.104 9.632L58.2451 10.1117L58.2702 10.1043L58.2944 10.0943L58.104 9.632ZM59.22 9.896L59.7175 9.84625L59.7105 9.77592L59.6842 9.7103L59.22 9.896ZM58.608 10.28V9.78H58.5914L58.5747 9.78111L58.608 10.28ZM55.416 10.136L55.4264 9.6361L55.4245 9.63607L55.416 10.136ZM53.736 7.148L53.336 6.848L53.3317 6.85377L53.3275 6.85966L53.736 7.148ZM54.18 6.62L53.8313 6.2616L53.8265 6.26645L54.18 6.62ZM54.624 6.188L54.9727 6.54636L55.3199 6.20858L54.9932 5.85086L54.624 6.188ZM54.372 5.912L53.987 6.23101L53.9947 6.24026L54.0028 6.24913L54.372 5.912ZM53.772 3.824L53.2724 3.8462L53.273 3.8548L53.772 3.824ZM53.868 2.792L54.2938 3.05405C54.3128 3.02325 54.326 3.0041 54.3347 2.99264C54.3436 2.98086 54.3431 2.98348 54.333 2.99247C54.322 3.00226 54.2973 3.02181 54.2583 3.03828C54.2172 3.05564 54.1734 3.064 54.132 3.064V2.564V2.064C53.9372 2.064 53.781 2.14474 53.667 2.24653C53.5687 2.33433 53.4958 2.4428 53.4422 2.52995L53.868 2.792ZM54.132 2.564V3.064C54.0545 3.064 54.0016 3.04379 54.0014 3.04371C53.9906 3.03997 53.9884 3.03835 53.9977 3.04285C54.0157 3.05156 54.0481 3.06918 54.0954 3.09792C54.1882 3.15434 54.3093 3.23585 54.4356 3.32736C54.5615 3.41861 54.6852 3.51451 54.7837 3.59819C54.8975 3.6948 54.935 3.73971 54.9313 3.73434L55.344 3.452L55.7567 3.16966C55.675 3.05029 55.5385 2.9272 55.431 2.83593C55.3083 2.73174 55.1635 2.61989 55.0224 2.51764C54.8817 2.41565 54.7373 2.31791 54.6149 2.24346C54.5545 2.20676 54.4918 2.17103 54.4334 2.14276C54.4045 2.12877 54.3688 2.11275 54.3299 2.09922C54.3016 2.08937 54.226 2.064 54.132 2.064V2.564ZM55.344 3.452L54.9153 3.70925C54.8874 3.66281 54.89 3.64168 54.901 3.69638C54.9095 3.73856 54.9187 3.80424 54.9269 3.89851C54.9431 4.08627 54.952 4.35198 54.952 4.7H55.452H55.952C55.952 4.34002 55.9429 4.04173 55.9231 3.81249C55.9133 3.69826 55.9 3.59219 55.8815 3.49974C55.8655 3.41982 55.8366 3.30119 55.7727 3.19475L55.344 3.452ZM55.452 4.7H54.952C54.952 5.0414 54.9465 5.3389 54.9586 5.54921C54.9648 5.65578 54.9769 5.77487 55.0082 5.88573C55.0387 5.99399 55.1054 6.15855 55.2682 6.27647C55.4416 6.40198 55.6297 6.40816 55.76 6.38987C55.8829 6.37262 55.9993 6.32814 56.0936 6.28669C56.2815 6.20412 56.5316 6.06371 56.8191 5.90711L56.58 5.468L56.3409 5.02889C56.0225 5.20229 55.8285 5.31088 55.6913 5.37119C55.623 5.40118 55.6066 5.4016 55.621 5.39958C55.6427 5.39653 55.7467 5.38827 55.8548 5.46653C55.9033 5.50171 55.9333 5.54118 55.9501 5.56964C55.9582 5.58346 55.9633 5.59472 55.9662 5.60194C55.9692 5.60915 55.9704 5.61348 55.9705 5.61394C55.9705 5.61404 55.9681 5.60494 55.965 5.58243C55.9621 5.56042 55.9593 5.5308 55.957 5.49141C55.947 5.3196 55.952 5.0786 55.952 4.7H55.452ZM56.58 5.468L56.8212 5.90595C57.5258 5.51784 57.9674 5.27263 58.2323 5.11375C58.3615 5.03619 58.4693 4.96712 58.5484 4.90414C58.5872 4.8733 58.6397 4.82796 58.6861 4.76848C58.7301 4.71209 58.808 4.59277 58.808 4.424H58.308H57.808C57.808 4.27623 57.8762 4.18091 57.8976 4.15348C57.9214 4.12298 57.9384 4.11157 57.9258 4.12161C57.9022 4.14038 57.8435 4.18081 57.7178 4.25625C57.4726 4.40337 57.0502 4.63816 56.3388 5.03005L56.58 5.468ZM58.308 4.424H58.808C58.808 4.43688 58.8064 4.4395 58.8085 4.43021C58.8105 4.42163 58.8147 4.40741 58.8223 4.38826C58.8381 4.34894 58.8625 4.3041 58.8916 4.26352C58.922 4.22108 58.9458 4.19944 58.9531 4.19395C58.956 4.19174 58.9468 4.19938 58.9249 4.2081C58.9029 4.21689 58.8579 4.23065 58.7963 4.22723L58.824 3.728L58.8517 3.22877C58.6271 3.21629 58.451 3.32015 58.3514 3.39518C58.2417 3.47781 58.15 3.58142 58.0784 3.68148C57.9476 3.8642 57.808 4.1436 57.808 4.424H58.308ZM58.824 3.728V4.228C58.8754 4.228 59.0232 4.27636 59.183 4.42459C59.2544 4.49087 59.3092 4.56054 59.3435 4.62141C59.3796 4.68545 59.38 4.71595 59.38 4.712H59.88H60.38C60.38 4.29172 60.1117 3.92205 59.863 3.69141C59.6088 3.45564 59.2286 3.228 58.824 3.228V3.728ZM59.88 4.712H59.38C59.38 4.62532 59.413 4.55674 59.4441 4.51654C59.4696 4.48359 59.487 4.47792 59.4661 4.49011C59.4472 4.50111 59.4103 4.51905 59.3476 4.54141C59.2861 4.56334 59.208 4.58662 59.1107 4.61093L59.232 5.096L59.3533 5.58107C59.5819 5.52392 59.7994 5.45334 59.9699 5.35389C60.1297 5.26072 60.38 5.06055 60.38 4.712H59.88ZM59.232 5.096L59.1206 4.60857C58.6358 4.71938 57.7051 5.12777 56.9254 5.50359C56.5246 5.69676 56.1434 5.89128 55.8512 6.05142C55.7059 6.13107 55.5772 6.20516 55.4774 6.26815C55.428 6.29931 55.3794 6.33171 55.3369 6.36361C55.3111 6.38301 55.2315 6.44219 55.172 6.52874L55.584 6.812L55.996 7.09526C55.953 7.15781 55.9097 7.18408 55.938 7.16279C55.9497 7.15398 55.9729 7.13789 56.011 7.11388C56.0861 7.06653 56.1947 7.00355 56.3319 6.92833C56.6049 6.77871 56.9699 6.59224 57.3596 6.40441C58.1609 6.01822 58.9882 5.66462 59.3434 5.58343L59.232 5.096ZM55.584 6.812L55.1569 6.55203C55.1586 6.54927 55.1519 6.56017 55.1207 6.59617C55.0829 6.63983 55.0629 6.66046 55.0053 6.72588C54.9109 6.83312 54.7883 6.98067 54.6811 7.17254C54.4557 7.57575 54.3319 8.11321 54.4962 8.84198L54.984 8.732L55.4718 8.62202C55.3601 8.12679 55.4523 7.84225 55.5539 7.66046C55.6102 7.55983 55.6789 7.47413 55.7558 7.38674C55.8098 7.32541 55.9388 7.19076 56.0111 7.07197L55.584 6.812ZM54.984 8.732L54.4982 8.85018C54.6696 9.55504 55.4268 10.1627 56.4457 10.1918L56.46 9.692L56.4743 9.1922C55.8132 9.17332 55.5144 8.79696 55.4698 8.61382L54.984 8.732ZM56.46 9.692L56.4494 10.1919C57.551 10.2153 57.9507 10.1983 58.2451 10.1117L58.104 9.632L57.9629 9.15232C57.8493 9.18574 57.625 9.21667 56.4706 9.19211L56.46 9.692ZM58.104 9.632L58.2944 10.0943C58.3774 10.0602 58.4372 10.0417 58.4762 10.0322C58.5174 10.0221 58.5272 10.024 58.512 10.024V9.524V9.024C58.3479 9.024 58.147 9.07358 57.9136 9.16966L58.104 9.632ZM58.512 9.524V10.024C58.4685 10.024 58.4454 10.0163 58.4584 10.0196C58.465 10.0213 58.4802 10.0257 58.5041 10.0346C58.5518 10.0521 58.613 10.0789 58.6749 10.1105C58.7378 10.1425 58.7891 10.1732 58.821 10.1957C58.8374 10.2073 58.8398 10.2105 58.834 10.2048C58.8307 10.2017 58.8209 10.192 58.8085 10.1757C58.7971 10.1608 58.7747 10.1291 58.7558 10.0817L59.22 9.896L59.6842 9.7103C59.6387 9.59651 59.5645 9.52024 59.5294 9.48629C59.4856 9.44388 59.4388 9.40773 59.3977 9.37877C59.3149 9.32028 59.2192 9.26547 59.1291 9.21955C59.038 9.1731 58.9402 9.12941 58.8491 9.09595C58.7805 9.07074 58.6462 9.024 58.512 9.024V9.524ZM59.22 9.896L58.7225 9.94575C58.7132 9.85267 58.7365 9.78487 58.748 9.75687C58.7608 9.72574 58.7736 9.70852 58.7763 9.7049C58.7817 9.6978 58.775 9.70792 58.7504 9.72541C58.7277 9.74155 58.7 9.75651 58.6717 9.76677C58.6434 9.77702 58.6217 9.78 58.608 9.78V10.28V10.78C58.8992 10.78 59.1544 10.6651 59.3296 10.5406C59.419 10.4771 59.5053 10.3987 59.5737 10.3083C59.6239 10.242 59.7401 10.0719 59.7175 9.84625L59.22 9.896ZM58.608 10.28L58.5747 9.78111C58.5181 9.78489 58.3408 9.78163 58.0595 9.76976C57.7918 9.75847 57.4609 9.741 57.1205 9.72226C56.4488 9.68527 55.7258 9.64234 55.4264 9.63611L55.416 10.136L55.4056 10.6359C55.6822 10.6417 56.3752 10.6827 57.0655 10.7207C57.4061 10.7395 57.7427 10.7573 58.0173 10.7689C58.2782 10.7799 58.5179 10.7871 58.6413 10.7789L58.608 10.28ZM55.416 10.136L55.4245 9.63607C54.4841 9.62013 54.1147 9.30877 53.9524 9.07104C53.768 8.80094 53.756 8.49178 53.756 8.336H53.256H52.756C52.756 8.52822 52.762 9.10106 53.1266 9.63496C53.5133 10.2012 54.2239 10.6159 55.4075 10.6359L55.416 10.136ZM53.256 8.336H53.756C53.756 8.14313 53.8768 7.81563 54.1445 7.43634L53.736 7.148L53.3275 6.85966C53.0193 7.29637 52.756 7.83287 52.756 8.336H53.256ZM53.736 7.148L54.136 7.448C54.2757 7.26178 54.4029 7.10424 54.5336 6.97355L54.18 6.62L53.8265 6.26645C53.6451 6.44776 53.4843 6.65022 53.336 6.848L53.736 7.148ZM54.18 6.62L54.5287 6.97836L54.9727 6.54636L54.624 6.188L54.2753 5.82964L53.8313 6.26164L54.18 6.62ZM54.624 6.188L54.9932 5.85086L54.7412 5.57486L54.372 5.912L54.0028 6.24913L54.2548 6.52513L54.624 6.188ZM54.372 5.912L54.757 5.59299C54.5143 5.30004 54.3295 4.73973 54.2711 3.79319L53.772 3.824L53.273 3.8548C53.3345 4.85227 53.5337 5.68396 53.987 6.23101L54.372 5.912ZM53.772 3.824L54.2715 3.8018C54.2599 3.54001 54.2609 3.34637 54.2731 3.20769C54.2866 3.05393 54.3094 3.02869 54.2938 3.05405L53.868 2.792L53.4422 2.52995C53.3306 2.71131 53.2934 2.93207 53.2769 3.12031C53.2591 3.32363 53.2601 3.56799 53.2725 3.8462L53.772 3.824ZM64.632 11.096L64.9968 10.754L64.9913 10.7481L64.9855 10.7424L64.632 11.096ZM64.944 10.472L65.1883 10.9083L65.1955 10.9042L65.2026 10.9L64.944 10.472ZM66.972 8.384L67.3851 8.66568L67.388 8.66135L66.972 8.384ZM67.452 7.664L67.868 7.94135L68.1165 7.56871L67.7733 7.2809L67.452 7.664ZM67.08 7.352L66.7445 7.72277L66.7515 7.72906L66.7587 7.7351L67.08 7.352ZM66.66 6.86L66.1697 6.95806L66.1758 6.98858L66.1857 7.01811L66.66 6.86ZM66.18 6.428L65.915 6.85203L65.92 6.8551L66.18 6.428ZM65.784 5.996L65.4305 5.64245L65.3275 5.7454L65.2959 5.88753L65.784 5.996ZM67.8 6.932L67.9213 7.41707L67.9399 7.41241L67.9581 7.40634L67.8 6.932ZM68.916 4.544L69.3909 4.70031L69.3915 4.69854L68.916 4.544ZM69.228 3.692L68.8211 3.40138L68.8122 3.41393L68.804 3.427L69.228 3.692ZM69.9 3.836L70.2536 3.48245L70.2455 3.47442L70.2371 3.46676L69.9 3.836ZM70.116 4.616L70.6142 4.65932L70.6148 4.6508L70.116 4.616ZM69.024 7.856L69.4642 8.09305L69.465 8.09169L69.024 7.856ZM68.772 8.324L68.3318 8.08695L68.0874 8.54073L68.5484 8.77121L68.772 8.324ZM69.348 8.612L69.1244 9.05925L69.1302 9.06208L69.348 8.612ZM70.164 8.924L70.0933 9.41897L70.1037 9.42047L70.1143 9.42152L70.164 8.924ZM71.04 9.284L70.6622 9.61147L70.6738 9.62494L70.6864 9.63755L71.04 9.284ZM71.136 9.5L71.4799 9.86298L71.5595 9.78754L71.6002 9.68569L71.136 9.5ZM69.06 8.828L69.3476 8.41891L69.3399 8.41371L69.06 8.828ZM68.616 8.528L68.8959 8.11371L68.5332 7.86859L68.2423 8.19582L68.616 8.528ZM68.232 8.96L67.8583 8.62782V8.62782L68.232 8.96ZM67.344 10.028L66.9454 9.72607L66.9447 9.72702L67.344 10.028ZM65.88 11.192L65.6624 10.7418L65.6622 10.7419L65.88 11.192ZM64.632 11.096L64.9855 10.7424C64.9856 10.7425 64.9855 10.7424 64.9853 10.7422C64.9852 10.7421 64.985 10.7418 64.9847 10.7415C64.9842 10.7409 64.9836 10.7402 64.983 10.7393C64.9817 10.7374 64.9812 10.7364 64.9817 10.7374C64.982 10.7379 64.985 10.744 64.9887 10.7565C64.9906 10.763 64.9932 10.7731 64.9954 10.7864C64.9976 10.7994 65 10.819 65 10.844H64.5H64C64 10.9837 64.048 11.1061 64.0873 11.1846C64.1323 11.2746 64.1961 11.3672 64.2785 11.4496L64.632 11.096ZM64.5 10.844H65C65 10.9175 64.982 10.9738 64.9681 11.007C64.9541 11.0405 64.9393 11.0625 64.9322 11.0723C64.919 11.0905 64.9149 11.0908 64.9349 11.0736C64.9735 11.0405 65.0532 10.9839 65.1883 10.9083L64.944 10.472L64.6997 10.0357C64.5348 10.1281 64.3925 10.2215 64.2841 10.3144C64.2306 10.3602 64.1717 10.4175 64.1222 10.4859C64.0804 10.5437 64 10.6704 64 10.844H64.5ZM64.944 10.472L65.2026 10.9C65.5456 10.6927 65.953 10.3324 66.3307 9.94233C66.7141 9.54642 67.0962 9.08947 67.3851 8.66567L66.972 8.384L66.5589 8.10233C66.3078 8.47053 65.9639 8.88358 65.6123 9.24667C65.255 9.61562 64.9184 9.90332 64.6854 10.044L64.944 10.472ZM66.972 8.384L67.388 8.66135L67.868 7.94135L67.452 7.664L67.036 7.38665L66.556 8.10665L66.972 8.384ZM67.452 7.664L67.7733 7.2809L67.4013 6.9689L67.08 7.352L66.7587 7.7351L67.1307 8.0471L67.452 7.664ZM67.08 7.352L67.4155 6.98123C67.2973 6.87429 67.2189 6.79457 67.1696 6.73677C67.114 6.67152 67.1218 6.66416 67.1343 6.70188L66.66 6.86L66.1857 7.01811C66.2342 7.16384 66.326 7.28848 66.4084 7.38523C66.4971 7.48943 66.6107 7.60171 66.7445 7.72277L67.08 7.352ZM66.66 6.86L67.1503 6.76194C67.1035 6.52817 66.938 6.36798 66.8433 6.28529C66.7288 6.18537 66.5864 6.09003 66.44 6.0009L66.18 6.428L65.92 6.8551C66.0496 6.93397 66.1352 6.99463 66.1857 7.03871C66.2105 7.06029 66.2161 7.0688 66.2126 7.06404C66.2103 7.0609 66.183 7.02455 66.1697 6.95806L66.66 6.86ZM66.18 6.428L66.445 6.004C66.3833 5.96543 66.3351 5.93201 66.2987 5.90386C66.2614 5.87511 66.2418 5.85607 66.2336 5.84714C66.2238 5.83649 66.2389 5.84963 66.2548 5.88679C66.2726 5.92827 66.2938 6.00692 66.2721 6.10447L65.784 5.996L65.2959 5.88753C65.2284 6.19124 65.4026 6.42052 65.4964 6.52286C65.6073 6.64384 65.7565 6.75292 65.915 6.852L66.18 6.428ZM65.784 5.996L66.1376 6.34955C66.1195 6.36765 66.0872 6.39521 66.04 6.41698C65.9913 6.43945 65.9436 6.448 65.904 6.448V5.948V5.448C65.6841 5.448 65.527 5.54591 65.4305 5.64245L65.784 5.996ZM65.904 5.948V6.448C65.8693 6.448 65.845 6.44364 65.8373 6.44217C65.8277 6.44033 65.823 6.43887 65.8246 6.43934C65.8282 6.44039 65.8407 6.44448 65.8627 6.45348C65.9062 6.47127 65.9628 6.49844 66.019 6.52952C66.0771 6.5617 66.1193 6.5895 66.1402 6.60576C66.1521 6.615 66.1429 6.6096 66.1259 6.58974C66.1172 6.57951 66.0974 6.55511 66.078 6.5175C66.0598 6.48221 66.028 6.4086 66.028 6.308H66.528H67.028C67.028 6.10425 66.9115 5.96973 66.8863 5.9402C66.8413 5.88753 66.7918 5.84575 66.7546 5.81674C66.6772 5.7565 66.5859 5.7003 66.503 5.65448C66.4182 5.60756 66.3263 5.56273 66.2415 5.52802C66.1994 5.51076 66.1529 5.49348 66.1059 5.47972C66.069 5.4689 65.9924 5.448 65.904 5.448V5.948ZM66.528 6.308H66.028C66.028 6.49129 66.1238 6.61397 66.1479 6.64448C66.186 6.69292 66.2269 6.72982 66.2549 6.75338C66.3131 6.80233 66.3812 6.84782 66.4431 6.88618C66.571 6.96543 66.7331 7.05139 66.8918 7.12838C67.0513 7.20573 67.2202 7.28025 67.3643 7.3345C67.4353 7.36122 67.5097 7.38663 67.5787 7.40448C67.6128 7.41332 67.6551 7.42281 67.7004 7.42844C67.7344 7.43265 67.8213 7.44208 67.9213 7.41707L67.8 6.932L67.6787 6.44693C67.7607 6.42642 67.8219 6.43585 67.8236 6.43605C67.8366 6.43766 67.8398 6.43913 67.8293 6.43641C67.809 6.43115 67.7717 6.41934 67.7167 6.39863C67.6088 6.358 67.4687 6.29677 67.3282 6.22862C67.1869 6.16011 67.058 6.09082 66.9699 6.0362C66.9486 6.02297 66.9315 6.01176 66.9185 6.00271C66.9121 5.99824 66.9072 5.99467 66.9036 5.992C66.9 5.98927 66.8985 5.98798 66.8986 5.9881C66.8987 5.9882 66.8995 5.98884 66.9008 5.99002C66.9021 5.99118 66.9041 5.9931 66.9068 5.99574C66.9116 6.00046 66.9215 6.0106 66.9336 6.02588C66.9447 6.04009 66.9648 6.06762 66.9836 6.10737C67.0016 6.14577 67.028 6.21573 67.028 6.308H66.528ZM67.8 6.932L67.9581 7.40634C68.0858 7.36377 68.1665 7.28159 68.1897 7.2579C68.2263 7.22064 68.257 7.18135 68.2806 7.14898C68.3287 7.08302 68.3779 7.00301 68.4252 6.92024C68.5215 6.75206 68.6336 6.53072 68.7475 6.28812C68.9754 5.80315 69.2269 5.19879 69.3909 4.70031L68.916 4.544L68.4411 4.38769C68.2931 4.83721 68.0586 5.40285 67.8425 5.86288C67.7344 6.09278 67.635 6.28769 67.5573 6.42364C67.5176 6.49292 67.4892 6.53695 67.4724 6.56C67.4636 6.57214 67.465 6.5686 67.476 6.55747C67.4817 6.55165 67.4955 6.53809 67.5169 6.52219C67.5359 6.50805 67.5786 6.47875 67.6419 6.45766L67.8 6.932ZM68.916 4.544L69.3915 4.69854C69.4694 4.45879 69.5302 4.27664 69.5782 4.14407C69.6319 3.99564 69.6546 3.95282 69.652 3.957L69.228 3.692L68.804 3.427C68.7414 3.52718 68.6861 3.67036 68.6378 3.80393C68.5838 3.95336 68.5186 4.14921 68.4405 4.38946L68.916 4.544ZM69.228 3.692L69.6349 3.98262C69.5998 4.03174 69.5464 4.0698 69.488 4.08726C69.436 4.10279 69.4023 4.09573 69.4003 4.09531C69.398 4.09481 69.4134 4.09805 69.4454 4.11655C69.4765 4.13449 69.5166 4.16302 69.5629 4.20524L69.9 3.836L70.2371 3.46676C70.0602 3.30524 69.8451 3.16813 69.6107 3.11769C69.3624 3.06427 69.0314 3.10702 68.8211 3.40138L69.228 3.692ZM69.9 3.836L69.5464 4.18955C69.6146 4.25768 69.6386 4.2835 69.6512 4.29951C69.6546 4.30395 69.6412 4.28648 69.6336 4.25856C69.629 4.24148 69.6338 4.24484 69.6329 4.30463C69.632 4.3653 69.6266 4.44692 69.6172 4.5812L70.116 4.616L70.6148 4.6508C70.6234 4.52708 70.6315 4.4137 70.6328 4.31912C70.6342 4.22365 70.63 4.11152 70.5984 3.99544C70.5301 3.74492 70.3569 3.58576 70.2536 3.48245L69.9 3.836ZM70.116 4.616L69.6179 4.57269C69.6102 4.66078 69.5708 4.84968 69.4953 5.12489C69.4228 5.38875 69.3257 5.70187 69.2177 6.02226C68.9981 6.67353 68.748 7.31161 68.583 7.62031L69.024 7.856L69.465 8.09169C69.672 7.70439 69.9439 6.99847 70.1653 6.34174C70.2778 6.00813 70.3809 5.67625 70.4596 5.38961C70.5352 5.11432 70.5978 4.84722 70.6141 4.65931L70.116 4.616ZM69.024 7.856L68.5838 7.61895L68.3318 8.08695L68.772 8.324L69.2122 8.56105L69.4642 8.09305L69.024 7.856ZM68.772 8.324L68.5484 8.77121L69.1244 9.05921L69.348 8.612L69.5716 8.16479L68.9956 7.87679L68.772 8.324ZM69.348 8.612L69.1302 9.06208C69.4958 9.23898 69.8377 9.38246 70.0933 9.41897L70.164 8.924L70.2347 8.42903C70.1543 8.41754 69.9442 8.34502 69.5658 8.16192L69.348 8.612ZM70.164 8.924L70.1143 9.42152C70.2478 9.43488 70.3809 9.46862 70.4897 9.51299C70.5435 9.53493 70.5863 9.55742 70.6178 9.57759C70.6504 9.59853 70.6622 9.61154 70.6622 9.61147L71.04 9.284L71.4178 8.95653C71.2679 8.78351 71.0587 8.66507 70.8673 8.58701C70.6671 8.50538 70.4402 8.44912 70.2138 8.42648L70.164 8.924ZM71.04 9.284L70.6864 9.63755C70.721 9.67209 70.6974 9.65764 70.6745 9.60486C70.6604 9.57259 70.6462 9.5252 70.6448 9.46648C70.6433 9.40684 70.6556 9.3547 70.6718 9.31431L71.136 9.5L71.6002 9.68569C71.6643 9.52557 71.6571 9.35686 71.5915 9.20614C71.5386 9.08436 71.455 8.99191 71.3936 8.93045L71.04 9.284ZM71.136 9.5L70.7921 9.13702C70.858 9.07465 70.9187 9.06424 70.919 9.06418C70.923 9.06341 70.9059 9.06678 70.8601 9.06341C70.7688 9.05669 70.63 9.02853 70.4543 8.97173C70.1051 8.85888 69.6886 8.65875 69.3476 8.41899L69.06 8.828L68.7724 9.23701C69.1994 9.53725 69.7069 9.78112 70.1467 9.92327C70.3655 9.99397 70.5875 10.0461 70.7868 10.0607C70.8863 10.068 70.997 10.0674 71.1067 10.0464C71.2127 10.0261 71.357 9.97935 71.4799 9.86298L71.136 9.5ZM69.06 8.828L69.3399 8.41371L68.8959 8.11371L68.616 8.528L68.3361 8.94229L68.7801 9.24229L69.06 8.828ZM68.616 8.528L68.2423 8.19582L67.8583 8.62782L68.232 8.96L68.6057 9.29218L68.9897 8.86018L68.616 8.528ZM68.232 8.96L67.8583 8.62782C67.5669 8.95559 67.257 9.3148 66.9455 9.72607L67.344 10.028L67.7425 10.3299C68.031 9.9492 68.3211 9.61241 68.6057 9.29218L68.232 8.96ZM67.344 10.028L66.9447 9.72702C66.657 10.1088 66.5062 10.2648 66.3639 10.3702C66.2098 10.4844 66.0498 10.5546 65.6624 10.7418L65.88 11.192L66.0976 11.6422C66.4302 11.4814 66.7082 11.3596 66.9591 11.1738C67.2218 10.9792 67.443 10.7272 67.7433 10.329L67.344 10.028ZM65.88 11.192L65.6622 10.7419C65.4834 10.8284 65.3466 10.8882 65.2512 10.9251C65.2031 10.9437 65.1713 10.9543 65.1534 10.9594C65.1232 10.968 65.152 10.956 65.208 10.956V11.456V11.956C65.3 11.956 65.3843 11.9335 65.4287 11.9207C65.4854 11.9045 65.5474 11.8828 65.6118 11.8579C65.7414 11.8078 65.9046 11.7356 66.0978 11.6421L65.88 11.192ZM65.208 11.456V10.956C65.2536 10.956 65.2744 10.967 65.2619 10.962C65.2527 10.9583 65.2319 10.9484 65.2006 10.9282C65.1376 10.8874 65.0633 10.825 64.9968 10.754L64.632 11.096L64.2672 11.438C64.3807 11.559 64.5164 11.6766 64.6574 11.7678C64.7794 11.8467 64.9804 11.956 65.208 11.956V11.456ZM83.592 4.856L83.6132 5.35555L84.092 5.33526V4.856H83.592ZM82.176 4.916L82.1548 4.41643L82.1506 4.41664L82.176 4.916ZM80.976 5.06L81.241 5.484L81.259 5.47274L81.276 5.46L80.976 5.06ZM80.832 5.624H80.332V5.63181L80.3322 5.63962L80.832 5.624ZM80.856 6.392L80.3562 6.40762L80.3575 6.44923L80.3657 6.49006L80.856 6.392ZM80.976 6.488V6.988H81.0494L81.1197 6.96691L80.976 6.488ZM81.852 6.308L82.347 6.37871L82.352 6.34353V6.308H81.852ZM83.424 6.32L83.811 6.00337L83.8081 5.99991L83.424 6.32ZM82.38 7.148L82.3653 7.64778V7.64778L82.38 7.148ZM81.252 7.184L81.2005 6.68665L81.1732 6.68948L81.1463 6.69529L81.252 7.184ZM80.808 7.28L80.7023 6.79129L80.2846 6.88162L80.3088 7.30836L80.808 7.28ZM80.868 8.336L80.3688 8.36437L80.3692 8.371L80.868 8.336ZM80.988 9.584L80.499 9.68878L80.5008 9.69643L80.988 9.584ZM81.696 10.184L81.8669 9.7141L81.8573 9.71062L81.8476 9.70754L81.696 10.184ZM82.284 10.268L82.2613 10.7675L82.2689 10.7678L82.284 10.268ZM83.784 10.004L84.1079 10.3851L84.1162 10.3777L83.784 10.004ZM83.988 9.884L83.8299 10.3583L83.8769 10.374L83.926 10.3801L83.988 9.884ZM81.684 10.916L81.7679 10.4231L81.7662 10.4228L81.684 10.916ZM80.148 10.172L80.474 9.79282L80.4701 9.78954L80.148 10.172ZM79.104 8.18L78.6046 8.20497L78.6046 8.20528L79.104 8.18ZM79.068 7.46L79.5674 7.43503L79.5445 6.97689L79.0861 6.96033L79.068 7.46ZM78.072 7.424L78.0506 7.92355L78.0539 7.92367L78.072 7.424ZM76.716 7.136L76.411 7.53243L76.421 7.53969L76.716 7.136ZM76.536 6.908L76.836 7.308L76.8644 7.28668L76.8895 7.26155L76.536 6.908ZM77.712 6.872L77.72 6.37206L77.7199 6.37206L77.712 6.872ZM79.152 5.96L78.6579 5.88314L78.6572 5.88773L79.152 5.96ZM78.66 4.928L78.5867 5.42275L78.5991 5.42427L78.66 4.928ZM78 4.856L77.8855 5.34271L77.942 5.356H78V4.856ZM77.376 4.484L77.0559 4.86813L77.0602 4.87162L77.376 4.484ZM77.172 4.244L76.9484 3.79679L76.8296 3.85617L76.756 3.96665L77.172 4.244ZM78.288 4.316L78.2382 4.8136L78.2472 4.81433L78.288 4.316ZM80.7 4.316L80.7333 4.81494L80.7404 4.81436L80.7 4.316ZM82.188 3.74L81.8172 3.40454L81.8164 3.40552L82.188 3.74ZM83.592 4.604H83.092V4.856H83.592H84.092V4.604H83.592ZM83.592 4.856L83.5708 4.35645L82.1548 4.41645L82.176 4.916L82.1972 5.41555L83.6132 5.35555L83.592 4.856ZM82.176 4.916L82.1506 4.41664C81.7964 4.43466 81.5067 4.45326 81.2905 4.47765C81.1829 4.48978 81.0813 4.50464 80.9933 4.52469C80.9248 4.54032 80.7909 4.57381 80.676 4.66L80.976 5.06L81.276 5.46C81.2091 5.51019 81.1607 5.51218 81.2156 5.49968C81.251 5.49161 81.3106 5.48172 81.4025 5.47135C81.5853 5.45074 81.8476 5.43334 82.2014 5.41535L82.176 4.916ZM80.976 5.06L80.711 4.636C80.4913 4.77331 80.4145 5.00462 80.3829 5.13073C80.3452 5.28175 80.332 5.45275 80.332 5.624H80.832H81.332C81.332 5.49525 81.3428 5.41425 81.3531 5.37327C81.358 5.35339 81.3594 5.35743 81.3496 5.37493C81.3402 5.39183 81.309 5.44151 81.241 5.484L80.976 5.06ZM80.832 5.624L80.3322 5.63962L80.3562 6.40762L80.856 6.392L81.3558 6.37638L81.3318 5.60838L80.832 5.624ZM80.856 6.392L80.3657 6.49006C80.3729 6.52626 80.3848 6.5803 80.4041 6.63337C80.4126 6.65669 80.4331 6.71021 80.4725 6.76697C80.4945 6.79858 80.6281 6.988 80.892 6.988V6.488V5.988C81.0225 5.988 81.1223 6.0384 81.1835 6.08333C81.2413 6.12578 81.2762 6.17111 81.2934 6.1959C81.3269 6.24404 81.3414 6.2848 81.3439 6.29163C81.3512 6.3117 81.3511 6.31774 81.3463 6.29394L80.856 6.392ZM80.892 6.488V6.988H80.976V6.488V5.988H80.892V6.488ZM80.976 6.488L81.1197 6.96691C81.163 6.95393 81.2657 6.94 81.492 6.94V6.44V5.94C81.2623 5.94 81.029 5.95007 80.8323 6.00909L80.976 6.488ZM81.492 6.44V6.94C81.6304 6.94 81.7867 6.92687 81.9286 6.87366C82.069 6.82098 82.3038 6.68057 82.347 6.37871L81.852 6.308L81.357 6.23729C81.3708 6.14065 81.4173 6.06184 81.4712 6.00849C81.5194 5.96084 81.5639 5.94239 81.5774 5.93734C81.5993 5.92913 81.5816 5.94 81.492 5.94V6.44ZM81.852 6.308H82.352C82.352 6.38612 82.3282 6.43815 82.3193 6.45547C82.3096 6.47437 82.3035 6.47925 82.3109 6.47095C82.3261 6.45375 82.3617 6.42144 82.418 6.38412C82.4722 6.34809 82.5302 6.31775 82.5796 6.29798C82.6039 6.28825 82.6217 6.28286 82.6323 6.28027C82.6445 6.27732 82.6392 6.28 82.62 6.28V5.78V5.28C82.4652 5.28 82.3174 5.32577 82.2078 5.36965C82.0896 5.417 81.9713 5.48041 81.8651 5.55088C81.7608 5.62006 81.6516 5.707 81.5623 5.80792C81.49 5.88946 81.352 6.06659 81.352 6.308H81.852ZM82.62 5.78V6.28C82.5952 6.28 82.594 6.2743 82.6217 6.28579C82.6477 6.29656 82.686 6.31704 82.7347 6.35121C82.8329 6.42016 82.9423 6.52295 83.0399 6.64009L83.424 6.32L83.8081 5.99991C83.6657 5.82905 83.4931 5.66184 83.3093 5.53279C83.1405 5.41429 82.8951 5.28 82.62 5.28V5.78ZM83.424 6.32L83.037 6.63662C83.0743 6.68214 83.0908 6.71082 83.0969 6.72353C83.1027 6.73585 83.092 6.71901 83.092 6.68H83.592H84.092C84.092 6.39552 83.9407 6.16194 83.811 6.00338L83.424 6.32ZM83.592 6.68H83.092C83.092 6.65768 83.1016 6.61716 83.129 6.58331C83.1501 6.55738 83.1582 6.5646 83.1111 6.58287C83.0058 6.62375 82.7846 6.65968 82.3947 6.64822L82.38 7.148L82.3653 7.64778C82.7914 7.66032 83.1762 7.63025 83.4729 7.51513C83.6268 7.45539 83.7849 7.36212 83.9057 7.21319C84.0329 7.05634 84.092 6.87032 84.092 6.68H83.592ZM82.38 7.148L82.3947 6.64822C81.968 6.63566 81.5736 6.64806 81.2005 6.68665L81.252 7.184L81.3035 7.68135C81.6264 7.64794 81.976 7.63633 82.3653 7.64778L82.38 7.148ZM81.252 7.184L81.1463 6.69529L80.7023 6.79129L80.808 7.28L80.9137 7.76871L81.3577 7.67271L81.252 7.184ZM80.808 7.28L80.3088 7.30836L80.3688 8.36436L80.868 8.336L81.3672 8.30764L81.3072 7.25164L80.808 7.28ZM80.868 8.336L80.3692 8.371C80.416 9.03785 80.4538 9.47752 80.4991 9.68877L80.988 9.584L81.4769 9.47923C81.4502 9.35448 81.416 9.00215 81.3668 8.301L80.868 8.336ZM80.988 9.584L80.5008 9.69643C80.574 10.0137 80.7873 10.2335 80.9714 10.3706C81.1604 10.5113 81.3722 10.6057 81.5444 10.6605L81.696 10.184L81.8476 9.70754C81.7558 9.67833 81.6496 9.62874 81.5686 9.56843C81.4827 9.50449 81.474 9.46632 81.4752 9.47157L80.988 9.584ZM81.696 10.184L81.5251 10.6539C81.7351 10.7302 81.9946 10.7554 82.2613 10.7675L82.284 10.268L82.3067 9.76852C82.0454 9.75664 81.9209 9.73375 81.8669 9.7141L81.696 10.184ZM82.284 10.268L82.2689 10.7678C82.6811 10.7803 83.0343 10.7658 83.3281 10.7139C83.6183 10.6625 83.8932 10.5674 84.1078 10.385L83.784 10.004L83.4602 9.62303C83.4348 9.64458 83.3557 9.69346 83.1539 9.72914C82.9557 9.7642 82.6789 9.77974 82.2991 9.76823L82.284 10.268ZM83.784 10.004L84.1162 10.3777C84.1653 10.3341 84.1777 10.3278 84.1674 10.334C84.1613 10.3376 84.1305 10.3556 84.0808 10.3684C84.0281 10.382 83.9364 10.3938 83.8299 10.3583L83.988 9.884L84.1461 9.40966C83.9058 9.32955 83.7097 9.44286 83.6586 9.47304C83.5823 9.51816 83.5107 9.57791 83.4518 9.63029L83.784 10.004ZM83.988 9.884L83.926 10.3801C83.8812 10.3745 83.8511 10.3637 83.8474 10.3625C83.8387 10.3594 83.8354 10.3578 83.8384 10.3591C83.8442 10.3618 83.8592 10.3692 83.8814 10.3825C83.9263 10.4092 83.9805 10.4475 84.0278 10.4906C84.0779 10.5363 84.1007 10.5695 84.1073 10.5824C84.1112 10.5901 84.09 10.5499 84.1078 10.4886L84.588 10.628L85.0682 10.7674C85.14 10.5201 85.0828 10.2954 84.9994 10.1306C84.9185 9.97103 84.8026 9.84373 84.7012 9.75136C84.597 9.65649 84.487 9.57929 84.3935 9.52354C84.3465 9.49554 84.2988 9.46998 84.2531 9.44919C84.2245 9.43613 84.1441 9.39962 84.05 9.38786L83.988 9.884ZM84.588 10.628L84.1078 10.4886C84.1078 10.4888 84.1081 10.4876 84.1091 10.4854C84.1101 10.4832 84.1115 10.4806 84.1133 10.4779C84.1172 10.472 84.1206 10.4691 84.1206 10.4691C84.1188 10.4706 84.0981 10.4865 84.0381 10.5045C83.9084 10.5433 83.7084 10.56 83.424 10.56V11.06V11.56C83.7156 11.56 84.0436 11.5467 84.3249 11.4625C84.6202 11.3741 84.949 11.178 85.0682 10.7674L84.588 10.628ZM83.424 11.06V10.56C82.8862 10.56 82.3023 10.5141 81.7679 10.4231L81.684 10.916L81.6001 11.4089C82.1937 11.5099 82.8338 11.56 83.424 11.56V11.06ZM81.684 10.916L81.7662 10.4228C81.4754 10.3743 81.3208 10.3431 81.1593 10.2715C80.9973 10.1996 80.8001 10.0733 80.4739 9.79284L80.148 10.172L79.8221 10.5512C80.1799 10.8587 80.4627 11.0564 80.7537 11.1855C81.0452 11.3149 81.3166 11.3617 81.6018 11.4092L81.684 10.916ZM80.148 10.172L80.4701 9.78954C80.1473 9.51777 79.9518 9.30338 79.8254 9.07413C79.7022 8.85064 79.6247 8.57594 79.6034 8.15472L79.104 8.18L78.6046 8.20528C78.6313 8.73206 78.7338 9.16536 78.9496 9.55687C79.1622 9.94262 79.4647 10.2502 79.8259 10.5545L80.148 10.172ZM79.104 8.18L79.6034 8.15503L79.5674 7.43503L79.068 7.46L78.5686 7.48497L78.6046 8.20497L79.104 8.18ZM79.068 7.46L79.0861 6.96033L78.0901 6.92433L78.072 7.424L78.0539 7.92367L79.0499 7.95967L79.068 7.46ZM78.072 7.424L78.0934 6.92446C77.6617 6.90596 77.4432 6.89154 77.2941 6.86171C77.1801 6.83892 77.1172 6.80989 77.011 6.7323L76.716 7.136L76.421 7.53969C76.6268 7.69011 76.8219 7.78708 77.0979 7.84229C77.3388 7.89046 77.6423 7.90604 78.0506 7.92354L78.072 7.424ZM76.716 7.136L77.0209 6.73969C76.9385 6.67636 76.924 6.65891 76.9324 6.6689C76.9373 6.67481 76.9504 6.69096 76.9649 6.71639C76.9788 6.74063 77.0024 6.78796 77.0142 6.85428C77.0269 6.92567 77.0253 7.01769 76.9861 7.1132C76.9474 7.20717 76.8866 7.27003 76.836 7.308L76.536 6.908L76.236 6.508C76.1734 6.55497 76.1043 6.62796 76.0611 6.73322C76.0172 6.84003 76.0145 6.94452 76.0297 7.0296C76.0558 7.17632 76.1362 7.27579 76.1666 7.3121C76.238 7.39709 76.3375 7.47563 76.4111 7.53231L76.716 7.136ZM76.536 6.908L76.8895 7.26155C76.8241 7.32701 76.7579 7.35528 76.7383 7.36341C76.7113 7.37463 76.6908 7.37981 76.684 7.38147C76.6701 7.38484 76.6676 7.38429 76.685 7.38231C76.7174 7.37863 76.7764 7.37462 76.8694 7.37176C77.0524 7.36613 77.3281 7.36597 77.7041 7.37194L77.712 6.872L77.7199 6.37206C77.3399 6.36603 77.0456 6.36587 76.8386 6.37224C76.7366 6.37538 76.6455 6.38037 76.5723 6.38869C76.5368 6.39271 76.4924 6.39891 76.4477 6.40978C76.4255 6.41519 76.3924 6.42431 76.3553 6.43966C76.3258 6.45191 76.2524 6.48449 76.1824 6.55445L76.536 6.908ZM77.712 6.872L77.704 7.37194C78.0521 7.37751 78.3546 7.39076 78.5503 7.38981C78.726 7.38895 78.9894 7.38439 79.2047 7.24716C79.4706 7.07771 79.5351 6.80405 79.564 6.64635C79.5798 6.56002 79.5917 6.46192 79.6032 6.36701C79.6153 6.26743 79.6283 6.15874 79.6468 6.03227L79.152 5.96L78.6572 5.88773C78.6367 6.02826 78.6223 6.14906 78.6105 6.2466C78.5981 6.34879 78.5896 6.41542 78.5803 6.46652C78.5589 6.5837 78.5544 6.47579 78.6673 6.40384C78.7296 6.36411 78.756 6.3888 78.5454 6.38982C78.3549 6.39074 78.1219 6.37849 77.72 6.37206L77.712 6.872ZM79.152 5.96L79.6461 6.03685C79.6859 5.78047 79.7224 5.56488 79.7393 5.40855C79.748 5.32821 79.7543 5.24066 79.7498 5.15507C79.7454 5.0703 79.7292 4.95543 79.6691 4.83982C79.5254 4.56351 79.2572 4.50207 79.137 4.4806C79.0331 4.46205 78.8405 4.44641 78.7209 4.43173L78.66 4.928L78.5991 5.42427C78.6912 5.43559 78.7725 5.44338 78.834 5.44961C78.9008 5.45639 78.937 5.4607 78.9611 5.46502C78.9873 5.46969 78.9651 5.46891 78.9269 5.44871C78.8759 5.42176 78.819 5.37256 78.7819 5.30118C78.751 5.24182 78.7508 5.19877 78.7512 5.20694C78.7516 5.21431 78.7516 5.24085 78.7451 5.30132C78.7316 5.42662 78.7021 5.59953 78.6579 5.88315L79.152 5.96ZM78.66 4.928L78.7333 4.4334C78.4143 4.38614 78.1626 4.356 78 4.356V4.856V5.356C78.0774 5.356 78.2577 5.37386 78.5867 5.4226L78.66 4.928ZM78 4.856L78.1145 4.36929C78.0507 4.35428 78.0264 4.34397 77.9902 4.32225C77.9355 4.28938 77.8567 4.23074 77.6918 4.09638L77.376 4.484L77.0602 4.87162C77.2193 5.00126 77.3505 5.10462 77.4758 5.17975C77.6196 5.26603 77.7453 5.30972 77.8855 5.34271L78 4.856ZM77.376 4.484L77.6961 4.09989C77.6248 4.04046 77.5935 4.01023 77.5847 4.00032C77.5777 3.99239 77.6041 4.01907 77.6285 4.07248C77.6487 4.11691 77.7255 4.31508 77.588 4.52135L77.172 4.244L76.756 3.96665C76.6065 4.19092 76.6848 4.41309 76.7185 4.48715C76.7563 4.57018 76.8083 4.63211 76.8373 4.66468C76.9005 4.73577 76.9832 4.80754 77.0559 4.86811L77.376 4.484ZM77.172 4.244L77.3956 4.69121C77.3439 4.71708 77.3001 4.72731 77.2868 4.73036C77.2678 4.73469 77.253 4.73683 77.2456 4.73779C77.2374 4.73887 77.2312 4.73942 77.228 4.73968C77.2246 4.73995 77.2224 4.74007 77.2218 4.7401C77.2212 4.74012 77.2292 4.7398 77.2496 4.74003C77.2886 4.74047 77.3517 4.74267 77.4408 4.7477C77.6179 4.7577 77.8834 4.77804 78.2383 4.81352L78.288 4.316L78.3378 3.81848C77.9726 3.78196 77.6921 3.7603 77.4972 3.74929C77.4003 3.74383 77.3209 3.74078 77.2609 3.74009C77.2318 3.73976 77.2012 3.73991 77.1728 3.74129C77.1593 3.74196 77.1387 3.74325 77.1155 3.74629C77.1149 3.74638 77.0339 3.75402 76.9484 3.79679L77.172 4.244ZM78.288 4.316L78.2472 4.81433C79.0086 4.87674 79.8139 4.87618 80.7333 4.81489L80.7 4.316L80.6667 3.81711C79.7861 3.87582 79.0314 3.87526 78.3288 3.81767L78.288 4.316ZM80.7 4.316L80.7404 4.81436C81.1853 4.77829 81.5376 4.74071 81.7839 4.69516C81.9025 4.67323 82.0278 4.64409 82.1339 4.59912C82.1855 4.57723 82.2646 4.53853 82.338 4.47109C82.4158 4.39955 82.52 4.26259 82.52 4.064H82.02H81.52C81.52 3.89241 81.6107 3.78133 81.6614 3.73468C81.6868 3.71139 81.7087 3.6973 81.7208 3.69019C81.7334 3.6828 81.7417 3.6792 81.7434 3.6785C81.7457 3.67753 81.7364 3.68154 81.7094 3.68864C81.6836 3.69541 81.6484 3.70326 81.6021 3.71184C81.4104 3.74729 81.1027 3.78171 80.6596 3.81764L80.7 4.316ZM82.02 4.064H82.52C82.52 4.09241 82.5155 4.11419 82.5117 4.12758C82.508 4.14059 82.5046 4.14637 82.5057 4.14438C82.5067 4.14243 82.5108 4.13523 82.52 4.12262C82.5291 4.11013 82.542 4.0941 82.5596 4.07448L82.188 3.74L81.8164 3.40552C81.6914 3.54439 81.52 3.77276 81.52 4.064H82.02ZM82.188 3.74L82.5588 4.07546C82.5557 4.07888 82.5402 4.09225 82.5153 4.09929C82.4941 4.10528 82.4868 4.1008 82.503 4.10398C82.5454 4.11235 82.633 4.15032 82.7484 4.24274C82.8578 4.33034 82.9582 4.43988 83.0276 4.53868C83.0621 4.58782 83.0831 4.626 83.0936 4.64969C83.1078 4.68146 83.092 4.66118 83.092 4.604H83.592H84.092C84.092 4.45982 84.0466 4.33154 84.0071 4.24289C83.9641 4.14615 83.9074 4.05149 83.8459 3.96394C83.7233 3.78937 83.5582 3.61016 83.3736 3.46226C83.195 3.31918 82.9601 3.1749 82.6965 3.12289C82.4062 3.06562 82.0711 3.12391 81.8172 3.40454L82.188 3.74Z" fill="black" fill-opacity="0.6" mask="url(#path-1-outside-1_170_5)"/>
<path d="M25.552 16.01H26.26L26.362 15.818C26.38 15.806 26.416 15.794 26.446 15.788C26.476 15.782 26.56 15.782 26.674 15.782C26.914 15.782 26.962 15.866 26.962 15.974C26.962 16.034 26.926 16.076 26.866 16.1C26.812 16.124 26.554 16.148 26.08 16.166C25.606 16.184 25.144 16.178 24.7 16.16L23.884 16.124L23.59 16.7C23.59 16.706 23.638 16.712 23.728 16.718C23.914 16.736 24.244 16.748 24.634 16.754C25.744 16.772 26.362 16.85 26.494 16.976C26.536 17.03 26.566 17.198 26.566 17.486V17.93H26.962C27.034 17.912 27.052 17.882 27.1 17.798C27.118 17.75 27.142 17.726 27.172 17.714C27.196 17.702 27.274 17.702 27.4 17.72C27.526 17.738 27.604 17.744 27.628 17.744C27.67 17.744 27.688 17.78 27.688 17.852C27.688 17.924 27.67 17.978 27.64 18.008C27.604 18.044 27.412 18.068 27.076 18.068H26.572L26.5 18.518C26.452 18.812 26.386 19.046 26.308 19.22L26.188 19.49L26.314 19.526C27.028 19.784 26.242 19.88 26.17 19.88C26.134 19.88 26.092 19.862 26.056 19.826C26.02 19.79 25.984 19.772 25.954 19.772C25.918 19.772 25.846 19.796 25.738 19.838C25.504 19.928 24.82 20.042 24.736 19.994C24.544 19.934 24.79 19.868 24.886 19.85C24.988 19.832 25.15 19.724 25.234 19.64C25.282 19.592 25.294 19.568 25.276 19.556C25.252 19.544 24.994 19.502 24.472 19.454C23.95 19.406 23.638 19.37 23.518 19.352C23.278 19.316 23.236 19.28 23.326 18.932C23.374 18.752 23.41 18.566 23.428 18.38L23.458 18.068L22.918 18.056C22.558 18.05 22.372 18.02 22.354 17.984C22.348 17.96 22.366 17.948 22.414 17.942C22.456 17.936 22.636 17.93 22.96 17.93C23.596 17.93 23.47 18.044 23.512 17.324L23.542 16.778L23.302 16.94C23.092 17.072 23.032 17.114 22.75 17.114C22.462 17.114 22.48 17.03 22.618 16.94C22.624 16.934 22.63 16.928 22.636 16.928C22.9 16.772 23.17 16.106 23.17 15.716C23.17 15.332 23.224 15.332 23.53 15.344C23.68 15.35 23.8 15.368 23.878 15.392C23.956 15.416 24.004 15.434 24.022 15.458C24.046 15.506 23.992 15.818 23.968 15.896C23.932 15.968 24.466 16.01 25.552 16.01ZM24.184 17.564V17.978H24.67L24.694 17.684C24.706 17.51 24.712 17.33 24.706 17.156L24.694 16.904L24.502 16.892C24.25 16.856 24.298 16.91 24.262 17.048C24.226 17.186 24.202 17.372 24.184 17.564ZM25.48 16.922H25.282L25.246 17.384C25.222 17.69 25.204 17.864 25.198 17.888C25.174 17.942 25.192 17.948 25.222 17.972H25.72L25.756 17.72C25.792 17.474 25.744 17.054 25.708 16.982C25.69 16.952 25.618 16.928 25.48 16.922ZM24.64 18.116H24.382C24.208 18.116 24.124 18.128 24.13 18.152C24.13 18.278 23.98 18.998 23.932 19.094C23.908 19.142 23.902 19.172 23.908 19.184C23.914 19.202 23.998 19.208 24.154 19.232L24.394 19.268L24.484 18.968C24.544 18.77 24.592 18.584 24.61 18.392L24.64 18.116ZM25.252 19.316H25.474L25.57 19.028C25.636 18.836 25.684 18.632 25.708 18.416L25.744 18.116H25.18L25.156 18.368C25.138 18.536 25.102 18.734 25.066 18.95C24.994 19.388 24.97 19.316 25.252 19.316ZM33.862 17.516C33.748 18.29 33.748 18.992 33.64 19.646C33.64 19.898 33.52 20.006 33.25 20.006H31.09C30.874 20.006 30.628 20.006 30.268 20.006H29.728C29.614 20.006 29.506 19.898 29.506 19.76C29.506 19.1 29.392 18.29 29.392 17.63V16.118C29.23 15.77 29.392 15.77 29.728 15.77C30.514 15.77 31.198 15.77 32.02 15.77H33.142C33.418 15.77 33.64 15.77 33.748 15.872C33.862 15.872 33.964 15.986 33.964 15.986C33.964 16.592 33.862 17.024 33.862 17.516ZM30.592 16.106V17.504C30.592 17.504 31.888 17.516 32.926 17.516V17.24C32.926 16.91 32.926 16.592 32.926 16.232V16.118C31.888 16.118 30.592 16.106 30.592 16.106ZM30.592 19.748C30.592 19.748 31.888 19.76 32.482 19.646C32.926 19.646 32.926 19.544 32.926 19.43C32.926 19.214 32.926 18.992 32.926 18.77V17.846C32.02 17.846 30.592 17.834 30.592 17.834V19.748ZM39.724 17.378C39.724 17.426 39.706 17.456 39.688 17.48C39.634 17.51 38.806 17.672 38.74 17.69C38.704 17.696 38.74 17.798 38.836 17.99C38.932 18.188 38.98 18.314 38.98 18.386C38.98 18.638 38.512 18.596 38.308 18.338C38.272 18.302 38.248 18.26 38.248 18.206C38.242 18.152 38.224 18.122 38.218 18.086C38.194 18.02 38.17 17.942 38.17 17.918C38.164 17.912 38.152 17.906 38.146 17.906C38.14 17.906 38.134 17.9 38.122 17.912C38.116 17.918 38.068 17.99 38.044 18.038C38.038 18.062 37.99 18.146 37.93 18.284C37.798 18.566 37.75 19.01 37.846 19.118C37.9 19.172 37.99 19.202 38.146 19.202C38.452 19.202 39.064 19.016 39.064 18.938C39.058 18.902 39.088 18.872 39.13 18.854C39.16 18.842 39.184 18.836 39.22 18.842C39.286 18.836 39.364 18.86 39.448 18.89C40.132 19.136 38.854 19.496 38.26 19.496C37.666 19.496 37.384 19.412 37.162 19.232C36.94 19.052 36.934 19.016 36.934 18.806C36.934 18.602 37.09 18.302 37.372 18.008C37.51 17.864 37.678 17.714 37.876 17.594C37.948 17.552 37.978 17.528 37.954 17.516H37.732C37.558 17.516 37.408 17.546 37.27 17.576C37.132 17.612 37.048 17.636 37.012 17.636C36.976 17.636 36.916 17.612 36.82 17.576L36.64 17.492L36.82 17.156C36.934 16.94 36.982 16.802 36.976 16.748C36.97 16.688 36.922 16.658 36.82 16.658C36.634 16.658 36.34 16.532 36.34 16.448C36.34 16.43 36.448 16.418 36.682 16.418C36.916 16.418 37.048 16.406 37.102 16.394C37.132 16.376 37.18 16.34 37.216 16.262C37.246 16.178 37.33 16.034 37.462 15.836L37.636 15.572L37.846 15.668C38.332 15.908 38.386 15.98 38.248 16.268C38.23 16.322 38.248 16.352 38.29 16.358C38.332 16.364 38.41 16.37 38.518 16.364C38.74 16.37 38.806 16.346 38.89 16.232C39.016 16.07 39.178 16.064 39.382 16.214C39.55 16.322 39.58 16.472 39.418 16.58C39.37 16.628 39.292 16.652 39.178 16.658H37.792L37.432 17.234L37.702 17.246C37.876 17.252 38.02 17.276 38.104 17.3C38.272 17.348 38.368 17.348 38.62 17.264C39.046 17.12 39.34 17.084 39.724 17.378ZM42.838 16.886C42.772 16.862 42.742 16.85 42.748 16.814C42.76 16.796 42.766 16.772 42.784 16.754C42.808 16.73 42.844 16.688 42.916 16.622C42.976 16.568 43.048 16.49 43.114 16.394C43.246 16.196 43.39 15.56 43.348 15.512C43.318 15.476 43.33 15.464 43.36 15.464C43.432 15.464 44.206 15.656 44.254 15.68C44.35 15.728 44.332 15.83 44.218 15.986L44.122 16.106L44.794 16.07C45.232 16.046 45.496 16.01 45.562 15.95C45.694 15.842 46.186 15.926 46.186 16.04C46.186 16.118 46.12 16.166 46.006 16.19C45.886 16.208 45.616 16.226 45.172 16.232C44.722 16.238 44.422 16.25 44.254 16.28C43.936 16.334 43.924 16.364 43.756 16.58C43.528 16.928 43.288 16.994 42.838 16.886ZM45.562 16.46C45.694 16.346 46.186 16.43 46.186 16.544C46.186 16.622 46.12 16.676 46.006 16.694C45.886 16.712 45.616 16.73 45.172 16.736C44.896 16.748 44.176 16.766 44.014 16.778L43.978 16.61L44.794 16.58C45.232 16.562 45.496 16.508 45.562 16.46ZM46.858 19.238C47.188 19.088 47.338 19.184 47.236 19.496C47.194 19.574 47.14 19.634 47.038 19.682C46.828 19.772 46.336 19.922 46.138 19.856C45.616 19.736 45.166 18.674 45.436 17.966L45.694 17.276L44.404 17.288C43.942 17.294 42.916 17.354 42.916 17.246C42.928 17.222 42.94 17.066 43.174 17.066C43.384 17.066 44.968 16.958 44.698 17C45.04 16.958 46.12 16.97 46.186 17.042C46.216 17.072 46.21 17.198 46.15 17.414C46.096 17.63 46.066 17.894 46.066 18.212C46.066 18.854 46.15 19.052 46.414 19.268C46.48 19.322 46.516 19.34 46.552 19.34C46.588 19.346 46.69 19.304 46.858 19.238ZM44.866 18.596C44.866 18.776 44.722 18.92 44.578 19.208C44.722 19.352 44.866 19.496 45.184 19.64C45.01 19.79 44.866 19.79 44.722 19.928H44.578C44.29 19.496 44.002 19.496 43.714 19.64C43.426 19.79 42.994 19.79 42.706 19.928V19.79C42.994 19.64 43.426 19.352 43.858 19.064C43.57 18.776 43.426 18.596 43.138 18.308C43.714 17.87 43.858 18.308 44.146 18.596C44.146 18.446 44.29 18.446 44.29 18.308C44.29 18.02 44.434 18.02 44.578 18.02C45.01 18.02 45.184 18.158 44.866 18.596ZM50.092 19.808C49.828 19.766 49.606 19.724 49.36 19.682C49.342 19.682 49.3 19.646 49.282 19.586H50.068C50.068 19.4 50.068 19.262 50.068 19.082C49.87 19.082 49.684 19.082 49.486 19.058C49.222 19.04 49.162 18.98 49.162 18.716C49.138 18.23 49.162 17.75 49.162 17.24H50.05C50.068 17.084 50.068 16.94 50.092 16.76H49.06C49.36 16.514 49.726 16.598 50.092 16.574C50.11 16.394 50.128 16.232 50.152 16.052C50.572 16.094 50.572 16.094 50.614 16.556C50.716 16.574 50.794 16.598 50.914 16.598C50.98 16.316 51.178 16.316 51.4 16.316C51.46 16.316 51.544 16.352 51.562 16.394C51.58 16.454 51.562 16.556 51.52 16.598C51.442 16.658 51.322 16.736 51.202 16.736C51.016 16.778 50.818 16.76 50.614 16.76V17.282C50.776 17.282 50.938 17.282 51.1 17.282C51.298 17.306 51.424 17.366 51.4 17.588C51.382 17.888 51.424 18.17 51.424 18.452C51.4 18.92 51.28 19.016 50.836 19.016C50.776 19.04 50.692 19.016 50.614 19.016V19.544C50.734 19.484 50.836 19.46 50.914 19.4C50.998 19.34 51.4 19.304 51.484 19.364C51.58 19.46 51.544 19.562 51.442 19.604C51.322 19.646 51.178 19.646 51.058 19.664C50.98 19.682 50.896 19.682 50.836 19.682C50.632 19.664 50.596 19.766 50.614 19.946C50.632 20.33 50.572 20.414 50.23 20.474C50.11 20.492 50.05 20.45 50.05 20.312C50.05 20.228 50.05 20.126 50.068 20.048C50.068 19.946 50.068 19.868 50.092 19.808ZM53.056 17.768C53.5 17.588 53.662 17.264 53.782 16.898C53.884 16.574 53.842 16.496 53.5 16.496H53.422C53.176 16.478 52.936 16.454 52.714 16.454H51.904C51.904 16.478 51.904 16.514 51.904 16.538C52.27 16.676 52.654 16.574 53.038 16.64C53.014 16.958 52.876 17.204 52.672 17.444L52.534 17.306C52.468 17.222 52.408 17.144 52.348 17.06C52.246 16.922 51.928 16.862 51.784 16.958C51.562 17.102 51.742 17.24 51.826 17.366C51.946 17.528 52.09 17.666 52.246 17.846C52.024 17.93 51.802 18.008 51.604 18.092V18.152C51.802 18.152 52.024 18.194 52.21 18.152C52.492 18.092 52.714 18.05 52.954 18.23C53.26 18.452 53.602 18.476 53.962 18.212C53.662 18.068 53.398 17.948 53.056 17.768ZM49.828 17.426V18.032C49.906 18.032 49.966 18.032 50.05 18.032V17.426C49.966 17.426 49.906 17.426 49.828 17.426ZM50.818 18.092L50.758 17.528C50.758 17.486 50.692 17.462 50.656 17.426C50.632 17.462 50.596 17.504 50.596 17.546C50.572 17.726 50.596 17.888 50.596 18.092H50.818ZM52.978 19.946V18.998C53.176 18.98 53.38 18.98 53.56 18.956C53.62 18.956 53.68 18.878 53.704 18.818C53.722 18.776 53.68 18.674 53.662 18.674C53.5 18.674 53.32 18.698 53.158 18.716C53.098 18.716 53.038 18.776 52.978 18.794C52.954 18.734 52.912 18.656 52.936 18.596C52.936 18.416 52.852 18.35 52.69 18.35C52.654 18.374 52.612 18.35 52.552 18.35C52.186 18.314 52.186 18.314 52.168 18.674C52.168 18.674 52.168 18.698 52.15 18.716C52.006 18.716 51.868 18.716 51.724 18.734V18.818C51.886 18.836 52.048 18.878 52.228 18.938V19.844C51.964 19.886 51.706 19.928 51.424 19.988C51.442 20.006 51.442 20.03 51.442 20.048C51.502 20.066 51.562 20.066 51.622 20.09C52.21 20.108 52.816 20.15 53.398 20.15C53.578 20.15 53.782 20.108 53.962 20.048C54.004 20.03 54.022 19.886 54.064 19.808C53.986 19.784 53.926 19.748 53.842 19.748C53.74 19.766 53.644 19.808 53.542 19.826C53.356 19.868 53.176 19.904 52.978 19.946ZM49.846 18.332V18.92C49.948 18.896 50.008 18.896 50.068 18.878V18.332C49.99 18.332 49.93 18.332 49.846 18.332ZM50.818 18.332H50.596C50.596 18.512 50.596 18.674 50.596 18.86C50.674 18.86 50.758 18.836 50.818 18.836V18.332ZM55.846 18.5C55.834 18.41 55.828 18.254 55.828 18.026C55.828 17.582 55.978 16.676 56.08 16.496C56.116 16.43 56.23 16.514 56.374 16.61L56.596 16.742C56.746 16.826 56.752 16.838 56.722 17.114C56.71 17.246 56.668 17.438 56.614 17.696C56.56 17.954 56.524 18.212 56.506 18.476L56.47 18.902L56.686 18.998C56.83 19.052 56.908 19.1 56.914 19.142C56.908 19.172 56.83 19.208 56.704 19.262C56.572 19.322 56.488 19.352 56.476 19.376C56.458 19.406 56.41 19.4 56.344 19.358C56.2 19.268 56.038 19.088 55.954 18.938C55.888 18.788 55.87 18.686 55.846 18.5ZM58.564 16.748C58.756 16.796 58.918 16.814 59.032 16.814C59.146 16.814 59.23 16.832 59.272 16.838C59.314 16.838 59.35 16.862 59.38 16.892L59.506 17.018C59.734 17.27 59.626 17.546 59.398 17.63C59.176 17.714 58.954 17.492 58.93 17.426C58.906 17.36 59.002 17.168 59.026 17.126C59.026 17.108 58.372 16.988 58.18 16.988C58 16.988 57.748 16.808 57.802 16.724C57.826 16.688 57.91 16.664 58.06 16.67C58.204 16.676 58.372 16.694 58.564 16.748ZM57.706 19.094C57.646 18.992 57.616 18.896 57.616 18.818C57.616 18.74 57.628 18.692 57.658 18.686C57.7 18.68 57.784 18.668 57.916 18.668C58.192 18.668 58.792 18.776 59.164 18.86C59.326 18.884 59.428 19.292 59.296 19.364C59.026 19.514 58.408 19.478 57.916 19.292C57.838 19.262 57.772 19.196 57.706 19.094ZM65.038 17.816V18.068C65.038 18.404 65.038 18.326 65.362 18.29L65.674 18.254C65.776 18.236 65.824 18.194 65.89 18.116C65.92 18.068 65.962 18.044 65.992 18.038C66.022 18.032 66.1 18.032 66.214 18.044C66.454 18.068 66.574 18.146 66.574 18.266C66.574 18.296 66.526 18.332 66.442 18.356C66.352 18.38 66.13 18.404 65.782 18.44C65.434 18.476 65.224 18.5 65.146 18.518C65.068 18.536 65.032 18.56 65.038 18.596C65.032 18.626 65.044 18.65 65.068 18.656C65.098 18.662 65.176 18.656 65.308 18.644C65.584 18.62 65.71 18.65 65.83 18.818C65.95 18.992 66.202 19.154 66.484 19.238C66.628 19.28 66.7 19.31 66.7 19.34C66.706 19.358 66.676 19.376 66.634 19.394C66.382 19.49 65.74 19.328 65.362 19.112C65.164 18.998 65.062 18.938 65.05 18.938L65.08 19.652C65.068 19.712 65.05 19.754 65.008 19.79C64.924 19.868 64.588 19.88 64.402 19.802L64.288 19.754L64.324 18.938L64.126 19.094C63.904 19.268 63.688 19.394 63.358 19.448C63.184 19.478 63.058 19.472 62.98 19.448C62.896 19.424 62.854 19.394 62.86 19.358C62.854 19.31 62.89 19.28 62.968 19.262C63.118 19.232 63.412 19.07 63.496 19.016C63.574 18.962 63.622 18.908 63.694 18.758C63.766 18.608 63.766 18.602 63.988 18.578C64.096 18.578 64.174 18.596 64.228 18.62C64.276 18.644 64.306 18.656 64.318 18.656C64.336 18.65 64.342 18.632 64.342 18.608C64.342 18.578 64.288 18.56 64.192 18.554C64.102 18.548 63.844 18.536 63.43 18.53C63.022 18.524 62.8 18.506 62.782 18.488C62.734 18.44 62.77 18.416 62.878 18.398C62.986 18.38 63.226 18.386 63.592 18.398L64.294 18.422V17.798H64.018C63.844 17.798 63.7 17.792 63.604 17.774L63.466 17.744L63.49 16.028H63.658C63.88 16.028 64.132 15.848 64.186 15.716C64.24 15.584 64.258 15.572 64.432 15.554C64.612 15.536 64.864 15.548 64.894 15.566C64.912 15.572 64.918 15.602 64.912 15.656C64.894 15.8 64.798 15.932 64.618 16.034C64.522 16.088 64.492 16.13 64.522 16.148C64.564 16.166 64.762 16.172 65.11 16.196C65.794 16.244 65.656 16.064 65.686 16.946L65.71 17.618L65.038 17.816ZM62.32 15.926L62.512 15.86C62.794 15.764 63.028 15.686 63.124 15.764C63.166 15.806 63.208 15.944 63.268 16.19C63.316 16.37 63.172 16.466 62.89 16.502C62.746 16.52 62.632 16.502 62.536 16.46C62.356 16.382 62.344 16.37 62.332 16.148L62.32 15.926ZM66.052 16.412C66.022 16.334 66.004 16.25 66.004 16.142C66.004 15.932 66.046 15.878 66.268 15.806C66.55 15.716 66.73 15.734 66.814 15.836C66.856 15.908 66.874 16.004 66.874 16.112C66.874 16.328 66.832 16.4 66.508 16.502C66.352 16.55 66.238 16.568 66.172 16.55C66.13 16.532 66.082 16.49 66.052 16.412ZM64.294 16.796V16.922H64.954V16.64C64.954 16.256 64.96 16.328 64.6 16.298L64.354 16.286L64.318 16.478C64.3 16.622 64.294 16.73 64.294 16.796ZM66.304 16.982C66.442 16.928 66.55 16.892 66.634 16.892C66.802 16.892 66.814 16.922 66.886 17.108C66.958 17.288 66.91 17.444 66.658 17.546C66.406 17.666 66.238 17.636 66.118 17.432C66.058 17.33 66.04 17.246 66.058 17.168C66.094 17.102 66.172 17.036 66.304 16.982ZM62.74 16.952C62.812 16.946 62.89 16.94 62.968 16.94C63.04 16.94 63.094 16.946 63.118 16.952C63.166 16.976 63.19 17.006 63.244 17.06C63.394 17.33 63.118 17.6 62.662 17.6H62.434L62.422 17.402C62.41 17.246 62.446 17.108 62.548 17.03C62.602 16.988 62.662 16.958 62.74 16.952ZM64.294 17.09V17.666H64.546C64.978 17.666 65.002 17.648 64.99 17.366L64.978 17.12L64.294 17.09ZM69.796 17.924C69.766 17.78 69.748 17.546 69.748 17.21C69.748 16.88 69.76 16.676 69.766 16.598C69.79 16.442 69.928 16.19 70.03 16.064C70.072 16.01 70.12 15.962 70.168 15.95C70.216 15.926 70.234 15.92 70.246 15.908C70.246 15.902 70.318 15.926 70.438 15.974C70.678 16.07 70.78 16.454 70.66 16.778C70.534 17.096 70.558 18.608 70.57 18.812C70.576 18.92 70.612 19.01 70.654 19.064C70.888 19.352 71.188 19.46 71.5 19.334C71.632 19.28 71.758 19.178 71.872 19.022C71.932 18.95 72.01 18.824 72.106 18.644C72.316 18.296 72.364 18.248 72.574 18.284C72.682 18.296 72.748 18.326 72.766 18.344C72.826 18.398 72.25 19.268 72.088 19.394C71.926 19.526 71.842 19.556 71.602 19.562C71.11 19.598 70.504 19.388 70.294 19.106C70.276 19.094 70.246 19.052 70.192 18.986C70.15 18.932 70.12 18.896 70.102 18.878C70.036 18.806 69.904 18.488 69.796 17.924ZM78.598 19.484C79.168 19.718 78.952 19.976 78.1 19.574C77.446 19.34 76.636 18.62 76.576 18.308V18.062C76.762 17.582 77.302 16.91 77.83 16.37C77.92 16.37 78.034 16.01 78.52 16.37C78.76 16.538 78.688 16.538 78.598 16.7L77.668 17.804C77.59 17.978 77.416 18.146 77.416 18.308C77.416 18.83 78.268 19.238 78.598 19.484ZM84.9625 18.185V15.605C84.955 15.4625 84.9175 15.3725 84.8575 15.335C84.79 15.275 84.7525 15.23 84.7525 15.2C84.775 15.1625 84.8425 15.155 84.97 15.1775C85.2175 15.2375 85.615 15.4625 85.7125 15.59C85.8325 15.7925 85.8625 16.8725 85.765 17.375C85.6525 17.945 85.5625 18.2675 85.48 18.35C85.4125 18.38 85.24 18.3275 84.9625 18.185ZM84.835 19.97C84.7075 19.8425 84.76 19.325 84.9025 19.2275C85.045 19.13 85.57 19.2575 85.7125 19.445C85.825 19.61 85.81 19.775 85.6675 19.94C85.57 20.0675 85.525 20.09 85.1875 20.075C85.015 20.0675 84.9025 20.0375 84.835 19.97Z" fill="black" fill-opacity="0.6"/>
</svg>
