<svg width="32" height="36" viewBox="0 0 32 36" fill="none" xmlns="http://www.w3.org/2000/svg">
<path d="M5.05 36C4.25 36 3.55 35.7 2.95 35.1C2.35 34.5 2.05 33.8 2.05 33V4.5H1.5C1.06667 4.5 0.708334 4.35833 0.425 4.075C0.141667 3.79167 0 3.43333 0 3C0 2.56667 0.141667 2.20833 0.425 1.925C0.708334 1.64167 1.06667 1.5 1.5 1.5H9.4C9.4 1.06667 9.54167 0.708334 9.825 0.425C10.1083 0.141667 10.4667 0 10.9 0H21.1C21.5333 0 21.8917 0.141667 22.175 0.425C22.4583 0.708334 22.6 1.06667 22.6 1.5H30.5C30.9333 1.5 31.2917 1.64167 31.575 1.925C31.8583 2.20833 32 2.56667 32 3C32 3.43333 31.8583 3.79167 31.575 4.075C31.2917 4.35833 30.9333 4.5 30.5 4.5H29.95V33C29.95 33.8 29.65 34.5 29.05 35.1C28.45 35.7 27.75 36 26.95 36H5.05ZM5.05 4.5V33H26.95V4.5H5.05ZM10.35 27.2C10.35 27.6333 10.4917 27.9917 10.775 28.275C11.0583 28.5583 11.4167 28.7 11.85 28.7C12.2833 28.7 12.6417 28.5583 12.925 28.275C13.2083 27.9917 13.35 27.6333 13.35 27.2V10.25C13.35 9.81667 13.2083 9.45833 12.925 9.175C12.6417 8.89167 12.2833 8.75 11.85 8.75C11.4167 8.75 11.0583 8.89167 10.775 9.175C10.4917 9.45833 10.35 9.81667 10.35 10.25V27.2ZM18.65 27.2C18.65 27.6333 18.7917 27.9917 19.075 28.275C19.3583 28.5583 19.7167 28.7 20.15 28.7C20.5833 28.7 20.9417 28.5583 21.225 28.275C21.5083 27.9917 21.65 27.6333 21.65 27.2V10.25C21.65 9.81667 21.5083 9.45833 21.225 9.175C20.9417 8.89167 20.5833 8.75 20.15 8.75C19.7167 8.75 19.3583 8.89167 19.075 9.175C18.7917 9.45833 18.65 9.81667 18.65 10.25V27.2ZM5.05 4.5V33V4.5Z" fill="#836147"/>
</svg>
