<svg width="51" height="51" viewBox="0 0 51 51" fill="none" xmlns="http://www.w3.org/2000/svg">
<rect width="50.3924" height="50.3924" fill="white" fill-opacity="0.5"/>
<path fill-rule="evenodd" clip-rule="evenodd" d="M48.3768 25.7446C48.3768 24.0324 48.2231 22.386 47.9378 20.8055H25.1963V30.1458H38.1914C37.6317 33.1641 35.9304 35.7214 33.3731 37.4336V43.4922H41.1768C45.7426 39.2885 48.3768 33.0982 48.3768 25.7446Z" fill="#4285F4"/>
<path fill-rule="evenodd" clip-rule="evenodd" d="M25.196 49.3419C31.7155 49.3419 37.1814 47.1797 41.1765 43.4919L33.3728 37.4333C31.2106 38.8821 28.4448 39.7382 25.196 39.7382C18.907 39.7382 13.5838 35.4906 11.685 29.7833H3.61792V36.0394C7.59109 43.9309 15.757 49.3419 25.196 49.3419Z" fill="#34A853"/>
<path fill-rule="evenodd" clip-rule="evenodd" d="M11.6853 29.784C11.2024 28.3352 10.928 26.7877 10.928 25.1962C10.928 23.6047 11.2024 22.0572 11.6853 20.6084V14.3523H3.61822C1.98285 17.6121 1.04993 21.2999 1.04993 25.1962C1.04993 29.0926 1.98285 32.7804 3.61822 36.0401L11.6853 29.784Z" fill="#FBBC05"/>
<path fill-rule="evenodd" clip-rule="evenodd" d="M25.196 10.6532C28.7411 10.6532 31.924 11.8715 34.4265 14.2642L41.3521 7.33859C37.1704 3.44225 31.7045 1.04956 25.196 1.04956C15.757 1.04956 7.59109 6.46054 3.61792 14.352L11.685 20.6081C13.5838 14.9008 18.907 10.6532 25.196 10.6532Z" fill="#EA4335"/>
</svg>
