<svg width="48" height="49" viewBox="0 0 48 49" fill="none" xmlns="http://www.w3.org/2000/svg">
<path fill-rule="evenodd" clip-rule="evenodd" d="M47.3269 24.695C47.3269 22.9828 47.1732 21.3365 46.8878 19.756H24.1464V29.0962H37.1415C36.5817 32.1145 34.8805 34.6718 32.3232 36.384V42.4426H40.1269C44.6927 38.2389 47.3269 32.0487 47.3269 24.695Z" fill="#4285F4"/>
<path fill-rule="evenodd" clip-rule="evenodd" d="M24.1461 48.2923C30.6656 48.2923 36.1314 46.1301 40.1266 42.4423L32.3229 36.3838C30.1607 37.8326 27.3948 38.6887 24.1461 38.6887C17.857 38.6887 12.5339 34.4411 10.6351 28.7338H2.56799V34.9899C6.54117 42.8813 14.707 48.2923 24.1461 48.2923Z" fill="#34A853"/>
<path fill-rule="evenodd" clip-rule="evenodd" d="M10.6354 28.7345C10.1524 27.2857 9.87806 25.7381 9.87806 24.1466C9.87806 22.5552 10.1524 21.0076 10.6354 19.5588V13.3027H2.5683C0.932928 16.5625 0 20.2503 0 24.1466C0 28.043 0.932928 31.7308 2.5683 34.9906L10.6354 28.7345Z" fill="#FBBC05"/>
<path fill-rule="evenodd" clip-rule="evenodd" d="M24.1461 9.60367C27.6912 9.60367 30.8741 10.822 33.3766 13.2146L40.3022 6.28903C36.1205 2.39269 30.6546 0 24.1461 0C14.707 0 6.54117 5.41098 2.56799 13.3025L10.6351 19.5586C12.5339 13.8512 17.857 9.60367 24.1461 9.60367Z" fill="#EA4335"/>
</svg>
