<svg width="227" height="103" viewBox="0 0 227 103" fill="none" xmlns="http://www.w3.org/2000/svg">
<path d="M42.148 88.944C41.572 90.072 42.148 88.944 40.828 91.416L40.564 92.112C41.092 91.944 41.716 91.872 42.484 91.776C43.948 91.632 44.068 91.656 44.98 92.184C45.916 92.712 46.228 92.976 46.948 94.032C47.644 95.064 47.548 95.88 46.66 96.648C45.196 97.944 43.084 98.712 40.252 98.736C39.004 98.76 38.212 98.64 37.876 98.424C37.204 98.016 37.324 97.92 37.948 97.584C38.572 97.248 38.62 97.296 39.076 97.584C39.316 97.704 39.556 97.8 39.844 97.848C40.372 97.992 43.228 97.872 44.356 95.736C44.908 94.512 43.612 92.328 40.828 92.736L39.292 93.096C39.076 93.096 37.996 93.192 39.076 91.296L39.964 89.016C39.988 88.92 40.012 88.8 39.844 88.776C37.732 88.608 37.42 88.56 36.916 88.464C36.34 88.344 35.86 88.104 35.428 87.816C34.564 87.192 33.7 87.36 34.516 86.688C35.308 86.016 35.668 86.256 36.676 86.76C37.228 87.048 37.684 87.408 40.012 87.504C40.612 87.528 40.804 87.48 40.804 86.76C40.804 86.376 41.236 84.12 41.452 83.88C41.932 83.424 43.66 82.632 43.996 82.632C44.164 82.608 44.236 82.704 44.308 82.872C44.38 83.016 44.356 83.28 44.236 83.712C43.78 85.152 42.748 87.72 42.82 87.792C43.012 87.84 45.124 87.48 46.372 87.504C46.636 87.552 47.404 86.376 47.836 86.4C48.244 86.4 49.348 88.008 49.444 88.032C50.14 89.16 48.196 88.92 47.596 89.016C47.308 89.088 46.732 88.944 45.916 88.944H42.148ZM66.988 89.304V90.12H67.804C68.236 90.12 68.644 90.168 69.1 90.288C69.556 90.432 69.748 90.528 69.748 90.648C69.748 90.744 69.1 90.912 67.804 91.104L67.06 91.224L66.844 92.832C66.724 93.936 66.604 94.584 66.556 94.704C66.532 94.848 66.964 95.208 67.972 95.664L69.46 96.384L68.548 96.432C67.948 96.456 67.516 96.432 67.276 96.336C67.036 96.264 66.844 96.216 66.724 96.336C66.628 96.408 66.436 96.696 66.148 97.2C65.596 98.16 64.804 98.568 63.124 98.4C61.564 98.232 60.58 97.8 60.196 97.032C59.764 96.264 59.812 95.64 60.436 95.112C61.084 94.608 61.3 94.56 62.716 94.344L63.628 94.2V92.304C63.628 90.192 64.06 87.096 64.156 86.928C64.252 86.736 64.444 86.832 64.756 86.928C65.02 87.024 65.404 87.192 65.716 87.408C66.028 87.6 66.364 87.816 66.58 88.008C66.868 88.32 67.036 88.752 66.988 89.304ZM63.388 95.616C63.388 94.848 61.18 96.264 61.708 97.2C61.804 97.368 61.996 97.368 62.236 97.248C62.716 97.008 63.388 96 63.388 95.616ZM84.7 85.344C84.724 85.152 85.468 84.48 85.876 84.408C86.092 84.384 86.572 84.36 87.316 84.36C92.692 84.144 95.62 84.072 96.484 84.648C97.636 85.392 95.5 86.976 93.484 87.768C93.292 87.792 92.332 88.224 92.068 87.888L93.268 85.656L85.732 85.344C85.06 85.2 84.724 85.488 84.7 85.344ZM93.364 94.728C94.324 94.728 94.924 94.68 95.164 94.536C95.668 94.224 96.148 94.536 95.428 95.28C94.684 96.024 93.988 96.36 93.34 96.36C92.692 96.456 87.004 96.6 85.18 96.12C83.38 95.616 82.444 94.392 83.476 93.528C84.004 93.096 84.292 93.312 84.868 93.696C86.884 95.064 90.196 94.728 93.364 94.728ZM118.924 89.76C119.188 90.192 119.332 90.648 119.332 91.176C119.332 91.704 119.332 92.016 119.284 92.208C119.236 92.4 119.14 92.568 118.996 92.712C118.708 93.072 117.532 94.392 116.14 95.064C115.444 95.4 114.892 95.592 114.412 95.592C113.956 95.592 113.476 95.424 112.972 95.088L112.204 94.56L113.14 94.344C114.412 93.984 115.324 94.128 115.876 92.16C116.188 91.056 115.516 90 115.252 89.184C115.18 88.968 115.084 88.752 114.94 88.752C114.82 88.752 114.412 88.752 113.764 88.824C113.116 88.896 112.324 89.112 111.364 89.4C110.428 89.688 109.78 89.856 109.42 89.856C108.676 89.856 107.716 89.184 107.62 88.968C107.524 88.752 108.22 88.08 108.652 88.32C108.868 88.44 109.276 88.416 109.876 88.176C111.076 87.696 113.308 87.168 114.964 87.384C116.644 87.6 118.372 88.872 118.924 89.76ZM132.436 82.584C132.628 82.272 132.772 82.128 132.964 82.128C133.228 82.128 135.076 83.448 135.388 83.904C135.532 84.144 135.604 84.984 135.604 86.4C135.604 89.28 135.436 89.256 137.86 87.936C140.692 86.376 141.316 86.016 141.316 85.848C141.316 85.32 141.916 84.432 142.348 84.456C143.26 84.456 144.46 85.56 144.46 86.424C144.46 86.736 144.028 86.976 143.164 87.192C141.484 87.576 136.132 90.24 135.868 90.624C135.532 91.176 134.116 92.016 134.668 94.464C134.884 95.352 135.94 96.336 137.62 96.384C139.876 96.432 140.5 96.384 140.908 96.264C141.316 96.096 141.58 96.048 141.724 96.048C142.012 96.048 143.044 96.552 143.14 96.792C143.164 97.032 142.564 97.56 141.916 97.56C141.196 97.608 136.684 97.296 135.532 97.272C131.284 97.2 131.212 94.368 131.212 93.672C131.212 92.976 131.596 92.112 132.172 91.296C132.46 90.912 132.748 90.552 133.06 90.24L133.948 89.376L133.444 88.824C132.748 87.984 132.364 86.592 132.244 84.648C132.196 83.568 132.244 82.896 132.436 82.584ZM152.764 99.192C152.596 99.024 152.5 98.808 152.5 98.688C152.5 98.544 152.788 98.28 153.388 97.944C154.54 97.248 156.364 95.352 157.444 93.768L158.404 92.328L157.66 91.704C157.156 91.248 156.892 90.936 156.82 90.72C156.772 90.48 156.412 90.192 155.86 89.856C155.284 89.496 155.02 89.208 155.068 88.992C155.116 88.944 155.188 88.896 155.308 88.896C155.548 88.896 156.556 89.424 156.556 89.616C156.556 89.856 158.812 90.936 159.1 90.864C159.388 90.768 160.708 87.984 161.332 86.088C161.644 85.128 161.836 84.576 161.956 84.384C162.196 84.048 162.748 84.168 163.3 84.672C163.804 85.176 163.804 85.2 163.732 86.232C163.636 87.336 162.292 91.32 161.548 92.712L161.044 93.648L162.196 94.224C162.94 94.584 163.492 94.8 163.828 94.848C164.548 94.92 165.268 95.208 165.58 95.568C165.772 95.76 165.82 95.88 165.772 96C165.316 96.432 163.156 95.736 161.62 94.656L160.732 94.056L159.964 94.92C159.388 95.568 158.788 96.264 158.188 97.056C157.012 98.616 156.7 98.688 155.26 99.384C154.516 99.744 154.06 99.912 153.916 99.912C153.604 99.912 153.124 99.576 152.764 99.192ZM189.484 86.208V86.712L186.652 86.832C185.236 86.904 184.444 86.976 184.252 87.12C184.06 87.24 183.964 87.648 183.964 88.248L184.012 89.784C184.036 89.904 184.06 89.976 184.084 89.976H184.252C184.492 89.904 184.828 89.88 185.284 89.88C185.74 89.88 185.98 89.784 186.004 89.616C186.004 89.208 187.036 88.56 187.54 88.56C188.02 88.56 188.668 89.064 189.148 89.64C189.364 89.904 189.484 90.144 189.484 90.36C189.484 91.032 188.692 91.344 187.06 91.296C186.244 91.272 185.5 91.296 184.804 91.368L183.916 91.56L184.036 93.672C184.132 95.04 184.204 95.832 184.276 96.168C184.42 96.792 185.164 97.2 185.692 97.368C185.956 97.464 186.34 97.512 186.868 97.536C188.452 97.584 189.388 97.416 189.868 97.008C190.084 96.816 190.204 96.744 190.276 96.768C190.468 96.792 191.692 97.512 191.476 98.256C191.26 99 190.3 99.12 189.148 99.12C188.02 99.12 186.796 99.024 185.668 98.832C184.516 98.64 183.964 98.52 182.596 97.344C181.228 96.192 180.604 95.256 180.508 93.36L180.436 91.92L178.444 91.848C176.764 91.776 176.356 91.728 175.732 91.272C175.42 91.032 175.276 90.888 175.372 90.816C175.444 90.744 176.212 90.72 177.724 90.744C180.724 90.792 180.292 91.056 180.604 88.92C180.94 86.76 180.988 87.024 179.62 86.856C178.972 86.76 178.54 86.712 178.3 86.712C177.892 86.616 177.7 86.496 177.052 85.968C176.764 85.728 176.596 85.56 176.644 85.488C176.692 85.464 177.436 85.488 178.876 85.632C180.34 85.752 181.9 85.752 183.7 85.632C185.476 85.488 186.34 85.344 186.34 85.128C186.34 84.936 186.46 84.72 186.676 84.48C187.588 83.472 189.484 85.512 189.484 86.208Z" fill="#735234"/>
<g clip-path="url(#clip0_199_59)">
<path d="M130.188 9.375C138.817 9.375 145.812 16.3706 145.812 25V27.3438H127.531V53.2812H145.812V53.9062C145.812 62.5357 138.817 69.5312 130.188 69.5312H97.2188C88.5893 69.5312 81.5938 62.5357 81.5938 53.9062V25C81.5938 16.3706 88.5893 9.375 97.2188 9.375H130.188Z" fill="#CC8547"/>
<rect x="93.4688" y="19.8438" width="39.0625" height="39.0625" rx="7.8125" fill="#FFE57B"/>
<rect x="156.581" y="-11.7188" width="8.32758" height="43.9062" transform="rotate(45 156.581 -11.7188)" fill="#3B5D38"/>
<path d="M124.518 26.7075L131.423 25.2161L125.535 19.3276L124.518 26.7075Z" fill="#836147"/>
<path d="M124.448 26.7479L126.164 26.3649L124.775 24.9761L124.448 26.7479Z" fill="black"/>
<line x1="97.2188" y1="29.2188" x2="128.631" y2="29.2188" stroke="black" stroke-opacity="0.6" stroke-width="0.625"/>
<line x1="97.375" y1="39.6875" x2="128.787" y2="39.6875" stroke="black" stroke-opacity="0.6" stroke-width="0.625"/>
<line x1="97.2188" y1="50.4688" x2="128.631" y2="50.4688" stroke="black" stroke-opacity="0.6" stroke-width="0.625"/>
</g>
<defs>
<clipPath id="clip0_199_59">
<rect width="80" height="80" fill="white" transform="translate(73)"/>
</clipPath>
</defs>
</svg>
