<?xml version="1.0" encoding="UTF-8"?>
<svg version="1.1" xmlns="http://www.w3.org/2000/svg" width="512" height="512">
<path d="M0 0 C20.79 0 41.58 0 63 0 C63 19.47 63 38.94 63 59 C99.96 59 136.92 59 175 59 C175 109.16 175 159.32 175 211 C172.36 211 169.72 211 167 211 C167 215.62 167 220.24 167 225 C224.09 225 281.18 225 340 225 C340 269.88 340 314.76 340 361 C337.69 361 335.38 361 333 361 C333 365.95 333 370.9 333 376 C335.31 376 337.62 376 340 376 C340 381.28 340 386.56 340 392 C337.69 392 335.38 392 333 392 C333 396.62 333 401.24 333 406 C335.31 406 337.62 406 340 406 C343.12908441 424.11890983 342.82189759 439.71145544 331.96934223 455.14298534 C325.74127408 463.46093317 318.7699898 471.00563642 311.49609375 478.41015625 C310.73344987 479.20034692 309.97080598 479.99053759 309.18505168 480.80467343 C283.41703999 507.32444556 259.11728899 518.22296252 222.13533401 518.90403366 C204.08882026 519.04546228 186.13231328 518.30667776 168.12895525 517.11392272 C153.29596968 516.14900465 138.44647449 515.78423505 123.58978176 515.37369442 C100.35329711 514.71672115 77.229968 513.30198663 54 512 C54 455.24 54 398.48 54 340 C49.05 340 44.1 340 39 340 C39 342.31 39 344.62 39 347 C-10.83 347 -60.66 347 -112 347 C-112 281.99 -112 216.98 -112 150 C-109.69 150 -107.38 150 -105 150 C-105 145.38 -105 140.76 -105 136 C-107.31 136 -109.62 136 -112 136 C-112 130.72 -112 125.44 -112 120 C-109.69 120 -107.38 120 -105 120 C-105 115.05 -105 110.1 -105 105 C-107.31 105 -109.62 105 -112 105 C-112 89.82 -112 74.64 -112 59 C-75.04 59 -38.08 59 0 59 C0 39.53 0 20.06 0 0 Z " fill="#F7EC91" transform="translate(142,0)"/>
<path d="M0 0 C27.06 0 54.12 0 82 0 C82 9.9 82 19.8 82 30 C102.13 30 122.26 30 143 30 C143 20.1 143 10.2 143 0 C175.01 0 207.02 0 240 0 C240 44.88 240 89.76 240 136 C242.64 136 245.28 136 248 136 C248 140.95 248 145.9 248 151 C210.71 151 173.42 151 135 151 C135 181.03 135 211.06 135 242 C90.45 242 45.9 242 0 242 C0 162.14 0 82.28 0 0 Z " fill="#F5CCC2" transform="translate(61,75)"/>
<path d="M0 0 C20.79 0 41.58 0 63 0 C63 19.47 63 38.94 63 59 C99.96 59 136.92 59 175 59 C175 109.16 175 159.32 175 211 C169.72 211 164.44 211 159 211 C159 166.12 159 121.24 159 75 C126.99 75 94.98 75 62 75 C62 84.9 62 94.8 62 105 C41.87 105 21.74 105 1 105 C1 95.1 1 85.2 1 75 C-26.06 75 -53.12 75 -81 75 C-81 154.86 -81 234.72 -81 317 C-36.45 317 8.1 317 54 317 C54 286.97 54 256.94 54 226 C69.22910298 225.82124717 84.45812187 225.65136209 99.6875 225.5 C100.8815382 225.48812275 102.0755764 225.4762455 103.30579758 225.46400833 C155.72439341 224.94972559 208.1417608 224.91426937 260.5625 224.9375 C261.54801456 224.93792423 262.53352912 224.93834846 263.54890776 224.93878555 C270.43258917 224.94179863 277.31627022 224.94529909 284.19995117 224.94921875 C285.06509547 224.9497097 285.93023977 224.95020065 286.82160056 224.95070648 C304.54774097 224.96116621 322.27386403 224.98160129 340 225 C340 269.88 340 314.76 340 361 C335.05 361 330.1 361 325 361 C325 321.4 325 281.8 325 241 C240.85 241 156.7 241 70 241 C70 325.48 70 409.96 70 497 C131.71 497 193.42 497 257 497 C257 474.56 257 452.12 257 429 C279.44 429 301.88 429 325 429 C325 421.41 325 413.82 325 406 C329.95 406 334.9 406 340 406 C342.88660595 424.26592628 342.93751284 439.54705912 331.96934223 455.14298534 C325.74127408 463.46093317 318.7699898 471.00563642 311.49609375 478.41015625 C310.73344987 479.20034692 309.97080598 479.99053759 309.18505168 480.80467343 C283.41703999 507.32444556 259.11728899 518.22296252 222.13533401 518.90403366 C204.08882026 519.04546228 186.13231328 518.30667776 168.12895525 517.11392272 C153.29596968 516.14900465 138.44647449 515.78423505 123.58978176 515.37369442 C100.35329711 514.71672115 77.229968 513.30198663 54 512 C54 455.24 54 398.48 54 340 C49.05 340 44.1 340 39 340 C39 342.31 39 344.62 39 347 C-10.83 347 -60.66 347 -112 347 C-112 281.99 -112 216.98 -112 150 C-109.69 150 -107.38 150 -105 150 C-105 145.38 -105 140.76 -105 136 C-107.31 136 -109.62 136 -112 136 C-112 130.72 -112 125.44 -112 120 C-109.69 120 -107.38 120 -105 120 C-105 115.05 -105 110.1 -105 105 C-107.31 105 -109.62 105 -112 105 C-112 89.82 -112 74.64 -112 59 C-75.04 59 -38.08 59 0 59 C0 39.53 0 20.06 0 0 Z " fill="#030202" transform="translate(142,0)"/>
<path d="M0 0 C0.98593879 0.00042423 1.97187758 0.00084846 2.98769331 0.00128555 C9.87485245 0.00429883 16.76201124 0.00779934 23.64916992 0.01171875 C24.51480517 0.0122097 25.38044042 0.01270065 26.27230704 0.01320648 C44.01487861 0.02366973 61.75743287 0.04410333 79.5 0.0625 C79.5 44.9425 79.5 89.8225 79.5 136.0625 C74.55 136.0625 69.6 136.0625 64.5 136.0625 C64.5 96.4625 64.5 56.8625 64.5 16.0625 C-19.65 16.0625 -103.8 16.0625 -190.5 16.0625 C-190.5 100.5425 -190.5 185.0225 -190.5 272.0625 C-128.79 272.0625 -67.08 272.0625 -3.5 272.0625 C-3.5 249.6225 -3.5 227.1825 -3.5 204.0625 C18.94 204.0625 41.38 204.0625 64.5 204.0625 C64.5 196.4725 64.5 188.8825 64.5 181.0625 C69.45 181.0625 74.4 181.0625 79.5 181.0625 C82.38660595 199.32842628 82.43751284 214.60955912 71.46934223 230.20548534 C65.24127408 238.52343317 58.2699898 246.06813642 50.99609375 253.47265625 C50.23344987 254.26284692 49.47080598 255.05303759 48.68505168 255.86717343 C22.91703999 282.38694556 -1.38271101 293.28546252 -38.36466599 293.96653366 C-56.41117974 294.10796228 -74.36768672 293.36917776 -92.37104475 292.17642272 C-104.84806583 291.36476528 -117.32879905 290.98818042 -129.82586467 290.63547599 C-155.41314963 289.90419067 -180.95351246 288.66612597 -206.5 287.0625 C-206.53101713 260.77083919 -206.55110832 234.47917657 -206.5625 208.1875 C-206.5629343 207.2138619 -206.56336861 206.24022381 -206.56381607 205.23708153 C-206.58666416 152.5933384 -206.51810663 99.95400052 -206 47.3125 C-205.98804218 46.09654396 -205.97608437 44.88058792 -205.96376419 43.62778473 C-205.82303335 29.43919475 -205.66989324 15.25077066 -205.5 1.0625 C-190.43769292 0.87731289 -175.37518561 0.71370819 -160.3125 0.5625 C-159.13033905 0.55062275 -157.9481781 0.5387455 -156.73019409 0.52650833 C-104.48710148 0.00886887 -52.24525231 -0.0231426 0 0 Z " fill="#010100" transform="translate(402.5,224.9375)"/>
<path d="M0 0 C4.95 0 9.9 0 15 0 C15 79.86 15 159.72 15 242 C59.55 242 104.1 242 150 242 C150 211.97 150 181.94 150 151 C150.33 151 150.66 151 151 151 C151 188.62 151 226.24 151 265 C145.72 265 140.44 265 135 265 C135 267.31 135 269.62 135 272 C85.17 272 35.34 272 -16 272 C-16 206.99 -16 141.98 -16 75 C-13.69 75 -11.38 75 -9 75 C-9 70.38 -9 65.76 -9 61 C-11.31 61 -13.62 61 -16 61 C-16 55.72 -16 50.44 -16 45 C-13.69 45 -11.38 45 -9 45 C-9 40.05 -9 35.1 -9 30 C-6.03 30 -3.06 30 0 30 C0 20.1 0 10.2 0 0 Z " fill="#DA8B9E" transform="translate(46,75)"/>
<path d="M0 0 C4.62 0 9.24 0 14 0 C14 79.53 14 159.06 14 241 C70.76 241 127.52 241 186 241 C186 223.51 186 206.02 186 188 C186.33 188 186.66 188 187 188 C187 210.44 187 232.88 187 256 C125.29 256 63.58 256 0 256 C0 171.52 0 87.04 0 0 Z " fill="#EEC079" transform="translate(212,241)"/>
<path d="M0 0 C4.95 0 9.9 0 15 0 C15 60.06 15 120.12 15 182 C59.55 182 104.1 182 150 182 C150.33 186.95 150.66 191.9 151 197 C101.17 197 51.34 197 0 197 C0 131.99 0 66.98 0 0 Z " fill="#000000" transform="translate(30,150)"/>
<path d="M0 0 C65.01 0 130.02 0 197 0 C197 4.95 197 9.9 197 15 C131.99 15 66.98 15 0 15 C0 10.05 0 5.1 0 0 Z " fill="#080804" transform="translate(240,362)"/>
<path d="M0 0 C64.68 0 129.36 0 196 0 C196 4.95 196 9.9 196 15 C131.32 15 66.64 15 0 15 C0 10.05 0 5.1 0 0 Z " fill="#020201" transform="translate(241,316)"/>
<path d="M0 0 C64.68 0 129.36 0 196 0 C196 4.95 196 9.9 196 15 C131.32 15 66.64 15 0 15 C0 10.05 0 5.1 0 0 Z " fill="#020201" transform="translate(241,271)"/>
<path d="M0 0 C10.23 0 20.46 0 31 0 C31 24.75 31 49.5 31 75 C20.77 75 10.54 75 0 75 C0 50.25 0 25.5 0 0 Z " fill="#9DB5F3" transform="translate(158,15)"/>
<path d="M0 0 C44.55 0 89.1 0 135 0 C135 4.95 135 9.9 135 15 C90.45 15 45.9 15 0 15 C0 10.05 0 5.1 0 0 Z " fill="#000000" transform="translate(241,452)"/>
<path d="M0 0 C44.55 0 89.1 0 135 0 C135 4.95 135 9.9 135 15 C90.45 15 45.9 15 0 15 C0 10.05 0 5.1 0 0 Z " fill="#030301" transform="translate(241,407)"/>
<path d="M0 0 C5.28 0 10.56 0 16 0 C16 19.8 16 39.6 16 60 C10.72 60 5.44 60 0 60 C0 40.2 0 20.4 0 0 Z " fill="#C2E3F8" transform="translate(173,15)"/>
<path d="M0 0 C13.53 0 27.06 0 41 0 C34.26170799 7.86134068 34.26170799 7.86134068 30.50390625 11.55859375 C29.29444336 12.75645508 29.29444336 12.75645508 28.06054688 13.97851562 C26.39911908 15.61396331 24.73766089 17.24938013 23.07617188 18.88476562 C18.7061596 23.21292623 14.50539609 27.60287469 10.4987793 32.26977539 C8.62426039 34.43376227 6.65309471 36.47992147 4.625 38.5 C3.62339844 39.50546875 3.62339844 39.50546875 2.6015625 40.53125 C1 42 1 42 0 42 C0 28.14 0 14.28 0 0 Z " fill="#E26949" transform="translate(414,444)"/>
<path d="M0 0 C4.95 0 9.9 0 15 0 C15 5.28 15 10.56 15 16 C10.05 15.67 5.1 15.34 0 15 C0 10.05 0 5.1 0 0 Z " fill="#000000" transform="translate(467,376)"/>
<path d="M0 0 C4.95 0 9.9 0 15 0 C15 4.95 15 9.9 15 15 C10.05 15.33 5.1 15.66 0 16 C0 10.72 0 5.44 0 0 Z " fill="#000000" transform="translate(30,120)"/>
</svg>
