<svg width="445" height="90" viewBox="0 0 445 90" fill="none" xmlns="http://www.w3.org/2000/svg">
<mask id="path-1-outside-1_134_68" maskUnits="userSpaceOnUse" x="10" y="7" width="420" height="47" fill="black">
<rect fill="white" x="10" y="7" width="420" height="47"/>
<path d="M31.62 24.86C30.18 27.68 31.62 24.86 28.32 31.04L27.66 32.78C28.98 32.36 30.54 32.18 32.46 31.94C36.12 31.58 36.42 31.64 38.7 32.96C41.04 34.28 41.82 34.94 43.62 37.58C45.36 40.16 45.12 42.2 42.9 44.12C39.24 47.36 33.96 49.28 26.88 49.34C23.76 49.4 21.78 49.1 20.94 48.56C19.26 47.54 19.56 47.3 21.12 46.46C22.68 45.62 22.8 45.74 23.94 46.46C24.54 46.76 25.14 47 25.86 47.12C27.18 47.48 34.32 47.18 37.14 41.84C38.52 38.78 35.28 33.32 28.32 34.34L24.48 35.24C23.94 35.24 21.24 35.48 23.94 30.74L26.16 25.04C26.22 24.8 26.28 24.5 25.86 24.44C20.58 24.02 19.8 23.9 18.54 23.66C17.1 23.36 15.9 22.76 14.82 22.04C12.66 20.48 10.5 20.9 12.54 19.22C14.52 17.54 15.42 18.14 17.94 19.4C19.32 20.12 20.46 21.02 26.28 21.26C27.78 21.32 28.26 21.2 28.26 19.4C28.26 18.44 29.34 12.8 29.88 12.2C31.08 11.06 35.4 9.08 36.24 9.08C36.66 9.02 36.84 9.26 37.02 9.68C37.2 10.04 37.14 10.7 36.84 11.78C35.7 15.38 33.12 21.8 33.3 21.98C33.78 22.1 39.06 21.2 42.18 21.26C42.84 21.38 44.76 18.44 45.84 18.5C46.86 18.5 49.62 22.52 49.86 22.58C51.6 25.4 46.74 24.8 45.24 25.04C44.52 25.22 43.08 24.86 41.04 24.86H31.62ZM99.72 25.76V27.8H101.76C102.84 27.8 103.86 27.92 105 28.22C106.14 28.58 106.62 28.82 106.62 29.12C106.62 29.36 105 29.78 101.76 30.26L99.9 30.56L99.36 34.58C99.06 37.34 98.76 38.96 98.64 39.26C98.58 39.62 99.66 40.52 102.18 41.66L105.9 43.46L103.62 43.58C102.12 43.64 101.04 43.58 100.44 43.34C99.84 43.16 99.36 43.04 99.06 43.34C98.82 43.52 98.34 44.24 97.62 45.5C96.24 47.9 94.26 48.92 90.06 48.5C86.16 48.08 83.7 47 82.74 45.08C81.66 43.16 81.78 41.6 83.34 40.28C84.96 39.02 85.5 38.9 89.04 38.36L91.32 38V33.26C91.32 27.98 92.4 20.24 92.64 19.82C92.88 19.34 93.36 19.58 94.14 19.82C94.8 20.06 95.76 20.48 96.54 21.02C97.32 21.5 98.16 22.04 98.7 22.52C99.42 23.3 99.84 24.38 99.72 25.76ZM90.72 41.54C90.72 39.62 85.2 43.16 86.52 45.5C86.76 45.92 87.24 45.92 87.84 45.62C89.04 45.02 90.72 42.5 90.72 41.54ZM150 15.86C150.06 15.38 151.92 13.7 152.94 13.52C153.48 13.46 154.68 13.4 156.54 13.4C169.98 12.86 177.3 12.68 179.46 14.12C182.34 15.98 177 19.94 171.96 21.92C171.48 21.98 169.08 23.06 168.42 22.22L171.42 16.64L152.58 15.86C150.9 15.5 150.06 16.22 150 15.86ZM171.66 39.32C174.06 39.32 175.56 39.2 176.16 38.84C177.42 38.06 178.62 38.84 176.82 40.7C174.96 42.56 173.22 43.4 171.6 43.4C169.98 43.64 155.76 44 151.2 42.8C146.7 41.54 144.36 38.48 146.94 36.32C148.26 35.24 148.98 35.78 150.42 36.74C155.46 40.16 163.74 39.32 171.66 39.32ZM234.3 30.75C234.85 31.65 235.15 32.6 235.15 33.7C235.15 34.8 235.15 35.45 235.05 35.85C234.95 36.25 234.75 36.6 234.45 36.9C233.85 37.65 231.4 40.4 228.5 41.8C227.05 42.5 225.9 42.9 224.9 42.9C223.95 42.9 222.95 42.55 221.9 41.85L220.3 40.75L222.25 40.3C224.9 39.55 226.8 39.85 227.95 35.75C228.6 33.45 227.2 31.25 226.65 29.55C226.5 29.1 226.3 28.65 226 28.65C225.75 28.65 224.9 28.65 223.55 28.8C222.2 28.95 220.55 29.4 218.55 30C216.6 30.6 215.25 30.95 214.5 30.95C212.95 30.95 210.95 29.55 210.75 29.1C210.55 28.65 212 27.25 212.9 27.75C213.35 28 214.2 27.95 215.45 27.45C217.95 26.45 222.6 25.35 226.05 25.8C229.55 26.25 233.15 28.9 234.3 30.75ZM267.45 15.8C267.85 15.15 268.15 14.85 268.55 14.85C269.1 14.85 272.95 17.6 273.6 18.55C273.9 19.05 274.05 20.8 274.05 23.75C274.05 29.75 273.7 29.7 278.75 26.95C284.65 23.7 285.95 22.95 285.95 22.6C285.95 21.5 287.2 19.65 288.1 19.7C290 19.7 292.5 22 292.5 23.8C292.5 24.45 291.6 24.95 289.8 25.4C286.3 26.2 275.15 31.75 274.6 32.55C273.9 33.7 270.95 35.45 272.1 40.55C272.55 42.4 274.75 44.45 278.25 44.55C282.95 44.65 284.25 44.55 285.1 44.3C285.95 43.95 286.5 43.85 286.8 43.85C287.4 43.85 289.55 44.9 289.75 45.4C289.8 45.9 288.55 47 287.2 47C285.7 47.1 276.3 46.45 273.9 46.4C265.05 46.25 264.9 40.35 264.9 38.9C264.9 37.45 265.7 35.65 266.9 33.95C267.5 33.15 268.1 32.4 268.75 31.75L270.6 29.95L269.55 28.8C268.1 27.05 267.3 24.15 267.05 20.1C266.95 17.85 267.05 16.45 267.45 15.8Z"/>
<path d="M316.84 50.52C316.385 50.065 316.125 49.48 316.125 49.155C316.125 48.765 316.905 48.05 318.53 47.14C321.65 45.255 326.59 40.12 329.515 35.83L332.115 31.93L330.1 30.24C328.735 29.005 328.02 28.16 327.825 27.575C327.695 26.925 326.72 26.145 325.225 25.235C323.665 24.26 322.95 23.48 323.08 22.895C323.21 22.765 323.405 22.635 323.73 22.635C324.38 22.635 327.11 24.065 327.11 24.585C327.11 25.235 333.22 28.16 334 27.965C334.78 27.705 338.355 20.165 340.045 15.03C340.89 12.43 341.41 10.935 341.735 10.415C342.385 9.505 343.88 9.83 345.375 11.195C346.74 12.56 346.74 12.625 346.545 15.42C346.285 18.41 342.645 29.2 340.63 32.97L339.265 35.505L342.385 37.065C344.4 38.04 345.895 38.625 346.805 38.755C348.755 38.95 350.705 39.73 351.55 40.705C352.07 41.225 352.2 41.55 352.07 41.875C350.835 43.045 344.985 41.16 340.825 38.235L338.42 36.61L336.34 38.95C334.78 40.705 333.155 42.59 331.53 44.735C328.345 48.96 327.5 49.155 323.6 51.04C321.585 52.015 320.35 52.47 319.96 52.47C319.115 52.47 317.815 51.56 316.84 50.52ZM422.79 15.355V16.72L415.12 17.045C411.285 17.24 409.14 17.435 408.62 17.825C408.1 18.15 407.84 19.255 407.84 20.88L407.97 25.04C408.035 25.365 408.1 25.56 408.165 25.56H408.62C409.27 25.365 410.18 25.3 411.415 25.3C412.65 25.3 413.3 25.04 413.365 24.585C413.365 23.48 416.16 21.725 417.525 21.725C418.825 21.725 420.58 23.09 421.88 24.65C422.465 25.365 422.79 26.015 422.79 26.6C422.79 28.42 420.645 29.265 416.225 29.135C414.015 29.07 412 29.135 410.115 29.33L407.71 29.85L408.035 35.57C408.295 39.275 408.49 41.42 408.685 42.33C409.075 44.02 411.09 45.125 412.52 45.58C413.235 45.84 414.275 45.97 415.705 46.035C419.995 46.165 422.53 45.71 423.83 44.605C424.415 44.085 424.74 43.89 424.935 43.955C425.455 44.02 428.77 45.97 428.185 47.985C427.6 50 425 50.325 421.88 50.325C418.825 50.325 415.51 50.065 412.455 49.545C409.335 49.025 407.84 48.7 404.135 45.515C400.43 42.395 398.74 39.86 398.48 34.725L398.285 30.825L392.89 30.63C388.34 30.435 387.235 30.305 385.545 29.07C384.7 28.42 384.31 28.03 384.57 27.835C384.765 27.64 386.845 27.575 390.94 27.64C399.065 27.77 397.895 28.485 398.74 22.7C399.65 16.85 399.78 17.565 396.075 17.11C394.32 16.85 393.15 16.72 392.5 16.72C391.395 16.46 390.875 16.135 389.12 14.705C388.34 14.055 387.885 13.6 388.015 13.405C388.145 13.34 390.16 13.405 394.06 13.795C398.025 14.12 402.25 14.12 407.125 13.795C411.935 13.405 414.275 13.015 414.275 12.43C414.275 11.91 414.6 11.325 415.185 10.675C417.655 7.945 422.79 13.47 422.79 15.355Z"/>
</mask>
<path d="M31.62 24.86C30.18 27.68 31.62 24.86 28.32 31.04L27.66 32.78C28.98 32.36 30.54 32.18 32.46 31.94C36.12 31.58 36.42 31.64 38.7 32.96C41.04 34.28 41.82 34.94 43.62 37.58C45.36 40.16 45.12 42.2 42.9 44.12C39.24 47.36 33.96 49.28 26.88 49.34C23.76 49.4 21.78 49.1 20.94 48.56C19.26 47.54 19.56 47.3 21.12 46.46C22.68 45.62 22.8 45.74 23.94 46.46C24.54 46.76 25.14 47 25.86 47.12C27.18 47.48 34.32 47.18 37.14 41.84C38.52 38.78 35.28 33.32 28.32 34.34L24.48 35.24C23.94 35.24 21.24 35.48 23.94 30.74L26.16 25.04C26.22 24.8 26.28 24.5 25.86 24.44C20.58 24.02 19.8 23.9 18.54 23.66C17.1 23.36 15.9 22.76 14.82 22.04C12.66 20.48 10.5 20.9 12.54 19.22C14.52 17.54 15.42 18.14 17.94 19.4C19.32 20.12 20.46 21.02 26.28 21.26C27.78 21.32 28.26 21.2 28.26 19.4C28.26 18.44 29.34 12.8 29.88 12.2C31.08 11.06 35.4 9.08 36.24 9.08C36.66 9.02 36.84 9.26 37.02 9.68C37.2 10.04 37.14 10.7 36.84 11.78C35.7 15.38 33.12 21.8 33.3 21.98C33.78 22.1 39.06 21.2 42.18 21.26C42.84 21.38 44.76 18.44 45.84 18.5C46.86 18.5 49.62 22.52 49.86 22.58C51.6 25.4 46.74 24.8 45.24 25.04C44.52 25.22 43.08 24.86 41.04 24.86H31.62ZM99.72 25.76V27.8H101.76C102.84 27.8 103.86 27.92 105 28.22C106.14 28.58 106.62 28.82 106.62 29.12C106.62 29.36 105 29.78 101.76 30.26L99.9 30.56L99.36 34.58C99.06 37.34 98.76 38.96 98.64 39.26C98.58 39.62 99.66 40.52 102.18 41.66L105.9 43.46L103.62 43.58C102.12 43.64 101.04 43.58 100.44 43.34C99.84 43.16 99.36 43.04 99.06 43.34C98.82 43.52 98.34 44.24 97.62 45.5C96.24 47.9 94.26 48.92 90.06 48.5C86.16 48.08 83.7 47 82.74 45.08C81.66 43.16 81.78 41.6 83.34 40.28C84.96 39.02 85.5 38.9 89.04 38.36L91.32 38V33.26C91.32 27.98 92.4 20.24 92.64 19.82C92.88 19.34 93.36 19.58 94.14 19.82C94.8 20.06 95.76 20.48 96.54 21.02C97.32 21.5 98.16 22.04 98.7 22.52C99.42 23.3 99.84 24.38 99.72 25.76ZM90.72 41.54C90.72 39.62 85.2 43.16 86.52 45.5C86.76 45.92 87.24 45.92 87.84 45.62C89.04 45.02 90.72 42.5 90.72 41.54ZM150 15.86C150.06 15.38 151.92 13.7 152.94 13.52C153.48 13.46 154.68 13.4 156.54 13.4C169.98 12.86 177.3 12.68 179.46 14.12C182.34 15.98 177 19.94 171.96 21.92C171.48 21.98 169.08 23.06 168.42 22.22L171.42 16.64L152.58 15.86C150.9 15.5 150.06 16.22 150 15.86ZM171.66 39.32C174.06 39.32 175.56 39.2 176.16 38.84C177.42 38.06 178.62 38.84 176.82 40.7C174.96 42.56 173.22 43.4 171.6 43.4C169.98 43.64 155.76 44 151.2 42.8C146.7 41.54 144.36 38.48 146.94 36.32C148.26 35.24 148.98 35.78 150.42 36.74C155.46 40.16 163.74 39.32 171.66 39.32ZM234.3 30.75C234.85 31.65 235.15 32.6 235.15 33.7C235.15 34.8 235.15 35.45 235.05 35.85C234.95 36.25 234.75 36.6 234.45 36.9C233.85 37.65 231.4 40.4 228.5 41.8C227.05 42.5 225.9 42.9 224.9 42.9C223.95 42.9 222.95 42.55 221.9 41.85L220.3 40.75L222.25 40.3C224.9 39.55 226.8 39.85 227.95 35.75C228.6 33.45 227.2 31.25 226.65 29.55C226.5 29.1 226.3 28.65 226 28.65C225.75 28.65 224.9 28.65 223.55 28.8C222.2 28.95 220.55 29.4 218.55 30C216.6 30.6 215.25 30.95 214.5 30.95C212.95 30.95 210.95 29.55 210.75 29.1C210.55 28.65 212 27.25 212.9 27.75C213.35 28 214.2 27.95 215.45 27.45C217.95 26.45 222.6 25.35 226.05 25.8C229.55 26.25 233.15 28.9 234.3 30.75ZM267.45 15.8C267.85 15.15 268.15 14.85 268.55 14.85C269.1 14.85 272.95 17.6 273.6 18.55C273.9 19.05 274.05 20.8 274.05 23.75C274.05 29.75 273.7 29.7 278.75 26.95C284.65 23.7 285.95 22.95 285.95 22.6C285.95 21.5 287.2 19.65 288.1 19.7C290 19.7 292.5 22 292.5 23.8C292.5 24.45 291.6 24.95 289.8 25.4C286.3 26.2 275.15 31.75 274.6 32.55C273.9 33.7 270.95 35.45 272.1 40.55C272.55 42.4 274.75 44.45 278.25 44.55C282.95 44.65 284.25 44.55 285.1 44.3C285.95 43.95 286.5 43.85 286.8 43.85C287.4 43.85 289.55 44.9 289.75 45.4C289.8 45.9 288.55 47 287.2 47C285.7 47.1 276.3 46.45 273.9 46.4C265.05 46.25 264.9 40.35 264.9 38.9C264.9 37.45 265.7 35.65 266.9 33.95C267.5 33.15 268.1 32.4 268.75 31.75L270.6 29.95L269.55 28.8C268.1 27.05 267.3 24.15 267.05 20.1C266.95 17.85 267.05 16.45 267.45 15.8Z" fill="#D58A48"/>
<path d="M316.84 50.52C316.385 50.065 316.125 49.48 316.125 49.155C316.125 48.765 316.905 48.05 318.53 47.14C321.65 45.255 326.59 40.12 329.515 35.83L332.115 31.93L330.1 30.24C328.735 29.005 328.02 28.16 327.825 27.575C327.695 26.925 326.72 26.145 325.225 25.235C323.665 24.26 322.95 23.48 323.08 22.895C323.21 22.765 323.405 22.635 323.73 22.635C324.38 22.635 327.11 24.065 327.11 24.585C327.11 25.235 333.22 28.16 334 27.965C334.78 27.705 338.355 20.165 340.045 15.03C340.89 12.43 341.41 10.935 341.735 10.415C342.385 9.505 343.88 9.83 345.375 11.195C346.74 12.56 346.74 12.625 346.545 15.42C346.285 18.41 342.645 29.2 340.63 32.97L339.265 35.505L342.385 37.065C344.4 38.04 345.895 38.625 346.805 38.755C348.755 38.95 350.705 39.73 351.55 40.705C352.07 41.225 352.2 41.55 352.07 41.875C350.835 43.045 344.985 41.16 340.825 38.235L338.42 36.61L336.34 38.95C334.78 40.705 333.155 42.59 331.53 44.735C328.345 48.96 327.5 49.155 323.6 51.04C321.585 52.015 320.35 52.47 319.96 52.47C319.115 52.47 317.815 51.56 316.84 50.52ZM422.79 15.355V16.72L415.12 17.045C411.285 17.24 409.14 17.435 408.62 17.825C408.1 18.15 407.84 19.255 407.84 20.88L407.97 25.04C408.035 25.365 408.1 25.56 408.165 25.56H408.62C409.27 25.365 410.18 25.3 411.415 25.3C412.65 25.3 413.3 25.04 413.365 24.585C413.365 23.48 416.16 21.725 417.525 21.725C418.825 21.725 420.58 23.09 421.88 24.65C422.465 25.365 422.79 26.015 422.79 26.6C422.79 28.42 420.645 29.265 416.225 29.135C414.015 29.07 412 29.135 410.115 29.33L407.71 29.85L408.035 35.57C408.295 39.275 408.49 41.42 408.685 42.33C409.075 44.02 411.09 45.125 412.52 45.58C413.235 45.84 414.275 45.97 415.705 46.035C419.995 46.165 422.53 45.71 423.83 44.605C424.415 44.085 424.74 43.89 424.935 43.955C425.455 44.02 428.77 45.97 428.185 47.985C427.6 50 425 50.325 421.88 50.325C418.825 50.325 415.51 50.065 412.455 49.545C409.335 49.025 407.84 48.7 404.135 45.515C400.43 42.395 398.74 39.86 398.48 34.725L398.285 30.825L392.89 30.63C388.34 30.435 387.235 30.305 385.545 29.07C384.7 28.42 384.31 28.03 384.57 27.835C384.765 27.64 386.845 27.575 390.94 27.64C399.065 27.77 397.895 28.485 398.74 22.7C399.65 16.85 399.78 17.565 396.075 17.11C394.32 16.85 393.15 16.72 392.5 16.72C391.395 16.46 390.875 16.135 389.12 14.705C388.34 14.055 387.885 13.6 388.015 13.405C388.145 13.34 390.16 13.405 394.06 13.795C398.025 14.12 402.25 14.12 407.125 13.795C411.935 13.405 414.275 13.015 414.275 12.43C414.275 11.91 414.6 11.325 415.185 10.675C417.655 7.945 422.79 13.47 422.79 15.355Z" fill="#5E9DD0"/>
<path d="M31.62 24.86V23.36H30.7017L30.2841 24.1778L31.62 24.86ZM28.32 31.04L26.9968 30.3335L26.9516 30.4182L26.9175 30.508L28.32 31.04ZM27.66 32.78L26.2575 32.248L25.1565 35.1507L28.1148 34.2094L27.66 32.78ZM32.46 31.94L32.3132 30.4472L32.2935 30.4491L32.2739 30.4516L32.46 31.94ZM38.7 32.96L37.9484 34.2581L37.9557 34.2623L37.963 34.2665L38.7 32.96ZM43.62 37.58L44.8636 36.7413L44.8593 36.735L43.62 37.58ZM42.9 44.12L41.9188 42.9855L41.9122 42.9911L41.9057 42.9969L42.9 44.12ZM26.88 49.34L26.8673 47.8401L26.8592 47.8401L26.8512 47.8403L26.88 49.34ZM20.94 48.56L21.7511 47.2982L21.7349 47.2878L21.7185 47.2778L20.94 48.56ZM21.12 46.46L21.8312 47.7807V47.7807L21.12 46.46ZM23.94 46.46L23.139 47.7282L23.2023 47.7682L23.2692 47.8016L23.94 46.46ZM25.86 47.12L26.2547 45.6729L26.1815 45.6529L26.1066 45.6404L25.86 47.12ZM37.14 41.84L38.4664 42.5405L38.4882 42.4992L38.5074 42.4567L37.14 41.84ZM28.32 34.34L28.1025 32.8559L28.0396 32.8651L27.9777 32.8796L28.32 34.34ZM24.48 35.24V36.74H24.6534L24.8223 36.7004L24.48 35.24ZM23.94 30.74L25.2434 31.4824L25.2978 31.3869L25.3377 31.2844L23.94 30.74ZM26.16 25.04L27.5577 25.5844L27.5922 25.4959L27.6152 25.4038L26.16 25.04ZM25.86 24.44L26.0721 22.9551L26.0257 22.9484L25.9789 22.9447L25.86 24.44ZM18.54 23.66L18.2341 25.1285L18.2467 25.1311L18.2593 25.1335L18.54 23.66ZM14.82 22.04L13.9418 23.256L13.9646 23.2725L13.988 23.2881L14.82 22.04ZM12.54 19.22L13.4936 20.3779L13.5021 20.3709L13.5105 20.3638L12.54 19.22ZM17.94 19.4L18.6339 18.0701L18.6224 18.0641L18.6108 18.0584L17.94 19.4ZM26.28 21.26L26.2182 22.7587L26.22 22.7588L26.28 21.26ZM29.88 12.2L28.8469 11.1125L28.8043 11.1529L28.7651 11.1966L29.88 12.2ZM36.24 9.08V10.58H36.3466L36.4521 10.5649L36.24 9.08ZM37.02 9.68L35.6413 10.2709L35.6586 10.3114L35.6784 10.3508L37.02 9.68ZM36.84 11.78L38.27 12.2328L38.2781 12.2073L38.2853 12.1815L36.84 11.78ZM33.3 21.98L32.2393 23.0406L32.5331 23.3344L32.9362 23.4352L33.3 21.98ZM42.18 21.26L42.4483 19.7842L42.3295 19.7626L42.2088 19.7603L42.18 21.26ZM45.84 18.5L45.7568 19.9977L45.7984 20H45.84V18.5ZM49.86 22.58L51.1366 21.7923L50.816 21.2728L50.2238 21.1248L49.86 22.58ZM45.24 25.04L45.003 23.5588L44.939 23.5691L44.8762 23.5848L45.24 25.04ZM31.62 24.86L30.2841 24.1778C28.8411 27.0037 30.3457 24.0619 26.9968 30.3335L28.32 31.04L29.6432 31.7465C32.8943 25.6581 31.5189 28.3563 32.9559 25.5422L31.62 24.86ZM28.32 31.04L26.9175 30.508L26.2575 32.248L27.66 32.78L29.0625 33.312L29.7225 31.572L28.32 31.04ZM27.66 32.78L28.1148 34.2094C29.2718 33.8413 30.668 33.6757 32.6461 33.4284L32.46 31.94L32.2739 30.4516C30.412 30.6843 28.6882 30.8787 27.2052 31.3506L27.66 32.78ZM32.46 31.94L32.6068 33.4328C34.4995 33.2466 35.2714 33.2039 35.8531 33.3C36.3617 33.3839 36.7818 33.5827 37.9484 34.2581L38.7 32.96L39.4516 31.6619C38.3382 31.0173 37.4683 30.5261 36.3419 30.34C35.2886 30.1661 34.0805 30.2734 32.3132 30.4472L32.46 31.94ZM38.7 32.96L37.963 34.2665C39.1118 34.9145 39.7648 35.3397 40.3432 35.8754C40.9277 36.4169 41.4961 37.1276 42.3807 38.425L43.62 37.58L44.8593 36.735C43.944 35.3924 43.2223 34.4531 42.3818 33.6746C41.5352 32.8903 40.6282 32.3255 39.437 31.6535L38.7 32.96ZM43.62 37.58L42.3764 38.4187C43.1381 39.5481 43.3198 40.3455 43.2543 40.9307C43.1906 41.5002 42.8583 42.1729 41.9188 42.9855L42.9 44.12L43.8812 45.2545C45.1617 44.1471 46.0594 42.8398 46.2357 41.2643C46.4102 39.7045 45.8419 38.1919 44.8636 36.7413L43.62 37.58ZM42.9 44.12L41.9057 42.9969C38.5817 45.9395 33.6827 47.7823 26.8673 47.8401L26.88 49.34L26.8927 50.8399C34.2373 50.7777 39.8983 48.7805 43.8943 45.2431L42.9 44.12ZM26.88 49.34L26.8512 47.8403C25.3378 47.8694 24.1456 47.8098 23.2577 47.6888C22.3232 47.5613 21.887 47.3856 21.7511 47.2982L20.94 48.56L20.1289 49.8218C20.833 50.2744 21.8068 50.5187 22.8523 50.6612C23.9445 50.8102 25.3022 50.8706 26.9088 50.8397L26.88 49.34ZM20.94 48.56L21.7185 47.2778C21.5256 47.1607 21.3787 47.0653 21.2679 46.987C21.1539 46.9063 21.1022 46.8604 21.0869 46.8454C21.0659 46.825 21.1368 46.8862 21.2044 47.0297C21.2411 47.1077 21.2784 47.2133 21.2968 47.343C21.3155 47.4752 21.3116 47.6115 21.2844 47.7439C21.2307 48.0057 21.1063 48.1637 21.0608 48.2153C21.0174 48.2647 21.0019 48.2674 21.064 48.2235C21.1207 48.1833 21.2092 48.1272 21.3449 48.0489C21.4788 47.9717 21.6378 47.8848 21.8312 47.7807L21.12 46.46L20.4089 45.1393C20.0357 45.3402 19.6405 45.5557 19.3311 45.7746C19.094 45.9424 18.5025 46.3762 18.3456 47.1411C18.1565 48.063 18.7047 48.7129 18.9931 48.994C19.3086 49.3014 19.7329 49.5819 20.1615 49.8422L20.94 48.56ZM21.12 46.46L21.8312 47.7807C22.2162 47.5734 22.4444 47.4631 22.5973 47.4043C22.739 47.3497 22.7216 47.3776 22.6263 47.3738C22.5204 47.3694 22.4749 47.3331 22.5593 47.3759C22.6755 47.4348 22.8204 47.527 23.139 47.7282L23.94 46.46L24.741 45.1918C24.4896 45.033 24.192 44.8402 23.9163 44.7003C23.6089 44.5444 23.2221 44.3956 22.7487 44.3762C22.2859 44.3574 21.8747 44.4678 21.5196 44.6045C21.1756 44.7369 20.8039 44.9266 20.4089 45.1393L21.12 46.46ZM23.94 46.46L23.2692 47.8016C23.9462 48.1402 24.6942 48.4464 25.6134 48.5996L25.86 47.12L26.1066 45.6404C25.5858 45.5536 25.1338 45.3798 24.6108 45.1184L23.94 46.46ZM25.86 47.12L25.4653 48.5671C26.0414 48.7243 26.9369 48.7586 27.8842 48.6944C28.8832 48.6267 30.1007 48.4383 31.3724 48.0531C33.8988 47.2877 36.8037 45.689 38.4664 42.5405L37.14 41.84L35.8136 41.1395C34.6563 43.331 32.5812 44.5523 30.5026 45.1819C29.4718 45.4942 28.4805 45.6471 27.6814 45.7012C27.2825 45.7283 26.9428 45.7299 26.6805 45.7173C26.5495 45.7109 26.4447 45.7013 26.3661 45.6912C26.283 45.6804 26.2499 45.6716 26.2547 45.6729L25.86 47.12ZM37.14 41.84L38.5074 42.4567C39.51 40.2336 38.7564 37.4734 36.9556 35.5382C35.0834 33.5262 32.027 32.2807 28.1025 32.8559L28.32 34.34L28.5375 35.8241C31.573 35.3793 33.6166 36.3538 34.7594 37.5818C35.9736 38.8866 36.15 40.3864 35.7726 41.2233L37.14 41.84ZM28.32 34.34L27.9777 32.8796L24.1377 33.7796L24.48 35.24L24.8223 36.7004L28.6623 35.8004L28.32 34.34ZM24.48 35.24V33.74C24.2507 33.74 24.1704 33.7481 24.0535 33.7271C23.9465 33.7079 24.0693 33.7022 24.1889 33.8594C24.3281 34.0424 24.2126 34.1071 24.2848 33.7134C24.3596 33.3055 24.607 32.5996 25.2434 31.4824L23.94 30.74L22.6366 29.9976C21.923 31.2504 21.4954 32.292 21.334 33.1722C21.1699 34.0666 21.2569 34.9601 21.8011 35.6756C22.3257 36.3653 23.056 36.5959 23.5228 36.6798C23.9796 36.7619 24.4393 36.74 24.48 36.74V35.24ZM23.94 30.74L25.3377 31.2844L27.5577 25.5844L26.16 25.04L24.7623 24.4956L22.5423 30.1956L23.94 30.74ZM26.16 25.04L27.6152 25.4038C27.628 25.3525 27.7856 24.8343 27.6394 24.286C27.5479 23.9432 27.3466 23.5971 27.006 23.3356C26.689 23.0921 26.3453 22.9941 26.0721 22.9551L25.86 24.44L25.6479 25.9249C25.5847 25.9159 25.391 25.8779 25.179 25.715C24.9434 25.5342 24.8021 25.2893 24.7406 25.059C24.6878 24.8609 24.7037 24.7124 24.7081 24.6756C24.7128 24.6361 24.7189 24.6196 24.7048 24.6762L26.16 25.04ZM25.86 24.44L25.9789 22.9447C20.6972 22.5246 19.9913 22.4095 18.8207 22.1865L18.54 23.66L18.2593 25.1335C19.6087 25.3905 20.4628 25.5154 25.7411 25.9353L25.86 24.44ZM18.54 23.66L18.8459 22.1915C17.6442 21.9412 16.6217 21.4383 15.6521 20.7919L14.82 22.04L13.988 23.2881C15.1783 24.0817 16.5558 24.7788 18.2341 25.1285L18.54 23.66ZM14.82 22.04L15.6982 20.824C15.0367 20.3462 14.3889 20.0302 13.8637 19.8019C13.61 19.6916 13.3594 19.5912 13.1845 19.5189C12.9868 19.4372 12.8809 19.3893 12.8183 19.3554C12.7359 19.3109 12.8561 19.3571 12.9866 19.5277C13.1789 19.7789 13.2733 20.1382 13.1941 20.4846C13.1387 20.7265 13.0278 20.8221 13.0975 20.7416C13.1506 20.6802 13.2677 20.5639 13.4936 20.3779L12.54 19.22L11.5864 18.0621C11.3023 18.2961 11.0406 18.5341 10.8299 18.7775C10.6356 19.0017 10.3756 19.3523 10.2697 19.8154C10.1398 20.383 10.282 20.9298 10.6041 21.3508C10.8645 21.6911 11.1966 21.8891 11.3917 21.9946C11.6066 22.1107 11.8438 22.2109 12.0384 22.2914C12.2559 22.3813 12.4468 22.4572 12.6675 22.5531C13.0911 22.7373 13.5233 22.9538 13.9418 23.256L14.82 22.04ZM12.54 19.22L13.5105 20.3638C14.3439 19.6566 14.6551 19.6716 14.8532 19.6961C15.0333 19.7184 15.2879 19.792 15.7062 19.9765C16.1322 20.1644 16.6075 20.4108 17.2692 20.7416L17.94 19.4L18.6108 18.0584C18.0125 17.7592 17.4303 17.4581 16.917 17.2317C16.3958 17.0018 15.8292 16.7941 15.2218 16.7189C13.8449 16.5484 12.7161 17.1034 11.5695 18.0762L12.54 19.22ZM17.94 19.4L17.2462 20.7299C17.861 21.0507 18.6596 21.5525 20.0257 21.9502C21.3727 22.3424 23.2462 22.6362 26.2182 22.7587L26.28 21.26L26.3418 19.7613C23.4938 19.6438 21.8873 19.3676 20.8643 19.0698C19.8604 18.7775 19.399 18.4693 18.6339 18.0701L17.94 19.4ZM26.28 21.26L26.22 22.7588C26.5942 22.7738 27.0139 22.7839 27.4022 22.737C27.7998 22.6889 28.3137 22.5657 28.773 22.196C29.2503 21.8119 29.491 21.3068 29.6134 20.8356C29.7294 20.3889 29.76 19.8949 29.76 19.4H28.26H26.76C26.76 19.5938 26.7534 19.7449 26.7427 19.8625C26.7318 19.9811 26.7181 20.049 26.7098 20.0813C26.6953 20.137 26.7222 19.9956 26.892 19.859C27.0438 19.7368 27.1565 19.7448 27.0422 19.7587C26.9897 19.765 26.9087 19.7703 26.7856 19.7712C26.6634 19.772 26.5186 19.7683 26.34 19.7612L26.28 21.26ZM28.26 19.4H29.76C29.76 19.4009 29.7604 19.3701 29.7668 19.2951C29.7728 19.2252 29.7824 19.1348 29.7961 19.0237C29.8236 18.8016 29.8648 18.5203 29.9177 18.1956C30.0233 17.5471 30.1709 16.7559 30.3354 15.9737C30.5006 15.1881 30.6783 14.4332 30.8427 13.8504C30.9256 13.5567 30.9984 13.3306 31.0574 13.1755C31.144 12.9478 31.1376 13.0449 30.9949 13.2034L29.88 12.2L28.7651 11.1966C28.4874 11.5051 28.3291 11.9097 28.2533 12.109C28.1499 12.3809 28.0498 12.7014 27.9554 13.0359C27.7654 13.7093 27.5719 14.5369 27.3996 15.3563C27.2266 16.1791 27.0704 17.0154 26.9567 17.7131C26.8512 18.3604 26.76 19.0165 26.76 19.4H28.26ZM29.88 12.2L30.9131 13.2875C31.0842 13.125 31.4571 12.8577 32.0236 12.5238C32.5648 12.2047 33.2037 11.8706 33.8414 11.5661C34.4797 11.2613 35.0954 10.9963 35.5878 10.8115C35.8353 10.7186 36.0345 10.6524 36.1801 10.6115C36.3646 10.5597 36.355 10.58 36.24 10.58V9.08V7.58C35.915 7.58 35.5867 7.66214 35.3695 7.72309C35.1134 7.79497 34.8279 7.89234 34.5334 8.00289C33.9421 8.2249 33.2453 8.52623 32.5486 8.85891C31.8513 9.19191 31.1327 9.56653 30.5002 9.93935C29.8929 10.2973 29.2758 10.705 28.8469 11.1125L29.88 12.2ZM36.24 9.08L36.4521 10.5649C36.4042 10.5718 36.2875 10.5807 36.1337 10.5404C35.9711 10.4978 35.8338 10.4177 35.7322 10.3289C35.6412 10.2492 35.6007 10.1817 35.5977 10.1768C35.5952 10.1726 35.6088 10.1952 35.6413 10.2709L37.02 9.68L38.3987 9.08911C38.3013 8.86174 38.1028 8.41682 37.7078 8.07113C37.2072 7.63311 36.5977 7.51366 36.0279 7.59507L36.24 9.08ZM37.02 9.68L35.6784 10.3508C35.5855 10.165 35.6365 10.0904 35.6156 10.3301C35.5972 10.5422 35.5343 10.8761 35.3947 11.3785L36.84 11.78L38.2853 12.1815C38.4457 11.6039 38.5628 11.0678 38.6044 10.5899C38.6435 10.1396 38.6345 9.55497 38.3616 9.00919L37.02 9.68ZM36.84 11.78L35.41 11.3272C34.8531 13.0856 33.9386 15.5499 33.1674 17.6442C32.7863 18.6791 32.4389 19.6276 32.198 20.33C32.0789 20.6773 31.9765 20.9914 31.9085 21.2359C31.8763 21.3517 31.8393 21.4957 31.8166 21.6373C31.8062 21.702 31.7883 21.8272 31.7914 21.9761C31.7929 22.0504 31.8003 22.1811 31.8398 22.3366C31.8754 22.4765 31.9703 22.7717 32.2393 23.0406L33.3 21.98L34.3607 20.9193C34.624 21.1827 34.7147 21.4692 34.7473 21.5974C34.7839 21.7413 34.7896 21.8574 34.7908 21.9141C34.7931 22.028 34.7797 22.1065 34.7786 22.1133C34.7744 22.1394 34.7755 22.1235 34.7989 22.0395C34.842 21.8844 34.9205 21.6393 35.0358 21.3031C35.2636 20.6387 35.5987 19.7234 35.9826 18.6808C36.7414 16.6201 37.6869 14.0744 38.27 12.2328L36.84 11.78ZM33.3 21.98L32.9362 23.4352C33.16 23.4912 33.37 23.491 33.4442 23.491C33.5571 23.4911 33.6768 23.4853 33.7905 23.4778C34.02 23.4626 34.3037 23.4346 34.6136 23.4009C35.2252 23.3343 36.0609 23.2311 36.9205 23.1328C38.7009 22.9291 40.7056 22.7319 42.1512 22.7597L42.18 21.26L42.2088 19.7603C40.5344 19.7281 38.3391 19.9509 36.5795 20.1522C35.6691 20.2564 34.8998 20.352 34.2889 20.4185C33.9876 20.4513 33.7556 20.4735 33.5923 20.4843C33.5097 20.4898 33.4636 20.491 33.4449 20.491C33.3875 20.491 33.5 20.4838 33.6638 20.5248L33.3 21.98ZM42.18 21.26L41.9117 22.7358C42.5462 22.8512 43.0504 22.5788 43.239 22.4686C43.4841 22.3255 43.7042 22.1441 43.8757 21.9914C44.2161 21.6885 44.6086 21.2744 44.9244 20.9518C45.2761 20.5926 45.573 20.3032 45.8244 20.1082C45.9478 20.0126 46.0186 19.9729 46.0417 19.962C46.0736 19.9469 45.9633 20.0092 45.7568 19.9977L45.84 18.5L45.9232 17.0023C45.4467 16.9758 45.0402 17.1169 44.7578 17.2506C44.4666 17.3885 44.205 17.5677 43.9862 17.7374C43.5532 18.0731 43.1265 18.4999 42.7806 18.8532C42.3989 19.2431 42.1202 19.5377 41.8812 19.7504C41.763 19.8556 41.7164 19.8837 41.7259 19.8781C41.7334 19.8738 41.7921 19.8393 41.8934 19.8095C41.9939 19.7798 42.1935 19.7379 42.4483 19.7842L42.18 21.26ZM45.84 18.5V20C45.5309 20 45.386 19.8721 45.4925 19.9397C45.5566 19.9803 45.6731 20.0691 45.8428 20.2271C46.1788 20.5398 46.579 20.9865 46.9923 21.4803C47.4021 21.9699 47.7838 22.4558 48.103 22.8546C48.256 23.0457 48.4049 23.2296 48.5276 23.3709C48.5868 23.4391 48.6616 23.5226 48.7405 23.5994C48.7787 23.6365 48.8415 23.6955 48.9211 23.7561C48.9589 23.7849 49.1738 23.9546 49.4962 24.0352L49.86 22.58L50.2238 21.1248C50.5312 21.2016 50.7262 21.3599 50.7394 21.3699C50.7944 21.4118 50.828 21.4448 50.8326 21.4492C50.8442 21.4605 50.834 21.4515 50.7928 21.404C50.7146 21.314 50.6006 21.174 50.4451 20.9798C50.1474 20.6079 49.7304 20.0776 49.2927 19.5547C48.8585 19.036 48.3625 18.4739 47.8866 18.031C47.6504 17.8112 47.382 17.5855 47.099 17.406C46.8584 17.2535 46.4042 17 45.84 17V18.5ZM49.86 22.58L48.5834 23.3677C48.9056 23.8898 48.5746 23.6705 48.8434 23.2758C48.9738 23.0845 49.0345 23.196 48.4762 23.3056C48.0151 23.396 47.431 23.4301 46.7888 23.4518C46.2344 23.4705 45.4998 23.4794 45.003 23.5588L45.24 25.04L45.477 26.5212C45.7302 26.4806 46.1656 26.4745 46.8899 26.4501C47.5265 26.4286 48.3299 26.3915 49.0538 26.2494C49.6805 26.1265 50.7237 25.8443 51.3228 24.9648C52.0604 23.882 51.6844 22.6802 51.1366 21.7923L49.86 22.58ZM45.24 25.04L44.8762 23.5848C44.8991 23.5791 44.839 23.5956 44.6141 23.5886C44.4015 23.5819 44.1371 23.5587 43.778 23.5243C43.084 23.4579 42.1433 23.36 41.04 23.36V24.86V26.36C41.9767 26.36 42.776 26.4421 43.492 26.5107C43.8379 26.5438 44.196 26.5769 44.5197 26.5871C44.831 26.5969 45.2209 26.5909 45.6038 26.4952L45.24 25.04ZM41.04 24.86V23.36H31.62V24.86V26.36H41.04V24.86ZM99.72 25.76L98.2256 25.6301L98.22 25.6949V25.76H99.72ZM99.72 27.8H98.22V29.3H99.72V27.8ZM105 28.22L105.452 26.7896L105.417 26.7787L105.382 26.7694L105 28.22ZM101.76 30.26L101.54 28.7762L101.531 28.7776L101.521 28.7791L101.76 30.26ZM99.9 30.56L99.6611 29.0791L98.5616 29.2565L98.4134 30.3603L99.9 30.56ZM99.36 34.58L97.8734 34.3803L97.8708 34.3991L97.8688 34.4179L99.36 34.58ZM98.64 39.26L97.2473 38.7029L97.1871 38.8535L97.1604 39.0134L98.64 39.26ZM102.18 41.66L102.833 40.3098L102.816 40.3013L102.798 40.2933L102.18 41.66ZM105.9 43.46L105.979 44.9579L106.553 42.1098L105.9 43.46ZM103.62 43.58L103.68 45.0788L103.689 45.0784L103.699 45.0779L103.62 43.58ZM100.44 43.34L100.997 41.9473L100.935 41.9225L100.871 41.9033L100.44 43.34ZM99.06 43.34L99.96 44.54L100.045 44.476L100.121 44.4007L99.06 43.34ZM97.62 45.5L98.9204 46.2477L98.9224 46.2442L97.62 45.5ZM90.06 48.5L89.8994 49.9914L89.9107 49.9926L90.06 48.5ZM82.74 45.08L84.0816 44.4092L84.0653 44.3765L84.0474 44.3446L82.74 45.08ZM83.34 40.28L82.4191 39.096L82.3947 39.115L82.3711 39.1349L83.34 40.28ZM89.04 38.36L89.2662 39.8429L89.2739 39.8416L89.04 38.36ZM91.32 38L91.5539 39.4816L92.82 39.2817V38H91.32ZM92.64 19.82L93.9424 20.5642L93.963 20.5281L93.9816 20.4908L92.64 19.82ZM94.14 19.82L94.6526 18.4103L94.6172 18.3974L94.5811 18.3863L94.14 19.82ZM96.54 21.02L95.6862 22.2533L95.7194 22.2763L95.7539 22.2975L96.54 21.02ZM98.7 22.52L99.8022 21.5026L99.7519 21.4481L99.6965 21.3989L98.7 22.52ZM86.52 45.5L85.2135 46.237L85.2176 46.2442L86.52 45.5ZM87.84 45.62L88.5108 46.9616V46.9616L87.84 45.62ZM99.72 25.76H98.22V27.8H99.72H101.22V25.76H99.72ZM99.72 27.8V29.3H101.76V27.8V26.3H99.72V27.8ZM101.76 27.8V29.3C102.716 29.3 103.608 29.4047 104.618 29.6706L105 28.22L105.382 26.7694C104.112 26.4353 102.964 26.3 101.76 26.3V27.8ZM105 28.22L104.548 29.6504C104.819 29.7359 105.034 29.8089 105.202 29.873C105.375 29.9385 105.473 29.9844 105.522 30.0108C105.582 30.0435 105.509 30.0154 105.409 29.9028C105.352 29.8394 105.277 29.739 105.218 29.5987C105.155 29.4532 105.12 29.2899 105.12 29.12H106.62H108.12C108.12 28.0472 107.244 27.5324 106.953 27.3742C106.551 27.156 106.022 26.9698 105.452 26.7896L105 28.22ZM106.62 29.12H105.12C105.12 28.6975 105.299 28.3982 105.414 28.2498C105.528 28.103 105.64 28.02 105.685 27.9888C105.774 27.9265 105.822 27.9142 105.761 27.9383C105.658 27.9792 105.436 28.0496 105.054 28.1417C104.307 28.3215 103.142 28.5389 101.54 28.7762L101.76 30.26L101.98 31.7438C103.618 31.5011 104.883 31.2685 105.756 31.0583C106.184 30.9554 106.569 30.8458 106.871 30.7255C107.013 30.669 107.213 30.5807 107.403 30.4476C107.499 30.381 107.649 30.2639 107.788 30.0843C107.928 29.9032 108.12 29.5725 108.12 29.12H106.62ZM101.76 30.26L101.521 28.7791L99.6611 29.0791L99.9 30.56L100.139 32.0409L101.999 31.7409L101.76 30.26ZM99.9 30.56L98.4134 30.3603L97.8734 34.3803L99.36 34.58L100.847 34.7797L101.387 30.7597L99.9 30.56ZM99.36 34.58L97.8688 34.4179C97.721 35.7774 97.5743 36.846 97.4518 37.6028C97.3904 37.982 97.3363 38.275 97.2928 38.4828C97.2405 38.7326 97.2218 38.7666 97.2473 38.7029L98.64 39.26L100.033 39.8171C100.118 39.6034 100.182 39.3224 100.229 39.0979C100.285 38.8313 100.347 38.4904 100.413 38.0822C100.546 37.264 100.699 36.1426 100.851 34.7421L99.36 34.58ZM98.64 39.26L97.1604 39.0134C97.085 39.4657 97.2111 39.8382 97.3132 40.056C97.4197 40.2835 97.5586 40.4688 97.679 40.6079C97.9202 40.8867 98.2339 41.1476 98.5706 41.3881C99.2562 41.8778 100.251 42.4339 101.562 43.0267L102.18 41.66L102.798 40.2933C101.589 39.7461 100.784 39.2822 100.314 38.9469C100.074 38.7749 99.9711 38.672 99.9479 38.6452C99.9361 38.6315 99.9807 38.6785 100.03 38.7834C100.074 38.8787 100.18 39.1443 100.12 39.5066L98.64 39.26ZM102.18 41.66L101.527 43.0102L105.247 44.8102L105.9 43.46L106.553 42.1098L102.833 40.3098L102.18 41.66ZM105.9 43.46L105.821 41.9621L103.541 42.0821L103.62 43.58L103.699 45.0779L105.979 44.9579L105.9 43.46ZM103.62 43.58L103.56 42.0812C102.838 42.1101 102.254 42.1083 101.798 42.0762C101.32 42.0426 101.082 41.9814 100.997 41.9473L100.44 43.34L99.8829 44.7327C100.398 44.9386 101 45.0274 101.587 45.0688C102.196 45.1117 102.902 45.1099 103.68 45.0788L103.62 43.58ZM100.44 43.34L100.871 41.9033C100.595 41.8205 100.164 41.6909 99.7341 41.6631C99.2541 41.6321 98.5637 41.715 97.9993 42.2793L99.06 43.34L100.121 44.4007C100.008 44.5135 99.8699 44.5897 99.7373 44.6283C99.6192 44.6627 99.5417 44.6569 99.5409 44.6569C99.5384 44.6567 99.5472 44.6572 99.5699 44.661C99.5926 44.6648 99.624 44.6711 99.6665 44.6812C99.7554 44.7023 99.8627 44.7328 100.009 44.7767L100.44 43.34ZM99.06 43.34L98.16 42.14C97.9445 42.3016 97.7744 42.5009 97.6637 42.6392C97.5368 42.7978 97.4054 42.9828 97.2719 43.1829C97.0044 43.5843 96.685 44.1129 96.3176 44.7558L97.62 45.5L98.9224 46.2442C99.275 45.6271 99.5556 45.1657 99.7681 44.847C99.8746 44.6872 99.9532 44.5797 100.006 44.5133C100.076 44.4266 100.056 44.4684 99.96 44.54L99.06 43.34ZM97.62 45.5L96.3196 44.7523C95.7485 45.7455 95.1321 46.3309 94.315 46.6752C93.4496 47.0399 92.1901 47.2055 90.2093 47.0074L90.06 48.5L89.9107 49.9926C92.1299 50.2145 93.9604 50.0801 95.48 49.4398C97.0479 48.7791 98.1115 47.6545 98.9204 46.2477L97.62 45.5ZM90.06 48.5L90.2206 47.0086C86.3676 46.5937 84.6637 45.5733 84.0816 44.4092L82.74 45.08L81.3984 45.7508C82.7363 48.4267 85.9524 49.5663 89.8994 49.9914L90.06 48.5ZM82.74 45.08L84.0474 44.3446C83.594 43.5387 83.4988 42.9916 83.5405 42.6237C83.5776 42.2955 83.7466 41.9009 84.3089 41.4251L83.34 40.28L82.3711 39.1349C81.3734 39.9791 80.7024 41.0245 80.5595 42.2863C80.4212 43.5084 80.806 44.7013 81.4326 45.8154L82.74 45.08ZM83.34 40.28L84.2609 41.464C85.0147 40.8778 85.3953 40.6525 85.9361 40.4757C86.5718 40.2679 87.45 40.1199 89.2662 39.8428L89.04 38.36L88.8138 36.8772C87.09 37.1401 85.9282 37.3221 85.0039 37.6243C83.9847 37.9575 83.2853 38.4222 82.4191 39.096L83.34 40.28ZM89.04 38.36L89.2739 39.8416L91.5539 39.4816L91.32 38L91.0861 36.5184L88.8061 36.8784L89.04 38.36ZM91.32 38H92.82V33.26H91.32H89.82V38H91.32ZM91.32 33.26H92.82C92.82 30.702 93.0831 27.5108 93.3805 24.8864C93.5286 23.579 93.6835 22.4281 93.8147 21.5854C93.8805 21.1623 93.9386 20.8285 93.9852 20.5961C94.0088 20.4783 94.0263 20.402 94.0373 20.3599C94.0651 20.2528 94.0416 20.3906 93.9424 20.5642L92.64 19.82L91.3376 19.0758C91.2084 19.3019 91.1483 19.5494 91.134 19.6043C91.1027 19.7244 91.0725 19.8626 91.0436 20.007C90.9851 20.2989 90.9195 20.6799 90.8504 21.124C90.7115 22.0156 90.5514 23.2085 90.3995 24.5486C90.0969 27.2192 89.82 30.538 89.82 33.26H91.32ZM92.64 19.82L93.9816 20.4908C93.9234 20.6072 93.7735 20.8192 93.4856 20.9498C93.2299 21.0658 93.0277 21.0416 93.007 21.0391C92.9902 21.0371 93.0237 21.0401 93.1692 21.0849C93.2354 21.1053 93.3072 21.1286 93.3991 21.1584C93.487 21.1869 93.5895 21.22 93.6989 21.2537L94.14 19.82L94.5811 18.3863C94.4955 18.36 94.4123 18.3331 94.3238 18.3045C94.2392 18.277 94.1436 18.2459 94.0514 18.2176C93.8801 18.1649 93.6323 18.0929 93.368 18.0609C93.0998 18.0284 92.6839 18.0192 92.2463 18.2177C91.7765 18.4308 91.4766 18.7928 91.2984 19.1492L92.64 19.82ZM94.14 19.82L93.6274 21.2297C94.2251 21.4471 95.0531 21.815 95.6862 22.2533L96.54 21.02L97.3938 19.7867C96.4669 19.145 95.3749 18.6729 94.6526 18.4103L94.14 19.82ZM96.54 21.02L95.7539 22.2975C96.5482 22.7863 97.2768 23.2619 97.7035 23.6411L98.7 22.52L99.6965 21.3989C99.0432 20.8181 98.0918 20.2137 97.3261 19.7425L96.54 21.02ZM98.7 22.52L97.5978 23.5374C98.0203 23.9951 98.3105 24.654 98.2256 25.6301L99.72 25.76L101.214 25.8899C101.369 24.106 100.82 22.6049 99.8022 21.5026L98.7 22.52ZM90.72 41.54H92.22C92.22 40.9065 91.9574 40.1646 91.2136 39.7515C90.6074 39.4149 89.9709 39.4722 89.5866 39.5483C88.7728 39.7095 87.9104 40.1935 87.2087 40.7349C86.4892 41.2901 85.7536 42.0479 85.2918 42.9258C84.8286 43.8064 84.5389 45.0411 85.2135 46.237L86.52 45.5L87.8265 44.763C87.8205 44.7524 87.8133 44.7425 87.817 44.6954C87.8219 44.6318 87.8495 44.5076 87.9469 44.3224C88.1489 43.9383 88.5458 43.4924 89.0413 43.1101C89.5546 42.714 89.9897 42.5267 90.1696 42.4911C90.2822 42.4688 90.0667 42.5462 89.7572 42.3743C89.3101 42.126 89.22 41.6935 89.22 41.54H90.72ZM86.52 45.5L85.2176 46.2442C85.5941 46.903 86.2329 47.2792 86.9452 47.3267C87.5513 47.3671 88.1024 47.1658 88.5108 46.9616L87.84 45.62L87.1692 44.2784C87.0875 44.3192 87.0406 44.3341 87.0266 44.3379C87.011 44.342 87.0555 44.3274 87.1448 44.3333C87.2419 44.3398 87.3836 44.3708 87.5308 44.4616C87.6793 44.5532 87.7723 44.6682 87.8224 44.7558L86.52 45.5ZM87.84 45.62L88.5108 46.9616C89.0275 46.7033 89.4941 46.2985 89.8718 45.9099C90.2656 45.5048 90.64 45.0367 90.9641 44.5676C91.2874 44.0997 91.5808 43.6015 91.7999 43.1284C91.9946 42.708 92.22 42.1222 92.22 41.54H90.72H89.22C89.22 41.4378 89.2354 41.527 89.0776 41.8678C88.9442 42.156 88.7426 42.5053 88.4959 42.8624C88.25 43.2183 87.9794 43.5527 87.7207 43.8188C87.4459 44.1015 87.2525 44.2367 87.1692 44.2784L87.84 45.62ZM150 15.86L148.512 15.6739L148.484 15.8909L148.52 16.1066L150 15.86ZM152.94 13.52L152.774 12.0292L152.727 12.0345L152.679 12.0428L152.94 13.52ZM156.54 13.4V14.9H156.57L156.6 14.8988L156.54 13.4ZM179.46 14.12L178.628 15.3681L178.637 15.3741L178.646 15.3801L179.46 14.12ZM171.96 21.92L172.146 23.4084L172.333 23.385L172.508 23.3161L171.96 21.92ZM168.42 22.22L167.099 21.5097L166.634 22.3746L167.241 23.1467L168.42 22.22ZM171.42 16.64L172.741 17.3503L173.876 15.2404L171.482 15.1413L171.42 16.64ZM152.58 15.86L152.266 17.3267L152.39 17.3534L152.518 17.3587L152.58 15.86ZM176.16 38.84L176.932 40.1262L176.941 40.1209L176.95 40.1154L176.16 38.84ZM176.82 40.7L177.881 41.7607L177.889 41.752L177.898 41.7431L176.82 40.7ZM171.6 43.4V41.9H171.49L171.38 41.9162L171.6 43.4ZM151.2 42.8L150.796 44.2444L150.807 44.2476L150.818 44.2506L151.2 42.8ZM146.94 36.32L145.99 35.1591L145.984 35.1644L145.977 35.1699L146.94 36.32ZM150.42 36.74L151.262 35.4987L151.252 35.4919L150.42 36.74ZM150 15.86L151.488 16.0461C151.468 16.2118 151.421 16.3249 151.403 16.3647C151.392 16.39 151.382 16.4079 151.377 16.4179C151.371 16.4281 151.368 16.4333 151.368 16.4334C151.368 16.4336 151.37 16.4303 151.375 16.4235C151.379 16.4168 151.386 16.4075 151.395 16.3956C151.414 16.3716 151.439 16.3407 151.472 16.3033C151.608 16.1469 151.819 15.9405 152.073 15.7275C152.326 15.5155 152.591 15.3231 152.828 15.182C153.091 15.0248 153.213 14.995 153.201 14.9972L152.94 13.52L152.679 12.0428C152.157 12.135 151.664 12.3826 151.29 12.6062C150.889 12.8457 150.494 13.137 150.147 13.4275C149.801 13.717 149.472 14.0319 149.211 14.3311C149.082 14.4791 148.948 14.6472 148.836 14.8246C148.75 14.9591 148.562 15.2708 148.512 15.6739L150 15.86ZM152.94 13.52L153.106 15.0108C153.561 14.9602 154.694 14.9 156.54 14.9V13.4V11.9C154.666 11.9 153.399 11.9598 152.774 12.0292L152.94 13.52ZM156.54 13.4L156.6 14.8988C163.331 14.6283 168.475 14.4507 172.203 14.5173C174.068 14.5506 175.531 14.6445 176.638 14.808C177.788 14.9777 178.375 15.1995 178.628 15.3681L179.46 14.12L180.292 12.8719C179.465 12.3205 178.327 12.0248 177.077 11.8401C175.784 11.6492 174.172 11.5519 172.257 11.5177C168.425 11.4493 163.189 11.6317 156.48 11.9012L156.54 13.4ZM179.46 14.12L178.646 15.3801C178.816 15.4899 178.808 15.5376 178.785 15.4803C178.758 15.4148 178.781 15.3876 178.761 15.4639C178.699 15.6995 178.41 16.1879 177.667 16.8688C176.239 18.1764 173.822 19.5769 171.412 20.5239L171.96 21.92L172.508 23.3161C175.138 22.2831 177.911 20.7136 179.693 19.0812C180.555 18.2921 181.376 17.318 181.663 16.2261C181.817 15.6387 181.824 14.9814 181.558 14.3357C181.295 13.698 180.824 13.2151 180.274 12.8599L179.46 14.12ZM171.96 21.92L171.774 20.4316C171.574 20.4565 171.373 20.5161 171.269 20.5471C171.138 20.586 170.982 20.6363 170.841 20.6812C170.539 20.7776 170.225 20.8752 169.918 20.9464C169.596 21.0211 169.378 21.0436 169.257 21.0377C169.112 21.0306 169.371 21.0025 169.599 21.2933L168.42 22.22L167.241 23.1467C167.799 23.8575 168.605 24.0094 169.111 24.0341C169.641 24.0601 170.176 23.9664 170.597 23.8686C171.033 23.7673 171.449 23.6362 171.753 23.5394C171.915 23.4878 172.031 23.4504 172.126 23.4221C172.247 23.3858 172.226 23.3984 172.146 23.4084L171.96 21.92ZM168.42 22.22L169.741 22.9303L172.741 17.3503L171.42 16.64L170.099 15.9297L167.099 21.5097L168.42 22.22ZM171.42 16.64L171.482 15.1413L152.642 14.3613L152.58 15.86L152.518 17.3587L171.358 18.1387L171.42 16.64ZM152.58 15.86L152.894 14.3933C151.781 14.1547 150.925 14.276 150.373 14.3922C150.256 14.4169 150.126 14.4475 150.072 14.4595C149.987 14.4786 149.999 14.473 150.044 14.4686C150.05 14.468 150.356 14.4258 150.712 14.5982C150.921 14.6993 151.117 14.8591 151.263 15.0756C151.402 15.2807 151.457 15.4789 151.48 15.6134L150 15.86L148.52 16.1066C148.589 16.519 148.842 17.0262 149.406 17.299C149.827 17.5023 150.221 17.4658 150.34 17.4539C150.498 17.4382 150.649 17.4046 150.727 17.3871C150.837 17.3625 150.895 17.3481 150.992 17.3278C151.295 17.264 151.699 17.2053 152.266 17.3267L152.58 15.86ZM171.66 39.32V40.82C172.875 40.82 173.909 40.7901 174.734 40.7076C175.488 40.6321 176.317 40.4949 176.932 40.1262L176.16 38.84L175.388 37.5538C175.403 37.5451 175.182 37.6479 174.436 37.7224C173.761 37.7899 172.845 37.82 171.66 37.82V39.32ZM176.16 38.84L176.95 40.1154C177.093 40.0267 177.15 40.0377 177.091 40.0394C177.049 40.0406 176.683 40.03 176.411 39.6439C176.134 39.2509 176.273 38.923 176.249 38.9883C176.227 39.0462 176.114 39.2723 175.742 39.6569L176.82 40.7L177.898 41.7431C178.426 41.1977 178.838 40.6288 179.058 40.0417C179.275 39.462 179.373 38.6391 178.864 37.9161C178.359 37.2 177.57 37.0244 177.005 37.0406C176.423 37.0573 175.857 37.2633 175.37 37.5646L176.16 38.84ZM176.82 40.7L175.759 39.6393C174.05 41.3482 172.67 41.9 171.6 41.9V43.4V44.9C173.77 44.9 175.87 43.7718 177.881 41.7607L176.82 40.7ZM171.6 43.4L171.38 41.9162C170.705 42.0162 166.865 42.1702 162.513 42.14C160.366 42.1252 158.142 42.0656 156.182 41.937C154.192 41.8064 152.572 41.61 151.582 41.3494L151.2 42.8L150.818 44.2506C152.108 44.59 153.975 44.7986 155.985 44.9305C158.024 45.0644 160.311 45.1248 162.492 45.14C166.795 45.1698 170.875 45.0238 171.82 44.8838L171.6 43.4ZM151.2 42.8L151.604 41.3556C149.536 40.7764 148.199 39.8396 147.649 39.0441C147.389 38.6692 147.354 38.4056 147.374 38.245C147.392 38.0948 147.481 37.823 147.903 37.4701L146.94 36.32L145.977 35.1699C145.109 35.897 144.523 36.8177 144.395 37.8881C144.268 38.9481 144.616 39.9333 145.181 40.7509C146.281 42.3404 148.364 43.5636 150.796 44.2444L151.2 42.8ZM146.94 36.32L147.89 37.4809C148.128 37.2861 148.252 37.2371 148.286 37.2265C148.294 37.2241 148.282 37.223 148.301 37.2273C148.351 37.2387 148.466 37.2783 148.701 37.4147C148.941 37.5538 149.206 37.7332 149.588 37.9881L150.42 36.74L151.252 35.4919C150.914 35.2668 150.549 35.0187 150.208 34.8203C149.861 34.6192 149.444 34.4113 148.969 34.3027C147.847 34.0461 146.874 34.4359 145.99 35.1591L146.94 36.32ZM150.42 36.74L149.578 37.9812C152.442 39.9246 156.108 40.5881 159.872 40.8099C163.615 41.0305 167.816 40.82 171.66 40.82V39.32V37.82C167.584 37.82 163.685 38.0295 160.048 37.8151C156.432 37.6019 153.438 36.9754 151.262 35.4988L150.42 36.74ZM234.3 30.75L235.58 29.9678L235.574 29.9581L234.3 30.75ZM235.05 35.85L236.505 36.2138V36.2138L235.05 35.85ZM234.45 36.9L233.389 35.8393L233.331 35.8981L233.279 35.963L234.45 36.9ZM228.5 41.8L227.848 40.4492V40.4492L228.5 41.8ZM221.9 41.85L221.05 43.0861L221.059 43.0921L221.068 43.0981L221.9 41.85ZM220.3 40.75L219.963 39.2884L216.641 40.0549L219.45 41.9861L220.3 40.75ZM222.25 40.3L222.587 41.7616L222.623 41.7533L222.658 41.7433L222.25 40.3ZM227.95 35.75L226.507 35.3421L226.506 35.3449L227.95 35.75ZM226.65 29.55L228.077 29.0882L228.073 29.0757L226.65 29.55ZM218.55 30L218.119 28.5632L218.109 28.5663L218.55 30ZM210.75 29.1L212.121 28.4908L212.121 28.4908L210.75 29.1ZM215.45 27.45L214.893 26.0573V26.0573L215.45 27.45ZM226.05 25.8L225.856 27.2874L225.859 27.2878L226.05 25.8ZM234.3 30.75L233.02 31.5322C233.44 32.2193 233.65 32.9013 233.65 33.7H235.15H236.65C236.65 32.2987 236.26 31.0807 235.58 29.9678L234.3 30.75ZM235.15 33.7H233.65C233.65 34.2603 233.65 34.6669 233.638 34.984C233.627 35.3142 233.605 35.4461 233.595 35.4862L235.05 35.85L236.505 36.2138C236.595 35.8539 236.623 35.4608 236.637 35.091C236.65 34.7081 236.65 34.2397 236.65 33.7H235.15ZM235.05 35.85L233.595 35.4862C233.563 35.6145 233.503 35.7257 233.389 35.8393L234.45 36.9L235.511 37.9607C235.997 37.4743 236.337 36.8855 236.505 36.2138L235.05 35.85ZM234.45 36.9L233.279 35.963C232.722 36.6585 230.442 39.1967 227.848 40.4492L228.5 41.8L229.152 43.1508C232.358 41.6033 234.978 38.6415 235.621 37.837L234.45 36.9ZM228.5 41.8L227.848 40.4492C226.425 41.1359 225.538 41.4 224.9 41.4V42.9V44.4C226.262 44.4 227.675 43.8641 229.152 43.1508L228.5 41.8ZM224.9 42.9V41.4C224.329 41.4 223.615 41.1906 222.732 40.6019L221.9 41.85L221.068 43.0981C222.285 43.9094 223.571 44.4 224.9 44.4V42.9ZM221.9 41.85L222.75 40.6139L221.15 39.5139L220.3 40.75L219.45 41.9861L221.05 43.0861L221.9 41.85ZM220.3 40.75L220.637 42.2116L222.587 41.7616L222.25 40.3L221.913 38.8384L219.963 39.2884L220.3 40.75ZM222.25 40.3L222.658 41.7433C223.304 41.5606 223.786 41.4722 224.459 41.3049C225.065 41.1542 225.742 40.9552 226.395 40.5905C227.813 39.7972 228.756 38.432 229.394 36.1551L227.95 35.75L226.506 35.3449C225.994 37.168 225.412 37.7028 224.93 37.972C224.633 38.1385 224.267 38.2614 223.735 38.3935C223.27 38.5091 222.521 38.6644 221.842 38.8567L222.25 40.3ZM227.95 35.75L229.393 36.1579C229.834 34.6009 229.557 33.1442 229.178 31.966C228.989 31.3768 228.761 30.8195 228.563 30.3407C228.356 29.8387 228.192 29.4447 228.077 29.0883L226.65 29.55L225.223 30.0117C225.383 30.5053 225.6 31.0238 225.79 31.4843C225.989 31.968 226.174 32.4232 226.322 32.884C226.618 33.8058 226.716 34.5991 226.507 35.3421L227.95 35.75ZM226.65 29.55L228.073 29.0757C227.992 28.8316 227.858 28.462 227.651 28.132C227.487 27.8715 226.971 27.15 226 27.15V28.65V30.15C225.672 30.15 225.425 30.0196 225.286 29.9114C225.221 29.8605 225.177 29.8139 225.153 29.785C225.128 29.7558 225.115 29.7356 225.112 29.7305C225.107 29.7235 225.12 29.7429 225.145 29.803C225.17 29.8602 225.197 29.9332 225.227 30.0243L226.65 29.55ZM226 28.65V27.15C225.716 27.15 224.807 27.1511 223.384 27.3092L223.55 28.8L223.716 30.2908C224.993 30.1489 225.784 30.15 226 30.15V28.65ZM223.55 28.8L223.384 27.3092C221.88 27.4763 220.106 27.9672 218.119 28.5633L218.55 30L218.981 31.4367C220.994 30.8328 222.52 30.4237 223.716 30.2908L223.55 28.8ZM218.55 30L218.109 28.5663C217.143 28.8636 216.353 29.0902 215.724 29.2417C215.069 29.3993 214.688 29.45 214.5 29.45V30.95V32.45C215.062 32.45 215.731 32.3257 216.426 32.1583C217.147 31.9848 218.007 31.7364 218.991 31.4337L218.55 30ZM214.5 30.95V29.45C214.108 29.45 213.491 29.2464 212.857 28.8879C212.562 28.7213 212.315 28.5502 212.147 28.4139C212.062 28.3451 212.014 28.2986 211.995 28.2786C211.952 28.2325 212.04 28.3103 212.121 28.4908L210.75 29.1L209.379 29.7092C209.51 30.0022 209.704 30.2222 209.815 30.3388C209.949 30.4814 210.102 30.6181 210.257 30.7439C210.569 30.9967 210.957 31.26 211.381 31.4996C212.184 31.9536 213.342 32.45 214.5 32.45V30.95ZM210.75 29.1L212.121 28.4908C212.291 28.8744 212.221 29.1947 212.194 29.2928C212.162 29.4078 212.123 29.4609 212.131 29.4488C212.144 29.4284 212.209 29.3477 212.323 29.2608C212.437 29.1735 212.519 29.1422 212.536 29.1377C212.547 29.1349 212.383 29.1786 212.172 29.0612L212.9 27.75L213.628 26.4388C212.967 26.0714 212.284 26.1026 211.776 26.2357C211.274 26.3672 210.838 26.6203 210.502 26.8767C210.166 27.1335 209.849 27.456 209.619 27.809C209.505 27.9836 209.379 28.2161 209.302 28.4918C209.231 28.7506 209.159 29.2131 209.379 29.7092L210.75 29.1ZM212.9 27.75L212.172 29.0612C212.77 29.3937 213.444 29.4335 214.029 29.3734C214.634 29.311 215.299 29.1258 216.007 28.8427L215.45 27.45L214.893 26.0573C214.351 26.2742 213.966 26.364 213.721 26.3891C213.456 26.4165 213.48 26.3563 213.628 26.4388L212.9 27.75ZM215.45 27.45L216.007 28.8427C218.381 27.8932 222.758 26.8833 225.856 27.2874L226.05 25.8L226.244 24.3126C222.442 23.8167 217.519 25.0068 214.893 26.0573L215.45 27.45ZM226.05 25.8L225.859 27.2878C227.326 27.4764 228.891 28.1433 230.246 29.0126C231.621 29.8941 232.611 30.8739 233.026 31.5419L234.3 30.75L235.574 29.9581C234.839 28.7761 233.454 27.5059 231.866 26.4874C230.259 25.4567 228.274 24.5736 226.241 24.3122L226.05 25.8ZM267.45 15.8L266.173 15.0139V15.0139L267.45 15.8ZM273.6 18.55L274.886 17.7783L274.863 17.7399L274.838 17.703L273.6 18.55ZM278.75 26.95L279.467 28.2674L279.474 28.2639L278.75 26.95ZM288.1 19.7L288.017 21.1977L288.058 21.2H288.1V19.7ZM289.8 25.4L290.134 26.8623L290.149 26.8589L290.164 26.8552L289.8 25.4ZM274.6 32.55L273.364 31.7002L273.34 31.7345L273.319 31.7701L274.6 32.55ZM272.1 40.55L270.637 40.88L270.64 40.8923L270.642 40.9045L272.1 40.55ZM278.25 44.55L278.207 46.0494L278.218 46.0497L278.25 44.55ZM285.1 44.3L285.523 45.739L285.599 45.7169L285.671 45.687L285.1 44.3ZM289.75 45.4L291.243 45.2507L291.221 45.0398L291.143 44.8429L289.75 45.4ZM287.2 47V45.5H287.15L287.1 45.5033L287.2 47ZM273.9 46.4L273.931 44.9003L273.925 44.9002L273.9 46.4ZM266.9 33.95L265.7 33.05L265.687 33.0673L265.675 33.085L266.9 33.95ZM268.75 31.75L267.704 30.6749L267.697 30.6821L267.689 30.6893L268.75 31.75ZM270.6 29.95L271.646 31.0251L272.688 30.0117L271.708 28.9386L270.6 29.95ZM269.55 28.8L268.395 29.757L268.418 29.7848L268.442 29.8114L269.55 28.8ZM267.05 20.1L265.551 20.1666L265.552 20.1795L265.553 20.1924L267.05 20.1ZM267.45 15.8L268.727 16.5861C268.812 16.4482 268.878 16.3514 268.93 16.2836C268.982 16.2148 269.005 16.1951 268.999 16.2002C268.991 16.2077 268.941 16.2501 268.849 16.2888C268.751 16.3302 268.646 16.35 268.55 16.35V14.85V13.35C267.91 13.35 267.392 13.6132 267.001 13.9623C266.657 14.2695 266.389 14.6614 266.173 15.0139L267.45 15.8ZM268.55 14.85V16.35C268.421 16.35 268.326 16.3312 268.284 16.3219C268.237 16.3113 268.206 16.3009 268.197 16.2978C268.182 16.2923 268.195 16.2959 268.245 16.3202C268.343 16.3679 268.496 16.4518 268.7 16.5762C269.104 16.8218 269.623 17.1709 270.157 17.5583C270.691 17.9449 271.218 18.3538 271.643 18.7145C271.856 18.8951 272.032 19.0546 272.166 19.1866C272.312 19.3309 272.363 19.3979 272.362 19.397L273.6 18.55L274.838 17.703C274.547 17.2784 274.036 16.8111 273.585 16.4277C273.088 16.0055 272.497 15.5488 271.918 15.1292C271.34 14.7103 270.752 14.3126 270.259 14.0128C270.015 13.8646 269.772 13.7263 269.552 13.6199C269.443 13.5671 269.316 13.5107 269.183 13.4644C269.082 13.4291 268.842 13.35 268.55 13.35V14.85ZM273.6 18.55L272.314 19.3217C272.251 19.2174 272.277 19.2109 272.326 19.4536C272.367 19.6586 272.408 19.9558 272.443 20.3603C272.513 21.1668 272.55 22.2929 272.55 23.75H274.05H275.55C275.55 22.257 275.512 21.0332 275.432 20.1022C275.392 19.6379 275.339 19.2195 275.268 18.8636C275.204 18.5453 275.099 18.1326 274.886 17.7783L273.6 18.55ZM274.05 23.75H272.55C272.55 25.1942 272.527 26.4008 272.577 27.2547C272.602 27.6858 272.649 28.1318 272.762 28.532C272.873 28.9245 273.1 29.4648 273.626 29.8462C274.185 30.2502 274.798 30.2772 275.252 30.2135C275.684 30.1528 276.111 29.9932 276.489 29.8272C277.242 29.4961 278.251 28.9296 279.467 28.2673L278.75 26.95L278.033 25.6327C276.724 26.3454 275.883 26.8164 275.282 27.0807C275.142 27.1421 275.035 27.1833 274.954 27.2099C274.914 27.223 274.884 27.2313 274.863 27.2365C274.842 27.2416 274.833 27.2428 274.835 27.2426C274.837 27.2423 275.1 27.2091 275.386 27.4163C275.641 27.6008 275.675 27.8076 275.649 27.7166C275.626 27.6335 275.593 27.4462 275.572 27.0813C275.529 26.3429 275.55 25.3058 275.55 23.75H274.05ZM278.75 26.95L279.474 28.2639C282.413 26.6445 284.242 25.6289 285.334 24.9737C285.871 24.6518 286.291 24.3807 286.589 24.1441C286.735 24.0277 286.913 23.8719 287.065 23.6766C287.211 23.4905 287.45 23.1186 287.45 22.6H285.95H284.45C284.45 22.1689 284.649 21.897 284.7 21.8316C284.758 21.757 284.789 21.7426 284.721 21.7965C284.59 21.9005 284.317 22.0857 283.791 22.4013C282.758 23.0211 280.987 24.0055 278.026 25.6361L278.75 26.95ZM285.95 22.6H287.45C287.45 22.6001 287.451 22.5662 287.467 22.4947C287.483 22.4254 287.51 22.3373 287.552 22.234C287.636 22.0244 287.761 21.7967 287.907 21.5918C288.058 21.3814 288.197 21.2434 288.287 21.1755C288.407 21.0848 288.304 21.2136 288.017 21.1977L288.1 19.7L288.183 18.2023C287.446 18.1614 286.849 18.5027 286.482 18.7792C286.085 19.0785 285.742 19.4624 285.468 19.8457C284.956 20.5601 284.45 21.6048 284.45 22.6H285.95ZM288.1 19.7V21.2C288.52 21.2 289.272 21.5061 289.992 22.1748C290.73 22.8588 291 23.5128 291 23.8H292.5H294C294 22.2872 293.02 20.8912 292.033 19.9752C291.029 19.0439 289.58 18.2 288.1 18.2V19.7ZM292.5 23.8H291C291 23.3134 291.364 23.2073 291.069 23.3793C290.807 23.5325 290.298 23.7292 289.436 23.9448L289.8 25.4L290.164 26.8552C291.102 26.6208 291.943 26.3425 292.581 25.9707C293.186 25.6177 294 24.9366 294 23.8H292.5ZM289.8 25.4L289.466 23.9377C287.521 24.3821 283.704 26.0518 280.442 27.6238C278.779 28.4255 277.2 29.2314 275.994 29.8924C275.393 30.2217 274.869 30.524 274.467 30.7773C274.268 30.903 274.08 31.0285 273.921 31.1479C273.812 31.2298 273.552 31.4266 273.364 31.7002L274.6 32.55L275.836 33.3998C275.717 33.5734 275.608 33.633 275.725 33.5454C275.791 33.4953 275.903 33.4187 276.068 33.3145C276.395 33.1081 276.859 32.8392 277.436 32.5232C278.584 31.8936 280.115 31.112 281.745 30.3262C285.071 28.7232 288.579 27.2178 290.134 26.8623L289.8 25.4ZM274.6 32.55L273.319 31.7701C273.235 31.9082 273.079 32.0633 272.627 32.5767C272.243 33.0119 271.764 33.5906 271.347 34.3369C270.48 35.8877 269.983 37.9796 270.637 40.88L272.1 40.55L273.563 40.22C273.067 38.0204 273.47 36.6873 273.966 35.8006C274.23 35.3281 274.547 34.9349 274.878 34.5593C275.14 34.2617 275.615 33.7668 275.881 33.3299L274.6 32.55ZM272.1 40.55L270.642 40.9045C271.283 43.5371 274.17 45.9341 278.207 46.0494L278.25 44.55L278.293 43.0506C275.33 42.966 273.817 41.2629 273.557 40.1955L272.1 40.55ZM278.25 44.55L278.218 46.0497C282.839 46.148 284.402 46.0688 285.523 45.739L285.1 44.3L284.677 42.861C284.098 43.0312 283.061 43.152 278.282 43.0503L278.25 44.55ZM285.1 44.3L285.671 45.687C286.039 45.5355 286.317 45.4487 286.512 45.4008C286.715 45.3514 286.803 45.35 286.8 45.35V43.85V42.35C286.224 42.35 285.467 42.5267 284.529 42.913L285.1 44.3ZM286.8 43.85V45.35C286.691 45.35 286.649 45.3315 286.721 45.3497C286.773 45.3631 286.856 45.3885 286.968 45.4298C287.193 45.5121 287.469 45.6337 287.744 45.7739C288.022 45.9156 288.261 46.0575 288.424 46.1723C288.463 46.1996 288.493 46.2223 288.515 46.2402C288.538 46.2585 288.547 46.2677 288.547 46.2677C288.547 46.2673 288.542 46.2629 288.535 46.2545C288.527 46.2463 288.515 46.2318 288.499 46.2113C288.472 46.1764 288.411 46.0905 288.357 45.9571L289.75 45.4L291.143 44.8429C290.999 44.484 290.761 44.2353 290.634 44.112C290.48 43.9634 290.311 43.8319 290.154 43.7214C289.839 43.4987 289.466 43.2844 289.106 43.1011C288.744 42.9163 288.357 42.7441 288.003 42.614C287.717 42.5086 287.245 42.35 286.8 42.35V43.85ZM289.75 45.4L288.257 45.5493C288.231 45.2875 288.297 45.1042 288.323 45.0421C288.352 44.9705 288.377 44.9424 288.366 44.9558C288.346 44.983 288.272 45.065 288.131 45.1647C287.84 45.3717 287.487 45.5 287.2 45.5V47V48.5C288.263 48.5 289.21 48.0783 289.869 47.6103C290.203 47.3725 290.517 47.0857 290.759 46.7661C290.946 46.5185 291.314 45.9627 291.243 45.2507L289.75 45.4ZM287.2 47L287.1 45.5033C286.825 45.5217 286.05 45.5058 284.89 45.4568C283.771 45.4096 282.388 45.3366 280.97 45.2585C278.16 45.1038 275.165 44.926 273.931 44.9003L273.9 46.4L273.869 47.8997C275.035 47.924 277.94 48.0962 280.805 48.254C282.224 48.3321 283.623 48.406 284.763 48.4541C285.862 48.5005 286.825 48.5283 287.3 48.4967L287.2 47ZM273.9 46.4L273.925 44.9002C269.865 44.8314 268.127 43.4738 267.32 42.2916C266.446 41.0123 266.4 39.5703 266.4 38.9H264.9H263.4C263.4 39.6796 263.429 41.9127 264.842 43.9834C266.323 46.1512 269.085 47.8186 273.875 47.8998L273.9 46.4ZM264.9 38.9H266.4C266.4 37.9154 266.986 36.4289 268.125 34.815L266.9 33.95L265.675 33.085C264.414 34.8711 263.4 36.9846 263.4 38.9H264.9ZM266.9 33.95L268.1 34.85C268.687 34.0673 269.237 33.3847 269.811 32.8107L268.75 31.75L267.689 30.6893C266.963 31.4153 266.313 32.2327 265.7 33.05L266.9 33.95ZM268.75 31.75L269.796 32.8251L271.646 31.0251L270.6 29.95L269.554 28.8749L267.704 30.6749L268.75 31.75ZM270.6 29.95L271.708 28.9386L270.658 27.7886L269.55 28.8L268.442 29.8114L269.492 30.9614L270.6 29.95ZM269.55 28.8L270.705 27.843C269.571 26.4741 268.792 23.9812 268.547 20.0076L267.05 20.1L265.553 20.1924C265.808 24.3188 266.629 27.6259 268.395 29.757L269.55 28.8ZM267.05 20.1L268.549 20.0334C268.5 18.933 268.503 18.0966 268.557 17.4811C268.584 17.1754 268.621 16.9509 268.66 16.7914C268.701 16.627 268.734 16.5755 268.727 16.5861L267.45 15.8L266.173 15.0139C265.782 15.6489 265.635 16.4547 265.568 17.2189C265.497 18.0284 265.5 19.017 265.551 20.1666L267.05 20.1ZM316.84 50.52L317.934 49.4941L317.918 49.4764L317.901 49.4593L316.84 50.52ZM318.53 47.14L319.263 48.4488L319.284 48.4367L319.306 48.4239L318.53 47.14ZM329.515 35.83L330.754 36.675L330.759 36.6685L330.763 36.662L329.515 35.83ZM332.115 31.93L333.363 32.762L334.108 31.6441L333.079 30.7807L332.115 31.93ZM330.1 30.24L329.094 31.3523L329.115 31.3712L329.136 31.3893L330.1 30.24ZM327.825 27.575L326.354 27.8692L326.372 27.9607L326.402 28.0493L327.825 27.575ZM325.225 25.235L324.43 26.507L324.438 26.5117L324.445 26.5163L325.225 25.235ZM323.08 22.895L322.019 21.8343L321.71 22.1432L321.616 22.5696L323.08 22.895ZM334 27.965L334.364 29.4202L334.42 29.4062L334.474 29.388L334 27.965ZM340.045 15.03L341.47 15.4989L341.472 15.4936L340.045 15.03ZM341.735 10.415L340.514 9.54314L340.488 9.58078L340.463 9.62L341.735 10.415ZM345.375 11.195L346.436 10.1343L346.412 10.1102L346.386 10.0873L345.375 11.195ZM346.545 15.42L348.039 15.5499L348.04 15.5372L348.041 15.5244L346.545 15.42ZM340.63 32.97L341.951 33.6812L341.953 33.6771L340.63 32.97ZM339.265 35.505L337.944 34.7938L337.211 36.1552L338.594 36.8466L339.265 35.505ZM342.385 37.065L341.714 38.4066L341.723 38.411L341.732 38.4152L342.385 37.065ZM346.805 38.755L346.593 40.2399L346.624 40.2444L346.656 40.2476L346.805 38.755ZM351.55 40.705L350.416 41.6874L350.452 41.7278L350.489 41.7657L351.55 40.705ZM352.07 41.875L353.102 42.9639L353.341 42.7376L353.463 42.4321L352.07 41.875ZM340.825 38.235L341.688 37.008L341.676 36.9999L341.665 36.9921L340.825 38.235ZM338.42 36.61L339.26 35.3671L338.171 34.6318L337.299 35.6135L338.42 36.61ZM336.34 38.95L335.219 37.9535V37.9535L336.34 38.95ZM331.53 44.735L330.334 43.8292L330.332 43.8321L331.53 44.735ZM323.6 51.04L322.947 49.6895L322.947 49.6898L323.6 51.04ZM316.84 50.52L317.901 49.4593C317.794 49.353 317.708 49.2268 317.654 49.1179C317.627 49.065 317.615 49.0307 317.612 49.0204C317.607 49.0015 317.625 49.0512 317.625 49.155H316.125H314.625C314.625 49.6465 314.798 50.1152 314.97 50.4596C315.16 50.8382 315.431 51.232 315.779 51.5807L316.84 50.52ZM316.125 49.155H317.625C317.625 49.3537 317.576 49.4988 317.546 49.572C317.53 49.6109 317.514 49.639 317.505 49.6558C317.495 49.6728 317.488 49.682 317.487 49.6832C317.487 49.6843 317.5 49.6658 317.537 49.6278C317.573 49.5906 317.624 49.5417 317.694 49.4814C317.988 49.2298 318.495 48.8788 319.263 48.4488L318.53 47.14L317.797 45.8312C316.94 46.3112 316.245 46.7727 315.742 47.2036C315.493 47.4173 315.25 47.658 315.057 47.924C314.888 48.1579 314.625 48.5906 314.625 49.155H316.125ZM318.53 47.14L319.306 48.4239C321.031 47.3815 323.152 45.5176 325.173 43.4304C327.211 41.3255 329.235 38.9034 330.754 36.675L329.515 35.83L328.276 34.985C326.87 37.0466 324.961 39.337 323.018 41.3434C321.058 43.3674 319.149 45.0135 317.754 45.8561L318.53 47.14ZM329.515 35.83L330.763 36.662L333.363 32.762L332.115 31.93L330.867 31.0979L328.267 34.9979L329.515 35.83ZM332.115 31.93L333.079 30.7807L331.064 29.0907L330.1 30.24L329.136 31.3893L331.151 33.0793L332.115 31.93ZM330.1 30.24L331.106 29.1277C330.447 28.5314 329.98 28.0602 329.666 27.691C329.51 27.5078 329.403 27.3641 329.334 27.2555C329.263 27.1442 329.246 27.0953 329.248 27.1007L327.825 27.575L326.402 28.0493C326.591 28.617 326.968 29.1504 327.382 29.6364C327.815 30.1448 328.388 30.7136 329.094 31.3523L330.1 30.24ZM327.825 27.575L329.296 27.2808C329.127 26.4345 328.507 25.7944 328.023 25.3724C327.48 24.8986 326.778 24.4241 326.005 23.9537L325.225 25.235L324.445 26.5163C325.167 26.9559 325.7 27.3264 326.051 27.6326C326.224 27.7844 326.322 27.8933 326.371 27.9587C326.423 28.0291 326.38 27.9962 326.354 27.8692L327.825 27.575ZM325.225 25.235L326.02 23.963C325.284 23.5027 324.847 23.1482 324.624 22.9052C324.35 22.6062 324.646 22.7638 324.544 23.2204L323.08 22.895L321.616 22.5696C321.384 23.6112 321.972 24.4513 322.413 24.9323C322.905 25.4693 323.606 25.9923 324.43 26.507L325.225 25.235ZM323.08 22.895L324.141 23.9557C324.115 23.981 324.055 24.0346 323.96 24.0782C323.862 24.1238 323.776 24.135 323.73 24.135V22.635V21.135C322.925 21.135 322.367 21.4867 322.019 21.8343L323.08 22.895ZM323.73 22.635V24.135C323.591 24.135 323.538 24.107 323.64 24.1369C323.712 24.1579 323.821 24.196 323.964 24.2548C324.249 24.3716 324.599 24.5401 324.938 24.7275C325.283 24.9183 325.57 25.1032 325.752 25.2445C325.847 25.3184 325.868 25.3462 325.851 25.3262C325.842 25.3153 325.796 25.2609 325.746 25.1655C325.701 25.077 325.61 24.8723 325.61 24.585H327.11H328.61C328.61 23.9448 328.241 23.5058 328.132 23.3776C327.963 23.1799 327.766 23.0107 327.595 22.8774C327.244 22.6043 326.809 22.3342 326.39 22.1024C325.965 21.8674 325.51 21.6459 325.101 21.4784C324.897 21.3949 324.686 21.3172 324.484 21.258C324.312 21.2077 324.031 21.135 323.73 21.135V22.635ZM327.11 24.585H325.61C325.61 25.153 325.908 25.5431 326 25.6601C326.135 25.8309 326.287 25.9705 326.409 26.0728C326.658 26.2829 326.97 26.4938 327.287 26.6897C327.931 27.0892 328.769 27.5347 329.608 27.9415C330.449 28.3494 331.329 28.737 332.066 29.0144C332.431 29.1518 332.789 29.273 333.104 29.3545C333.26 29.395 333.434 29.4332 333.609 29.4549C333.75 29.4724 334.042 29.5007 334.364 29.4202L334 27.965L333.636 26.5098C333.765 26.4775 333.864 26.4745 333.904 26.4743C333.951 26.4741 333.978 26.4776 333.979 26.4777C333.982 26.4781 333.973 26.477 333.949 26.4723C333.927 26.4677 333.896 26.4606 333.856 26.4503C333.687 26.4066 333.44 26.3262 333.123 26.2067C332.495 25.9702 331.701 25.6225 330.917 25.2422C330.131 24.8609 329.393 24.4654 328.867 24.1398C328.598 23.9732 328.427 23.8504 328.34 23.7769C328.293 23.7374 328.313 23.7477 328.357 23.8043C328.36 23.8072 328.61 24.0983 328.61 24.585H327.11ZM334 27.965L334.474 29.388C334.879 29.2531 335.148 28.9866 335.248 28.884C335.389 28.7406 335.517 28.5795 335.627 28.4286C335.849 28.1232 336.091 27.7333 336.338 27.3012C336.837 26.4292 337.429 25.2622 338.039 23.9635C339.259 21.3667 340.601 18.1399 341.47 15.4989L340.045 15.03L338.62 14.5611C337.799 17.0551 336.509 20.1658 335.324 22.6878C334.731 23.9484 334.178 25.0361 333.734 25.8114C333.51 26.203 333.331 26.485 333.202 26.6617C333.136 26.7519 333.105 26.7845 333.107 26.7827C333.109 26.781 333.136 26.7532 333.187 26.7153C333.231 26.6827 333.347 26.6016 333.526 26.542L334 27.965ZM340.045 15.03L341.472 15.4936C341.894 14.1944 342.228 13.1912 342.496 12.4527C342.78 11.6667 342.942 11.3135 343.007 11.21L341.735 10.415L340.463 9.62C340.203 10.0365 339.943 10.6908 339.674 11.4323C339.389 12.2213 339.041 13.2656 338.618 14.5664L340.045 15.03ZM341.735 10.415L342.956 11.2869C342.923 11.3327 342.859 11.3798 342.797 11.3982C342.755 11.4108 342.785 11.3888 342.923 11.4183C343.217 11.4816 343.733 11.7268 344.364 12.3027L345.375 11.195L346.386 10.0873C345.522 9.29823 344.543 8.69839 343.554 8.48544C342.523 8.26355 341.29 8.45706 340.514 9.54314L341.735 10.415ZM345.375 11.195L344.314 12.2557C345.065 13.0062 345.076 13.0842 345.098 13.1659C345.117 13.2343 345.142 13.384 345.137 13.7509C345.131 14.1205 345.099 14.601 345.049 15.3156L346.545 15.42L348.041 15.5244C348.089 14.8415 348.129 14.2657 348.136 13.7944C348.143 13.3204 348.12 12.8444 347.992 12.3766C347.722 11.3858 347.05 10.7488 346.436 10.1343L345.375 11.195ZM346.545 15.42L345.051 15.2901C344.999 15.8879 344.757 17.0056 344.348 18.4963C343.948 19.9531 343.415 21.6719 342.824 23.4233C341.633 26.9576 340.252 30.4958 339.307 32.2629L340.63 32.97L341.953 33.6771C343.023 31.6742 344.47 27.9324 345.667 24.3817C346.271 22.5906 346.822 20.8156 347.241 19.2905C347.65 17.7994 347.961 16.4471 348.039 15.5499L346.545 15.42ZM340.63 32.97L339.309 32.2589L337.944 34.7938L339.265 35.505L340.586 36.2161L341.951 33.6811L340.63 32.97ZM339.265 35.505L338.594 36.8466L341.714 38.4066L342.385 37.065L343.056 35.7234L339.936 34.1634L339.265 35.505ZM342.385 37.065L341.732 38.4152C343.727 39.3809 345.42 40.0724 346.593 40.2399L346.805 38.755L347.017 37.2701C346.37 37.1776 345.073 36.6991 343.038 35.7148L342.385 37.065ZM346.805 38.755L346.656 40.2476C347.492 40.3311 348.326 40.5411 349.026 40.8265C349.752 41.1225 350.21 41.449 350.416 41.6874L351.55 40.705L352.684 39.7226C352.045 38.986 351.106 38.435 350.158 38.0485C349.184 37.6514 348.068 37.3739 346.954 37.2624L346.805 38.755ZM351.55 40.705L350.489 41.7657C350.589 41.8651 350.647 41.9327 350.678 41.9739C350.711 42.016 350.699 42.01 350.678 41.9612C350.654 41.9061 350.62 41.8029 350.617 41.6643C350.614 41.523 350.643 41.4029 350.677 41.3179L352.07 41.875L353.463 42.4321C353.684 41.8792 353.662 41.3006 353.429 40.765C353.234 40.3163 352.911 39.9447 352.611 39.6443L351.55 40.705ZM352.07 41.875L351.038 40.7861C351.167 40.6642 351.248 40.6769 351.121 40.7012C351.006 40.7233 350.8 40.7382 350.487 40.7152C349.862 40.6692 349.01 40.4878 348.006 40.1633C346.005 39.5166 343.639 38.3798 341.688 37.008L340.825 38.235L339.962 39.462C342.171 41.0152 344.81 42.2834 347.083 43.0179C348.216 43.3841 349.318 43.6373 350.267 43.7071C350.741 43.742 351.228 43.7351 351.684 43.6478C352.13 43.5626 352.664 43.3783 353.102 42.9639L352.07 41.875ZM340.825 38.235L341.665 36.9921L339.26 35.3671L338.42 36.61L337.58 37.8529L339.985 39.4779L340.825 38.235ZM338.42 36.61L337.299 35.6135L335.219 37.9535L336.34 38.95L337.461 39.9465L339.541 37.6065L338.42 36.61ZM336.34 38.95L335.219 37.9535C333.649 39.7198 331.994 41.6384 330.334 43.8292L331.53 44.735L332.726 45.6408C334.316 43.5416 335.911 41.6902 337.461 39.9465L336.34 38.95ZM331.53 44.735L330.332 43.8321C328.758 45.9198 327.857 46.8809 326.94 47.5597C325.989 48.2646 324.979 48.7073 322.947 49.6895L323.6 51.04L324.253 52.3905C326.121 51.4877 327.484 50.8904 328.726 49.9703C330.003 49.0241 331.117 47.7752 332.728 45.6379L331.53 44.735ZM323.6 51.04L322.947 49.6898C321.961 50.1668 321.188 50.5057 320.63 50.7216C320.349 50.8299 320.141 50.9004 319.997 50.9417C319.816 50.9934 319.836 50.97 319.96 50.97V52.47V53.97C320.279 53.97 320.599 53.8897 320.823 53.8257C321.083 53.7511 321.382 53.647 321.712 53.5197C322.372 53.2643 323.224 52.8882 324.253 52.3902L323.6 51.04ZM319.96 52.47V50.97C319.986 50.97 319.756 50.9443 319.264 50.6256C318.828 50.3438 318.351 49.9389 317.934 49.4941L316.84 50.52L315.746 51.5459C316.304 52.1411 316.965 52.7112 317.634 53.1444C318.246 53.5407 319.089 53.97 319.96 53.97V52.47ZM422.79 16.72L422.854 18.2187L424.29 18.1578V16.72H422.79ZM415.12 17.045L415.056 15.5463L415.044 15.5469L415.12 17.045ZM408.62 17.825L409.415 19.097L409.469 19.0632L409.52 19.025L408.62 17.825ZM407.84 20.88H406.34V20.9034L406.341 20.9269L407.84 20.88ZM407.97 25.04L406.471 25.0869L406.475 25.2117L406.499 25.3342L407.97 25.04ZM408.62 25.56V27.06H408.84L409.051 26.9967L408.62 25.56ZM413.365 24.585L414.85 24.7971L414.865 24.6916V24.585H413.365ZM421.88 24.65L423.041 23.7001L423.032 23.6897L421.88 24.65ZM416.225 29.135L416.181 30.6344V30.6344L416.225 29.135ZM410.115 29.33L409.961 27.838L409.879 27.8464L409.798 27.8639L410.115 29.33ZM407.71 29.85L407.393 28.3839L406.14 28.6549L406.212 29.9351L407.71 29.85ZM408.035 35.57L406.537 35.6551L406.538 35.6651L406.539 35.675L408.035 35.57ZM408.685 42.33L407.218 42.6443L407.221 42.6558L407.223 42.6673L408.685 42.33ZM412.52 45.58L413.033 44.1703L413.004 44.1599L412.975 44.1506L412.52 45.58ZM415.705 46.035L415.637 47.5335L415.648 47.534L415.66 47.5343L415.705 46.035ZM423.83 44.605L424.801 45.7479L424.814 45.7371L424.827 45.7261L423.83 44.605ZM424.935 43.955L424.461 45.378L424.602 45.425L424.749 45.4434L424.935 43.955ZM412.455 49.545L412.707 48.0663L412.702 48.0654L412.455 49.545ZM404.135 45.515L405.113 44.3775L405.107 44.3726L405.101 44.3676L404.135 45.515ZM398.48 34.725L396.982 34.7999L396.982 34.8008L398.48 34.725ZM398.285 30.825L399.783 30.7501L399.714 29.3757L398.339 29.326L398.285 30.825ZM392.89 30.63L392.826 32.1287L392.836 32.129L392.89 30.63ZM385.545 29.07L384.63 30.2589L384.645 30.2702L384.66 30.2811L385.545 29.07ZM384.57 27.835L385.47 29.035L385.555 28.971L385.631 28.8957L384.57 27.835ZM390.94 27.64L390.964 26.1402L390.964 26.1402L390.94 27.64ZM398.74 22.7L397.258 22.4694L397.256 22.4832L398.74 22.7ZM396.075 17.11L395.855 18.5938L395.874 18.5965L395.892 18.5988L396.075 17.11ZM392.5 16.72L392.156 18.1801L392.326 18.22H392.5V16.72ZM389.12 14.705L388.16 15.8573L388.166 15.8626L388.172 15.8679L389.12 14.705ZM388.015 13.405L387.344 12.0634L386.988 12.2415L386.767 12.573L388.015 13.405ZM394.06 13.795L393.911 15.2876L393.924 15.2889L393.937 15.29L394.06 13.795ZM407.125 13.795L407.225 15.2917L407.236 15.291L407.246 15.2901L407.125 13.795ZM415.185 10.675L414.073 9.66862L414.07 9.67155L415.185 10.675ZM422.79 15.355H421.29V16.72H422.79H424.29V15.355H422.79ZM422.79 16.72L422.727 15.2213L415.056 15.5463L415.12 17.045L415.184 18.5437L422.854 18.2187L422.79 16.72ZM415.12 17.045L415.044 15.5469C413.126 15.6445 411.59 15.7438 410.459 15.8713C409.895 15.9349 409.395 16.0094 408.982 16.1035C408.628 16.1844 408.123 16.3229 407.72 16.625L408.62 17.825L409.52 19.025C409.377 19.1321 409.336 19.1 409.649 19.0285C409.904 18.9703 410.278 18.9107 410.795 18.8524C411.825 18.7362 413.279 18.6405 415.196 18.5431L415.12 17.045ZM408.62 17.825L407.825 16.553C407.05 17.0374 406.732 17.8909 406.58 18.5012C406.409 19.1862 406.34 20.0038 406.34 20.88H407.84H409.34C409.34 20.1312 409.401 19.5837 409.49 19.2288C409.534 19.0532 409.574 18.9674 409.589 18.942C409.604 18.9147 409.561 19.0058 409.415 19.097L408.62 17.825ZM407.84 20.88L406.341 20.9269L406.471 25.0869L407.97 25.04L409.469 24.9931L409.339 20.8331L407.84 20.88ZM407.97 25.04L406.499 25.3342C406.535 25.5153 406.585 25.7354 406.658 25.9345C406.69 26.0244 406.759 26.2004 406.885 26.3811C406.958 26.4863 407.366 27.06 408.165 27.06V25.56V24.06C408.553 24.06 408.849 24.2098 409.029 24.342C409.198 24.4667 409.299 24.5987 409.348 24.6679C409.441 24.8018 409.477 24.9087 409.477 24.9093C409.485 24.9296 409.47 24.8897 409.441 24.7458L407.97 25.04ZM408.165 25.56V27.06H408.62V25.56V24.06H408.165V25.56ZM408.62 25.56L409.051 26.9967C409.471 26.8708 410.185 26.8 411.415 26.8V25.3V23.8C410.175 23.8 409.069 23.8592 408.189 24.1233L408.62 25.56ZM411.415 25.3V26.8C412.106 26.8 412.785 26.7316 413.355 26.5176C413.922 26.3052 414.706 25.8042 414.85 24.7971L413.365 24.585L411.88 24.3729C411.914 24.1337 412.03 23.9426 412.152 23.822C412.257 23.7184 412.334 23.6966 412.302 23.7086C412.274 23.7191 412.192 23.7443 412.033 23.7655C411.878 23.7862 411.674 23.8 411.415 23.8V25.3ZM413.365 24.585H414.865C414.865 24.88 414.722 24.919 414.946 24.6665C415.118 24.4722 415.4 24.2311 415.762 23.9905C416.119 23.7537 416.506 23.5494 416.857 23.409C417.233 23.2581 417.459 23.225 417.525 23.225V21.725V20.225C416.908 20.225 416.273 20.4112 415.742 20.624C415.184 20.8472 414.616 21.1507 414.104 21.4908C413.597 21.827 413.095 22.2319 412.7 22.6774C412.357 23.0648 411.865 23.7375 411.865 24.585H413.365ZM417.525 21.725V23.225C417.71 23.225 418.16 23.3524 418.841 23.8301C419.476 24.2762 420.145 24.9108 420.728 25.6103L421.88 24.65L423.032 23.6897C422.315 22.8292 421.457 22.0013 420.564 21.3749C419.717 20.7801 418.64 20.225 417.525 20.225V21.725ZM421.88 24.65L420.719 25.5999C421.239 26.2352 421.29 26.5444 421.29 26.6H422.79H424.29C424.29 25.4856 423.691 24.4948 423.041 23.7001L421.88 24.65ZM422.79 26.6H421.29C421.29 26.736 421.259 26.7903 421.221 26.8374C421.163 26.9082 421.006 27.0513 420.622 27.2004C419.82 27.5115 418.425 27.6991 416.269 27.6356L416.225 29.135L416.181 30.6344C418.445 30.7009 420.332 30.531 421.708 29.9971C422.412 29.7237 423.068 29.3224 423.551 28.727C424.053 28.1078 424.29 27.374 424.29 26.6H422.79ZM416.225 29.135L416.269 27.6356C414.003 27.569 411.921 27.6352 409.961 27.838L410.115 29.33L410.269 30.822C412.079 30.6348 414.027 30.571 416.181 30.6344L416.225 29.135ZM410.115 29.33L409.798 27.8639L407.393 28.3839L407.71 29.85L408.027 31.3161L410.432 30.7961L410.115 29.33ZM407.71 29.85L406.212 29.9351L406.537 35.6551L408.035 35.57L409.533 35.4849L409.208 29.7649L407.71 29.85ZM408.035 35.57L406.539 35.675C406.795 39.3286 406.995 41.6045 407.218 42.6443L408.685 42.33L410.152 42.0157C409.984 41.2355 409.795 39.2214 409.531 35.465L408.035 35.57ZM408.685 42.33L407.223 42.6673C407.53 43.996 408.438 44.9673 409.317 45.6213C410.21 46.2863 411.23 46.7435 412.065 47.0094L412.52 45.58L412.975 44.1506C412.38 43.9615 411.677 43.6387 411.108 43.2149C410.524 42.7802 410.23 42.354 410.147 41.9927L408.685 42.33ZM412.52 45.58L412.007 46.9897C412.956 47.3347 414.199 47.4681 415.637 47.5335L415.705 46.035L415.773 44.5365C414.351 44.4719 413.514 44.3453 413.033 44.1703L412.52 45.58ZM415.705 46.035L415.66 47.5343C417.853 47.6008 419.674 47.5212 421.15 47.2602C422.615 47.0011 423.868 46.5418 424.801 45.7479L423.83 44.605L422.859 43.4621C422.492 43.7732 421.827 44.0939 420.628 44.306C419.438 44.5163 417.847 44.5992 415.75 44.5357L415.705 46.035ZM423.83 44.605L424.827 45.7261C424.958 45.6096 425.062 45.522 425.145 45.4573C425.23 45.3908 425.277 45.3611 425.292 45.352C425.313 45.3393 425.255 45.378 425.137 45.4086C425.008 45.4416 424.758 45.4773 424.461 45.378L424.935 43.955L425.409 42.532C424.645 42.2772 423.999 42.6316 423.766 42.7692C423.457 42.9517 423.141 43.2107 422.833 43.4839L423.83 44.605ZM424.935 43.955L424.749 45.4434C424.568 45.4208 424.495 45.3696 424.626 45.4291C424.705 45.4653 424.826 45.5275 424.976 45.6171C425.278 45.7971 425.639 46.0515 425.964 46.3477C426.298 46.6513 426.534 46.9449 426.659 47.1922C426.776 47.4236 426.756 47.526 426.744 47.5668L428.185 47.985L429.626 48.4032C429.906 47.4365 429.691 46.5395 429.335 45.8366C428.987 45.1495 428.472 44.5737 427.984 44.1298C427.489 43.6785 426.96 43.3073 426.513 43.0404C426.288 42.9065 426.069 42.79 425.87 42.6993C425.722 42.6318 425.432 42.5055 425.121 42.4666L424.935 43.955ZM428.185 47.985L426.744 47.5668C426.648 47.9005 426.397 48.2212 425.553 48.4736C424.667 48.7387 423.429 48.825 421.88 48.825V50.325V51.825C423.451 51.825 425.073 51.7488 426.413 51.3477C427.796 50.9338 429.137 50.0845 429.626 48.4032L428.185 47.985ZM421.88 50.325V48.825C418.904 48.825 415.673 48.5712 412.707 48.0663L412.455 49.545L412.203 51.0237C415.347 51.5588 418.746 51.825 421.88 51.825V50.325ZM412.455 49.545L412.702 48.0654C411.133 47.804 410.155 47.6162 409.123 47.1583C408.089 46.6998 406.918 45.9293 405.113 44.3775L404.135 45.515L403.157 46.6525C405.057 48.2857 406.486 49.2702 407.906 49.9005C409.328 50.5313 410.657 50.766 412.208 51.0246L412.455 49.545ZM404.135 45.515L405.101 44.3676C403.307 42.8563 402.118 41.5824 401.329 40.1515C400.55 38.7379 400.1 37.0583 399.978 34.6491L398.48 34.725L396.982 34.8008C397.12 37.5267 397.645 39.6821 398.702 41.5997C399.75 43.5001 401.258 45.0537 403.169 46.6624L404.135 45.515ZM398.48 34.725L399.978 34.6501L399.783 30.7501L398.285 30.825L396.787 30.8999L396.982 34.7999L398.48 34.725ZM398.285 30.825L398.339 29.326L392.944 29.131L392.89 30.63L392.836 32.129L398.231 32.324L398.285 30.825ZM392.89 30.63L392.954 29.1314C390.644 29.0324 389.358 28.9529 388.439 28.7691C387.626 28.6065 387.126 28.3672 386.43 27.8589L385.545 29.07L384.66 30.2811C385.654 31.0078 386.551 31.451 387.851 31.7109C389.045 31.9496 390.586 32.0326 392.826 32.1286L392.89 30.63ZM385.545 29.07L386.46 27.8811C386.024 27.5461 385.843 27.3777 385.792 27.3171C385.788 27.3122 385.812 27.3395 385.844 27.3963C385.874 27.4495 385.938 27.5734 385.971 27.7558C386.006 27.9535 386.002 28.2145 385.89 28.4874C385.78 28.7556 385.607 28.932 385.47 29.035L384.57 27.835L383.67 26.635C383.468 26.7868 383.25 27.018 383.115 27.3474C382.978 27.6815 382.969 28.01 383.017 28.2818C383.101 28.7551 383.365 29.0924 383.495 29.2467C383.785 29.5923 384.221 29.9439 384.63 30.2589L385.545 29.07ZM384.57 27.835L385.631 28.8957C385.44 29.0866 385.25 29.1662 385.203 29.1856C385.134 29.2143 385.088 29.225 385.086 29.2255C385.082 29.2266 385.125 29.2167 385.241 29.2036C385.466 29.178 385.824 29.1551 386.339 29.1393C387.359 29.1079 388.875 29.1074 390.916 29.1398L390.94 27.64L390.964 26.1402C388.91 26.1076 387.338 26.1071 386.246 26.1407C385.705 26.1574 385.25 26.1832 384.903 26.2227C384.732 26.242 384.549 26.2688 384.377 26.3104C384.292 26.3312 384.177 26.3633 384.054 26.4143C383.954 26.4561 383.725 26.559 383.509 26.7743L384.57 27.835ZM390.94 27.64L390.916 29.1398C392.867 29.171 394.421 29.2416 395.475 29.2365C396.469 29.2316 397.545 29.1826 398.376 28.6531C399.359 28.027 399.636 27.0057 399.783 26.2004C399.861 25.7754 399.921 25.2821 399.985 24.7591C400.05 24.2222 400.122 23.6188 400.224 22.9168L398.74 22.7L397.256 22.4832C397.147 23.2274 397.071 23.8671 397.006 24.3979C396.94 24.9427 396.89 25.3416 396.832 25.661C396.707 26.3446 396.61 26.2212 396.764 26.1231C396.766 26.1218 396.559 26.2312 395.46 26.2365C394.422 26.2415 393.076 26.174 390.964 26.1402L390.94 27.64ZM398.74 22.7L400.222 22.9306C400.443 21.5089 400.633 20.3927 400.72 19.5834C400.764 19.1722 400.791 18.7717 400.772 18.4026C400.753 18.036 400.685 17.6046 400.469 17.1898C399.967 16.225 399.027 15.9799 398.446 15.8761C397.914 15.781 397.03 15.716 396.258 15.6212L396.075 17.11L395.892 18.5988C396.973 18.7315 397.462 18.7477 397.919 18.8294C398.327 18.9022 397.992 18.9294 397.807 18.5739C397.75 18.4638 397.768 18.4214 397.776 18.5583C397.783 18.6927 397.775 18.9102 397.737 19.2617C397.66 19.9779 397.492 20.9661 397.258 22.4694L398.74 22.7ZM396.075 17.11L396.295 15.6262C394.555 15.3684 393.278 15.22 392.5 15.22V16.72V18.22C393.022 18.22 394.085 18.3316 395.855 18.5938L396.075 17.11ZM392.5 16.72L392.844 15.2599C392.406 15.1568 392.152 15.0607 391.826 14.865C391.444 14.6359 390.954 14.2642 390.068 13.5421L389.12 14.705L388.172 15.8679C389.041 16.5758 389.689 17.0816 390.282 17.4375C390.931 17.8268 391.489 18.0231 392.156 18.1801L392.5 16.72ZM389.12 14.705L390.08 13.5527C389.692 13.2294 389.461 13.0154 389.347 12.8878C389.283 12.8151 389.331 12.8526 389.388 12.977C389.419 13.0454 389.481 13.201 389.492 13.4197C389.503 13.6615 389.448 13.9593 389.263 14.237L388.015 13.405L386.767 12.573C386.304 13.2675 386.541 13.963 386.658 14.221C386.788 14.5059 386.975 14.7343 387.105 14.8809C387.382 15.1921 387.768 15.5306 388.16 15.8573L389.12 14.705ZM388.015 13.405L388.686 14.7466C388.532 14.8233 388.404 14.8532 388.367 14.8615C388.314 14.8737 388.274 14.8794 388.257 14.8816C388.223 14.8861 388.208 14.8862 388.225 14.8853C388.257 14.8837 388.328 14.8822 388.449 14.8836C388.686 14.8863 389.047 14.8992 389.539 14.927C390.52 14.9823 391.976 15.0941 393.911 15.2876L394.06 13.795L394.209 12.3024C392.244 12.1059 390.743 11.9902 389.708 11.9318C389.193 11.9027 388.782 11.8872 388.483 11.8838C388.336 11.8821 388.197 11.8831 388.079 11.8889C388.021 11.8917 387.946 11.8967 387.866 11.9071C387.854 11.9087 387.604 11.9333 387.344 12.0634L388.015 13.405ZM394.06 13.795L393.937 15.29C397.991 15.6222 402.292 15.6205 407.225 15.2917L407.125 13.795L407.025 12.2983C402.208 12.6194 398.059 12.6178 394.183 12.3L394.06 13.795ZM407.125 13.795L407.246 15.2901C409.654 15.0949 411.508 14.8951 412.777 14.6606C413.397 14.5459 413.97 14.4068 414.42 14.2162C414.64 14.1226 414.927 13.9776 415.18 13.7452C415.446 13.5005 415.775 13.0584 415.775 12.43H414.275H412.775C412.775 11.9478 413.031 11.6459 413.15 11.536C413.256 11.4384 413.323 11.4229 413.249 11.4543C413.109 11.5135 412.797 11.606 412.231 11.7106C411.127 11.9149 409.406 12.1051 407.004 12.2999L407.125 13.795ZM414.275 12.43H415.775C415.775 12.4836 415.759 12.4494 415.837 12.3014C415.915 12.1534 416.059 11.9465 416.3 11.6784L415.185 10.675L414.07 9.67155C413.434 10.3782 412.775 11.3243 412.775 12.43H414.275ZM415.185 10.675L416.297 11.6814C416.495 11.4628 416.708 11.3788 417.125 11.4611C417.622 11.5592 418.275 11.8933 418.976 12.4551C419.659 13.0024 420.281 13.68 420.722 14.3067C420.941 14.6193 421.098 14.8944 421.194 15.1109C421.302 15.3518 421.29 15.4214 421.29 15.355H422.79H424.29C424.29 14.8173 424.118 14.302 423.935 13.8905C423.741 13.4548 423.477 13.0103 423.177 12.5825C422.577 11.7284 421.761 10.8419 420.852 10.1137C419.96 9.39985 418.866 8.74678 417.706 8.51782C416.465 8.27304 415.11 8.52223 414.073 9.66863L415.185 10.675Z" fill="black" mask="url(#path-1-outside-1_134_68)"/>
<path d="M168.76 65.05H172.3L172.81 64.09C172.9 64.03 173.08 63.97 173.23 63.94C173.38 63.91 173.8 63.91 174.37 63.91C175.57 63.91 175.81 64.33 175.81 64.87C175.81 65.17 175.63 65.38 175.33 65.5C175.06 65.62 173.77 65.74 171.4 65.83C169.03 65.92 166.72 65.89 164.5 65.8L160.42 65.62L158.95 68.5C158.95 68.53 159.19 68.56 159.64 68.59C160.57 68.68 162.22 68.74 164.17 68.77C169.72 68.86 172.81 69.25 173.47 69.88C173.68 70.15 173.83 70.99 173.83 72.43V74.65H175.81C176.17 74.56 176.26 74.41 176.5 73.99C176.59 73.75 176.71 73.63 176.86 73.57C176.98 73.51 177.37 73.51 178 73.6C178.63 73.69 179.02 73.72 179.14 73.72C179.35 73.72 179.44 73.9 179.44 74.26C179.44 74.62 179.35 74.89 179.2 75.04C179.02 75.22 178.06 75.34 176.38 75.34H173.86L173.5 77.59C173.26 79.06 172.93 80.23 172.54 81.1L171.94 82.45L172.57 82.63C176.14 83.92 172.21 84.4 171.85 84.4C171.67 84.4 171.46 84.31 171.28 84.13C171.1 83.95 170.92 83.86 170.77 83.86C170.59 83.86 170.23 83.98 169.69 84.19C168.52 84.64 165.1 85.21 164.68 84.97C163.72 84.67 164.95 84.34 165.43 84.25C165.94 84.16 166.75 83.62 167.17 83.2C167.41 82.96 167.47 82.84 167.38 82.78C167.26 82.72 165.97 82.51 163.36 82.27C160.75 82.03 159.19 81.85 158.59 81.76C157.39 81.58 157.18 81.4 157.63 79.66C157.87 78.76 158.05 77.83 158.14 76.9L158.29 75.34L155.59 75.28C153.79 75.25 152.86 75.1 152.77 74.92C152.74 74.8 152.83 74.74 153.07 74.71C153.28 74.68 154.18 74.65 155.8 74.65C158.98 74.65 158.35 75.22 158.56 71.62L158.71 68.89L157.51 69.7C156.46 70.36 156.16 70.57 154.75 70.57C153.31 70.57 153.4 70.15 154.09 69.7C154.12 69.67 154.15 69.64 154.18 69.64C155.5 68.86 156.85 65.53 156.85 63.58C156.85 61.66 157.12 61.66 158.65 61.72C159.4 61.75 160 61.84 160.39 61.96C160.78 62.08 161.02 62.17 161.11 62.29C161.23 62.53 160.96 64.09 160.84 64.48C160.66 64.84 163.33 65.05 168.76 65.05ZM161.92 72.82V74.89H164.35L164.47 73.42C164.53 72.55 164.56 71.65 164.53 70.78L164.47 69.52L163.51 69.46C162.25 69.28 162.49 69.55 162.31 70.24C162.13 70.93 162.01 71.86 161.92 72.82ZM168.4 69.61H167.41L167.23 71.92C167.11 73.45 167.02 74.32 166.99 74.44C166.87 74.71 166.96 74.74 167.11 74.86H169.6L169.78 73.6C169.96 72.37 169.72 70.27 169.54 69.91C169.45 69.76 169.09 69.64 168.4 69.61ZM164.2 75.58H162.91C162.04 75.58 161.62 75.64 161.65 75.76C161.65 76.39 160.9 79.99 160.66 80.47C160.54 80.71 160.51 80.86 160.54 80.92C160.57 81.01 160.99 81.04 161.77 81.16L162.97 81.34L163.42 79.84C163.72 78.85 163.96 77.92 164.05 76.96L164.2 75.58ZM167.26 81.58H168.37L168.85 80.14C169.18 79.18 169.42 78.16 169.54 77.08L169.72 75.58H166.9L166.78 76.84C166.69 77.68 166.51 78.67 166.33 79.75C165.97 81.94 165.85 81.58 167.26 81.58ZM210.31 72.58C209.74 76.45 209.74 79.96 209.2 83.23C209.2 84.49 208.6 85.03 207.25 85.03H196.45C195.37 85.03 194.14 85.03 192.34 85.03H189.64C189.07 85.03 188.53 84.49 188.53 83.8C188.53 80.5 187.96 76.45 187.96 73.15V65.59C187.15 63.85 187.96 63.85 189.64 63.85C193.57 63.85 196.99 63.85 201.1 63.85H206.71C208.09 63.85 209.2 63.85 209.74 64.36C210.31 64.36 210.82 64.93 210.82 64.93C210.82 67.96 210.31 70.12 210.31 72.58ZM193.96 65.53V72.52C193.96 72.52 200.44 72.58 205.63 72.58V71.2C205.63 69.55 205.63 67.96 205.63 66.16V65.59C200.44 65.59 193.96 65.53 193.96 65.53ZM193.96 83.74C193.96 83.74 200.44 83.8 203.41 83.23C205.63 83.23 205.63 82.72 205.63 82.15C205.63 81.07 205.63 79.96 205.63 78.85V74.23C201.1 74.23 193.96 74.17 193.96 74.17V83.74ZM239.62 71.89C239.62 72.13 239.53 72.28 239.44 72.4C239.17 72.55 235.03 73.36 234.7 73.45C234.52 73.48 234.7 73.99 235.18 74.95C235.66 75.94 235.9 76.57 235.9 76.93C235.9 78.19 233.56 77.98 232.54 76.69C232.36 76.51 232.24 76.3 232.24 76.03C232.21 75.76 232.12 75.61 232.09 75.43C231.97 75.1 231.85 74.71 231.85 74.59C231.82 74.56 231.76 74.53 231.73 74.53C231.7 74.53 231.67 74.5 231.61 74.56C231.58 74.59 231.34 74.95 231.22 75.19C231.19 75.31 230.95 75.73 230.65 76.42C229.99 77.83 229.75 80.05 230.23 80.59C230.5 80.86 230.95 81.01 231.73 81.01C233.26 81.01 236.32 80.08 236.32 79.69C236.29 79.51 236.44 79.36 236.65 79.27C236.8 79.21 236.92 79.18 237.1 79.21C237.43 79.18 237.82 79.3 238.24 79.45C241.66 80.68 235.27 82.48 232.3 82.48C229.33 82.48 227.92 82.06 226.81 81.16C225.7 80.26 225.67 80.08 225.67 79.03C225.67 78.01 226.45 76.51 227.86 75.04C228.55 74.32 229.39 73.57 230.38 72.97C230.74 72.76 230.89 72.64 230.77 72.58H229.66C228.79 72.58 228.04 72.73 227.35 72.88C226.66 73.06 226.24 73.18 226.06 73.18C225.88 73.18 225.58 73.06 225.1 72.88L224.2 72.46L225.1 70.78C225.67 69.7 225.91 69.01 225.88 68.74C225.85 68.44 225.61 68.29 225.1 68.29C224.17 68.29 222.7 67.66 222.7 67.24C222.7 67.15 223.24 67.09 224.41 67.09C225.58 67.09 226.24 67.03 226.51 66.97C226.66 66.88 226.9 66.7 227.08 66.31C227.23 65.89 227.65 65.17 228.31 64.18L229.18 62.86L230.23 63.34C232.66 64.54 232.93 64.9 232.24 66.34C232.15 66.61 232.24 66.76 232.45 66.79C232.66 66.82 233.05 66.85 233.59 66.82C234.7 66.85 235.03 66.73 235.45 66.16C236.08 65.35 236.89 65.32 237.91 66.07C238.75 66.61 238.9 67.36 238.09 67.9C237.85 68.14 237.46 68.26 236.89 68.29H229.96L228.16 71.17L229.51 71.23C230.38 71.26 231.1 71.38 231.52 71.5C232.36 71.74 232.84 71.74 234.1 71.32C236.23 70.6 237.7 70.42 239.62 71.89ZM255.19 69.43C254.86 69.31 254.71 69.25 254.74 69.07C254.8 68.98 254.83 68.86 254.92 68.77C255.04 68.65 255.22 68.44 255.58 68.11C255.88 67.84 256.24 67.45 256.57 66.97C257.23 65.98 257.95 62.8 257.74 62.56C257.59 62.38 257.65 62.32 257.8 62.32C258.16 62.32 262.03 63.28 262.27 63.4C262.75 63.64 262.66 64.15 262.09 64.93L261.61 65.53L264.97 65.35C267.16 65.23 268.48 65.05 268.81 64.75C269.47 64.21 271.93 64.63 271.93 65.2C271.93 65.59 271.6 65.83 271.03 65.95C270.43 66.04 269.08 66.13 266.86 66.16C264.61 66.19 263.11 66.25 262.27 66.4C260.68 66.67 260.62 66.82 259.78 67.9C258.64 69.64 257.44 69.97 255.19 69.43ZM268.81 67.3C269.47 66.73 271.93 67.15 271.93 67.72C271.93 68.11 271.6 68.38 271.03 68.47C270.43 68.56 269.08 68.65 266.86 68.68C265.48 68.74 261.88 68.83 261.07 68.89L260.89 68.05L264.97 67.9C267.16 67.81 268.48 67.54 268.81 67.3ZM275.29 81.19C276.94 80.44 277.69 80.92 277.18 82.48C276.97 82.87 276.7 83.17 276.19 83.41C275.14 83.86 272.68 84.61 271.69 84.28C269.08 83.68 266.83 78.37 268.18 74.83L269.47 71.38L263.02 71.44C260.71 71.47 255.58 71.77 255.58 71.23C255.64 71.11 255.7 70.33 256.87 70.33C257.92 70.33 265.84 69.79 264.49 70C266.2 69.79 271.6 69.85 271.93 70.21C272.08 70.36 272.05 70.99 271.75 72.07C271.48 73.15 271.33 74.47 271.33 76.06C271.33 79.27 271.75 80.26 273.07 81.34C273.4 81.61 273.58 81.7 273.76 81.7C273.94 81.73 274.45 81.52 275.29 81.19ZM265.33 77.98C265.33 78.88 264.61 79.6 263.89 81.04C264.61 81.76 265.33 82.48 266.92 83.2C266.05 83.95 265.33 83.95 264.61 84.64H263.89C262.45 82.48 261.01 82.48 259.57 83.2C258.13 83.95 255.97 83.95 254.53 84.64V83.95C255.97 83.2 258.13 81.76 260.29 80.32C258.85 78.88 258.13 77.98 256.69 76.54C259.57 74.35 260.29 76.54 261.73 77.98C261.73 77.23 262.45 77.23 262.45 76.54C262.45 75.1 263.17 75.1 263.89 75.1C266.05 75.1 266.92 75.79 265.33 77.98ZM291.46 84.04C290.14 83.83 289.03 83.62 287.8 83.41C287.71 83.41 287.5 83.23 287.41 82.93H291.34C291.34 82 291.34 81.31 291.34 80.41C290.35 80.41 289.42 80.41 288.43 80.29C287.11 80.2 286.81 79.9 286.81 78.58C286.69 76.15 286.81 73.75 286.81 71.2H291.25C291.34 70.42 291.34 69.7 291.46 68.8H286.3C287.8 67.57 289.63 67.99 291.46 67.87C291.55 66.97 291.64 66.16 291.76 65.26C293.86 65.47 293.86 65.47 294.07 67.78C294.58 67.87 294.97 67.99 295.57 67.99C295.9 66.58 296.89 66.58 298 66.58C298.3 66.58 298.72 66.76 298.81 66.97C298.9 67.27 298.81 67.78 298.6 67.99C298.21 68.29 297.61 68.68 297.01 68.68C296.08 68.89 295.09 68.8 294.07 68.8V71.41C294.88 71.41 295.69 71.41 296.5 71.41C297.49 71.53 298.12 71.83 298 72.94C297.91 74.44 298.12 75.85 298.12 77.26C298 79.6 297.4 80.08 295.18 80.08C294.88 80.2 294.46 80.08 294.07 80.08V82.72C294.67 82.42 295.18 82.3 295.57 82C295.99 81.7 298 81.52 298.42 81.82C298.9 82.3 298.72 82.81 298.21 83.02C297.61 83.23 296.89 83.23 296.29 83.32C295.9 83.41 295.48 83.41 295.18 83.41C294.16 83.32 293.98 83.83 294.07 84.73C294.16 86.65 293.86 87.07 292.15 87.37C291.55 87.46 291.25 87.25 291.25 86.56C291.25 86.14 291.25 85.63 291.34 85.24C291.34 84.73 291.34 84.34 291.46 84.04ZM306.28 73.84C308.5 72.94 309.31 71.32 309.91 69.49C310.42 67.87 310.21 67.48 308.5 67.48H308.11C306.88 67.39 305.68 67.27 304.57 67.27H300.52C300.52 67.39 300.52 67.57 300.52 67.69C302.35 68.38 304.27 67.87 306.19 68.2C306.07 69.79 305.38 71.02 304.36 72.22L303.67 71.53C303.34 71.11 303.04 70.72 302.74 70.3C302.23 69.61 300.64 69.31 299.92 69.79C298.81 70.51 299.71 71.2 300.13 71.83C300.73 72.64 301.45 73.33 302.23 74.23C301.12 74.65 300.01 75.04 299.02 75.46V75.76C300.01 75.76 301.12 75.97 302.05 75.76C303.46 75.46 304.57 75.25 305.77 76.15C307.3 77.26 309.01 77.38 310.81 76.06C309.31 75.34 307.99 74.74 306.28 73.84ZM290.14 72.13V75.16C290.53 75.16 290.83 75.16 291.25 75.16V72.13C290.83 72.13 290.53 72.13 290.14 72.13ZM295.09 75.46L294.79 72.64C294.79 72.43 294.46 72.31 294.28 72.13C294.16 72.31 293.98 72.52 293.98 72.73C293.86 73.63 293.98 74.44 293.98 75.46H295.09ZM305.89 84.73V79.99C306.88 79.9 307.9 79.9 308.8 79.78C309.1 79.78 309.4 79.39 309.52 79.09C309.61 78.88 309.4 78.37 309.31 78.37C308.5 78.37 307.6 78.49 306.79 78.58C306.49 78.58 306.19 78.88 305.89 78.97C305.77 78.67 305.56 78.28 305.68 77.98C305.68 77.08 305.26 76.75 304.45 76.75C304.27 76.87 304.06 76.75 303.76 76.75C301.93 76.57 301.93 76.57 301.84 78.37C301.84 78.37 301.84 78.49 301.75 78.58C301.03 78.58 300.34 78.58 299.62 78.67V79.09C300.43 79.18 301.24 79.39 302.14 79.69V84.22C300.82 84.43 299.53 84.64 298.12 84.94C298.21 85.03 298.21 85.15 298.21 85.24C298.51 85.33 298.81 85.33 299.11 85.45C302.05 85.54 305.08 85.75 307.99 85.75C308.89 85.75 309.91 85.54 310.81 85.24C311.02 85.15 311.11 84.43 311.32 84.04C310.93 83.92 310.63 83.74 310.21 83.74C309.7 83.83 309.22 84.04 308.71 84.13C307.78 84.34 306.88 84.52 305.89 84.73ZM290.23 76.66V79.6C290.74 79.48 291.04 79.48 291.34 79.39V76.66C290.95 76.66 290.65 76.66 290.23 76.66ZM295.09 76.66H293.98C293.98 77.56 293.98 78.37 293.98 79.3C294.37 79.3 294.79 79.18 295.09 79.18V76.66ZM320.23 77.5C320.17 77.05 320.14 76.27 320.14 75.13C320.14 72.91 320.89 68.38 321.4 67.48C321.58 67.15 322.15 67.57 322.87 68.05L323.98 68.71C324.73 69.13 324.76 69.19 324.61 70.57C324.55 71.23 324.34 72.19 324.07 73.48C323.8 74.77 323.62 76.06 323.53 77.38L323.35 79.51L324.43 79.99C325.15 80.26 325.54 80.5 325.57 80.71C325.54 80.86 325.15 81.04 324.52 81.31C323.86 81.61 323.44 81.76 323.38 81.88C323.29 82.03 323.05 82 322.72 81.79C322 81.34 321.19 80.44 320.77 79.69C320.44 78.94 320.35 78.43 320.23 77.5ZM333.82 68.74C334.78 68.98 335.59 69.07 336.16 69.07C336.73 69.07 337.15 69.16 337.36 69.19C337.57 69.19 337.75 69.31 337.9 69.46L338.53 70.09C339.67 71.35 339.13 72.73 337.99 73.15C336.88 73.57 335.77 72.46 335.65 72.13C335.53 71.8 336.01 70.84 336.13 70.63C336.13 70.54 332.86 69.94 331.9 69.94C331 69.94 329.74 69.04 330.01 68.62C330.13 68.44 330.55 68.32 331.3 68.35C332.02 68.38 332.86 68.47 333.82 68.74ZM329.53 80.47C329.23 79.96 329.08 79.48 329.08 79.09C329.08 78.7 329.14 78.46 329.29 78.43C329.5 78.4 329.92 78.34 330.58 78.34C331.96 78.34 334.96 78.88 336.82 79.3C337.63 79.42 338.14 81.46 337.48 81.82C336.13 82.57 333.04 82.39 330.58 81.46C330.19 81.31 329.86 80.98 329.53 80.47ZM366.19 74.08V75.34C366.19 77.02 366.19 76.63 367.81 76.45L369.37 76.27C369.88 76.18 370.12 75.97 370.45 75.58C370.6 75.34 370.81 75.22 370.96 75.19C371.11 75.16 371.5 75.16 372.07 75.22C373.27 75.34 373.87 75.73 373.87 76.33C373.87 76.48 373.63 76.66 373.21 76.78C372.76 76.9 371.65 77.02 369.91 77.2C368.17 77.38 367.12 77.5 366.73 77.59C366.34 77.68 366.16 77.8 366.19 77.98C366.16 78.13 366.22 78.25 366.34 78.28C366.49 78.31 366.88 78.28 367.54 78.22C368.92 78.1 369.55 78.25 370.15 79.09C370.75 79.96 372.01 80.77 373.42 81.19C374.14 81.4 374.5 81.55 374.5 81.7C374.53 81.79 374.38 81.88 374.17 81.97C372.91 82.45 369.7 81.64 367.81 80.56C366.82 79.99 366.31 79.69 366.25 79.69L366.4 83.26C366.34 83.56 366.25 83.77 366.04 83.95C365.62 84.34 363.94 84.4 363.01 84.01L362.44 83.77L362.62 79.69L361.63 80.47C360.52 81.34 359.44 81.97 357.79 82.24C356.92 82.39 356.29 82.36 355.9 82.24C355.48 82.12 355.27 81.97 355.3 81.79C355.27 81.55 355.45 81.4 355.84 81.31C356.59 81.16 358.06 80.35 358.48 80.08C358.87 79.81 359.11 79.54 359.47 78.79C359.83 78.04 359.83 78.01 360.94 77.89C361.48 77.89 361.87 77.98 362.14 78.1C362.38 78.22 362.53 78.28 362.59 78.28C362.68 78.25 362.71 78.16 362.71 78.04C362.71 77.89 362.44 77.8 361.96 77.77C361.51 77.74 360.22 77.68 358.15 77.65C356.11 77.62 355 77.53 354.91 77.44C354.67 77.2 354.85 77.08 355.39 76.99C355.93 76.9 357.13 76.93 358.96 76.99L362.47 77.11V73.99H361.09C360.22 73.99 359.5 73.96 359.02 73.87L358.33 73.72L358.45 65.14H359.29C360.4 65.14 361.66 64.24 361.93 63.58C362.2 62.92 362.29 62.86 363.16 62.77C364.06 62.68 365.32 62.74 365.47 62.83C365.56 62.86 365.59 63.01 365.56 63.28C365.47 64 364.99 64.66 364.09 65.17C363.61 65.44 363.46 65.65 363.61 65.74C363.82 65.83 364.81 65.86 366.55 65.98C369.97 66.22 369.28 65.32 369.43 69.73L369.55 73.09L366.19 74.08ZM352.6 64.63L353.56 64.3C354.97 63.82 356.14 63.43 356.62 63.82C356.83 64.03 357.04 64.72 357.34 65.95C357.58 66.85 356.86 67.33 355.45 67.51C354.73 67.6 354.16 67.51 353.68 67.3C352.78 66.91 352.72 66.85 352.66 65.74L352.6 64.63ZM371.26 67.06C371.11 66.67 371.02 66.25 371.02 65.71C371.02 64.66 371.23 64.39 372.34 64.03C373.75 63.58 374.65 63.67 375.07 64.18C375.28 64.54 375.37 65.02 375.37 65.56C375.37 66.64 375.16 67 373.54 67.51C372.76 67.75 372.19 67.84 371.86 67.75C371.65 67.66 371.41 67.45 371.26 67.06ZM362.47 68.98V69.61H365.77V68.2C365.77 66.28 365.8 66.64 364 66.49L362.77 66.43L362.59 67.39C362.5 68.11 362.47 68.65 362.47 68.98ZM372.52 69.91C373.21 69.64 373.75 69.46 374.17 69.46C375.01 69.46 375.07 69.61 375.43 70.54C375.79 71.44 375.55 72.22 374.29 72.73C373.03 73.33 372.19 73.18 371.59 72.16C371.29 71.65 371.2 71.23 371.29 70.84C371.47 70.51 371.86 70.18 372.52 69.91ZM354.7 69.76C355.06 69.73 355.45 69.7 355.84 69.7C356.2 69.7 356.47 69.73 356.59 69.76C356.83 69.88 356.95 70.03 357.22 70.3C357.97 71.65 356.59 73 354.31 73H353.17L353.11 72.01C353.05 71.23 353.23 70.54 353.74 70.15C354.01 69.94 354.31 69.79 354.7 69.76ZM362.47 70.45V73.33H363.73C365.89 73.33 366.01 73.24 365.95 71.83L365.89 70.6L362.47 70.45ZM389.98 74.62C389.83 73.9 389.74 72.73 389.74 71.05C389.74 69.4 389.8 68.38 389.83 67.99C389.95 67.21 390.64 65.95 391.15 65.32C391.36 65.05 391.6 64.81 391.84 64.75C392.08 64.63 392.17 64.6 392.23 64.54C392.23 64.51 392.59 64.63 393.19 64.87C394.39 65.35 394.9 67.27 394.3 68.89C393.67 70.48 393.79 78.04 393.85 79.06C393.88 79.6 394.06 80.05 394.27 80.32C395.44 81.76 396.94 82.3 398.5 81.67C399.16 81.4 399.79 80.89 400.36 80.11C400.66 79.75 401.05 79.12 401.53 78.22C402.58 76.48 402.82 76.24 403.87 76.42C404.41 76.48 404.74 76.63 404.83 76.72C405.13 76.99 402.25 81.34 401.44 81.97C400.63 82.63 400.21 82.78 399.01 82.81C396.55 82.99 393.52 81.94 392.47 80.53C392.38 80.47 392.23 80.26 391.96 79.93C391.75 79.66 391.6 79.48 391.51 79.39C391.18 79.03 390.52 77.44 389.98 74.62ZM433.99 82.42C436.84 83.59 435.76 84.88 431.5 82.87C428.23 81.7 424.18 78.1 423.88 76.54V75.31C424.81 72.91 427.51 69.55 430.15 66.85C430.6 66.85 431.17 65.05 433.6 66.85C434.8 67.69 434.44 67.69 433.99 68.5L429.34 74.02C428.95 74.89 428.08 75.73 428.08 76.54C428.08 79.15 432.34 81.19 433.99 82.42Z" fill="black"/>
</svg>
